/* XPM */
static char *acfja_6a7k6[] = {
/* columns rows colors chars-per-pixel */
"75 75 246 2 ",
"   c None",
".  c #0C1D05",
"X  c #0A1807",
"o  c #141E08",
"O  c #1D0506",
"+  c #2D070A",
"@  c #33060C",
"#  c #34090E",
"$  c #39080D",
"%  c #340B11",
"&  c #3B0B12",
"*  c #380711",
"=  c #3B1718",
"-  c #30140F",
";  c #0E2309",
":  c #0D2807",
">  c #13250B",
",  c #1A250E",
"<  c #142A0D",
"1  c #192B0E",
"2  c #112606",
"3  c #14340C",
"4  c #19340E",
"5  c #1A3C0F",
"6  c #14390B",
"7  c #152611",
"8  c #152B10",
"9  c #192D12",
"0  c #1A2613",
"q  c #163213",
"w  c #1B3413",
"e  c #1C3C13",
"r  c #1D3519",
"t  c #1D3B1B",
"y  c #173A10",
"u  c #272814",
"i  c #223D15",
"p  c #223D1B",
"a  c #263519",
"s  c #32361B",
"d  c #3A2315",
"f  c #283924",
"g  c #343323",
"h  c #3E1B21",
"j  c #460F15",
"k  c #490F16",
"l  c #490F18",
"z  c #470F18",
"x  c #580E17",
"c  c #461016",
"v  c #4A1017",
"b  c #4C1219",
"n  c #46161A",
"m  c #53121A",
"M  c #5B141C",
"N  c #531319",
"B  c #51080C",
"V  c #690E19",
"C  c #650E17",
"Z  c #63151D",
"A  c #6A141D",
"S  c #68181E",
"D  c #610A0C",
"F  c #461D22",
"G  c #5B1A22",
"H  c #591A23",
"J  c #641621",
"K  c #6C1721",
"L  c #641B24",
"P  c #6E1822",
"I  c #6C1A24",
"U  c #6B1F2A",
"Y  c #631E29",
"T  c #711A23",
"R  c #711723",
"E  c #452326",
"W  c #55292A",
"Q  c #5C2B30",
"!  c #5A3638",
"~  c #5C3A2F",
"^  c #65212A",
"/  c #6C222C",
"(  c #682627",
")  c #73222C",
"_  c #772C2C",
"`  c #6A2B34",
"'  c #742B34",
"]  c #7D2935",
"[  c #762834",
"{  c #673639",
"}  c #74343B",
"|  c #78363A",
" . c #6C322F",
".. c #48201E",
"X. c #1E4214",
"o. c #1D4319",
"O. c #1F5312",
"+. c #234316",
"@. c #23441B",
"#. c #254C1B",
"$. c #284E1A",
"%. c #2A4619",
"&. c #2A531C",
"*. c #2E5B1D",
"=. c #275419",
"-. c #325B1F",
";. c #32631E",
":. c #254A24",
">. c #2B4D2A",
",. c #2A4725",
"<. c #2D5B21",
"1. c #2B5528",
"2. c #325B26",
"3. c #2E5832",
"4. c #325B34",
"5. c #345834",
"6. c #37492E",
"7. c #346222",
"8. c #376926",
"9. c #39673B",
"0. c #3C723E",
"q. c #3E7437",
"w. c #2E602F",
"e. c #1E4520",
"r. c #474C3A",
"t. c #565A34",
"y. c #484F2B",
"u. c #496B39",
"i. c #773A43",
"p. c #3C6C42",
"a. c #3F7644",
"s. c #564E42",
"d. c #7D434A",
"f. c #755658",
"g. c #664A4C",
"h. c #486643",
"j. c #417447",
"k. c #447A4A",
"l. c #5B6953",
"z. c #5A7455",
"x. c #58724B",
"c. c #646957",
"v. c #62755A",
"b. c #716D49",
"n. c #697963",
"m. c #786065",
"M. c #832D3A",
"N. c #842A39",
"B. c #86353A",
"V. c #81302F",
"C. c #954E3C",
"Z. c #873843",
"A. c #9E3846",
"S. c #9E3A49",
"D. c #953544",
"F. c #A53C4C",
"G. c #82444C",
"H. c #84494F",
"J. c #884C54",
"K. c #88555A",
"L. c #954F53",
"P. c #867853",
"I. c #84754B",
"U. c #B0785D",
"Y. c #8D5B62",
"T. c #955B63",
"R. c #99666C",
"E. c #95666C",
"W. c #9B6C72",
"Q. c #977779",
"!. c #8C6E72",
"~. c #A4767D",
"^. c #AF7769",
"/. c #C27F67",
"(. c #418037",
"). c #46824C",
"_. c #49854A",
"`. c #4A8454",
"'. c #4B8B54",
"]. c #4C8B59",
"[. c #54885A",
"{. c #4E9351",
"}. c #52945C",
"|. c #59995B",
" X c #50934D",
".X c #559962",
"XX c #599965",
"oX c #568F61",
"OX c #718F6C",
"+X c #5DA26B",
"@X c #5CA66B",
"#X c #5EAE72",
"$X c #62A76E",
"%X c #64AB72",
"&X c #69AB77",
"*X c #75AA7B",
"=X c #6ABB7C",
"-X c #67B577",
";X c #71B87D",
":X c #65875A",
">X c #6AC37F",
",X c #898D6F",
"<X c #BD9B70",
"1X c #878159",
"2X c #D89868",
"3X c #C99971",
"4X c #CDA278",
"5X c #A97C83",
"6X c #6ABE80",
"7X c #72BC83",
"8X c #76AD80",
"9X c #6CC282",
"0X c #75C989",
"qX c #79D28C",
"wX c #7CD794",
"eX c #7BC992",
"rX c #9E8182",
"tX c #909E8C",
"yX c #B4888C",
"uX c #B08E92",
"iX c #97AC90",
"pX c #B0AD8F",
"aX c #ADBEA4",
"sX c #BD9DA0",
"dX c #D9AC86",
"fX c #D6B68A",
"gX c #CCB28E",
"hX c #C2A6A9",
"jX c #D1B0B5",
"kX c #E1AB80",
"lX c #84D999",
"zX c #81C897",
"xX c #87E19D",
"cX c #89DCA2",
"vX c #8BE8A4",
"bX c #92EBAD",
"nX c #99F6B7",
"mX c #94EDB0",
"MX c #A2F9BF",
"NX c #BBC1B7",
"BX c #E2CDA8",
"VX c #A0EDC2",
"CX c #D3D4C8",
"ZX c #EACACF",
"AX c #F5E9EB",
"SX c #DAE5D7",
/* pixels */
"                                                                                                                                                      ",
"                                                                                      H.| rX                                                          ",
"                                                                                      ' Z E.                                                          ",
"                                                      E.E.R.R.R.R.R.R.R.R.R.E.E.      } M d.E.~.                                                      ",
"                                                      Z V A A A V V A A A V C Z       { b J C )                                                       ",
"                                                    G.J Z Z Z Z Z Z Z Z Z Z Z ^ W.  K.` k G Z }                                                       ",
"                                          G.D A V C x k c z k k z c c c c z k k C V x v c b N `                                                       ",
"                                          d.M K P K M b b b v v z k b N N v z b Z P M b c b b Q                                                       ",
"                                    d./ Z M k v v v M P P Z G m v c m K K m k v v l l z c c c b G L U                                                 ",
"                                    d.T A N z k k v M I K M G m b k m P P M v v v b v k z c c v Z A I                                                 ",
"                                    G.) A N z N Z J J J G N v N M S M N N M Z A A A M b z c c v Z P T                                                 ",
"                                    G.) A m z m P R J H H b z N Z R Z k k M P P P T Z b z k c v Z S T                                                 ",
"                                E.T.` M N v c N S P Z N b v z N Z R Z k v N m m m m M M Z m z b Z S I                                                 ",
"                                A V x c z k z m K P M k z c z N Z R M v c c z z z z m K T Z z v Z P T                                                 ",
"                                I R m v k k l m S P M c c c z N Z R M v c c c c c z m K P M z v M M ^ ~.                                              ",
"                                I P M v z z z m P P M k c z z N K R Z k z c c c v z m K P M k z c c b x B K.                                          ",
"                                I P M k k b b m Z J m k v b b M Z J M k z c c c v z m K P M k z c z N | |                                             ",
"                                I P M z b J P Z b k v c v J P Z N k k k c c c c c z m K P M k z v z n                                                 ",
"                                I P M k b J R Z l z c c v Z P Z b z c c c c c c c z N J K M k c c z n                                                 ",
"                                T P M v c b N v v z z c c b N b v z c c c c c c c z k l N v c c v z N } '                                             ",
"                                Z C x k z z z c c c z z c z z c c c c c c c c c c c c z z z k k c c b x B K.                                          ",
"                                    | L M b c c k z c k z l l l k c c v c c c k k c c z k k c b M Z ^                                                 ",
"                                    i.P x N c z k z z c c z k c c z z c c z c c z k z c k c c v x C Z                                                 ",
"                                      ~.J.` x m v v v c z N M M M M N v k k z v m M m b b N m G d.W.                                                  ",
"                                          J.C Z k j j z k Z P P R P M j j z z k Z P M k j x C [       ' B                                             ",
"                                          H.C / { ! W N m _ B.V.T K (  . .G N M _ V.| { { i.i.J.      Y.|                                             ",
"                                          G.D K.      K T U.4XU.V.A C.2X2XC.A _ /.3XdX                                                                ",
"                                          H.x Y.      ^ ) U.4XU. .M C.2X2XC.Z _ ^.<XgX                                                                ",
"                                                          s.g s u u s y.6.s u u s u c.                                                                ",
"                                                          6.9 ; < < q e e 3 > > < X l.                                                                ",
"                                                l.l.z.v.l.,.2 >.oX&Xk.X.+.k.&XXX,.> ,.l.v.z.l.n.                                                      ",
"                                                u X < 3 6 < X 4.zXVX-Xe X.$XMXcX3.2 2 3 3 < X a                                                       ",
"                                          aXiXtX[.k.9.w t 5.9.j.oXXX].0.0.'.XXXXj.9.3.t r 4.`.[.*XiXaX                                                ",
"                                          :XO. XvXmX.X2 w }.0X.Xf X 4.=X=X9.. q .X0X}.t 8 [.mXvX X=.u.CX                                              ",
"                                      CXiXx.#._.wXxX'.< q j..X`.3.:.9..X.X0.:.3.`..Xj.r < k.vXwX_.&.u.aXNX                                            ",
"                                    x.u.&.e 2 3.#X=Xa.> 7 9 ; 1..X=X`.o.o.).-X+X:.8 8 2 8 9.=X#X4.2 w 2.*.OX                                          ",
"                                    x.8.&.@.r 4.+X%Xj.t r 9 2 >.+X9X'.e e ).>X#X>.7 9 r t p.%X+X9.r @.<.=.OX                                          ",
"                                    h.+.<.-XcX$X:.o.].lXeX4.. 4.0XmX+Xq q .XbXwX3.. 4.7XlXoXt :.+XlX;X4.6 :X                                          ",
"                                    h.t 3.0XnX&Xr 2 [.nXvX9.. 4.eXnX$X9 q XXnXlX5.. p.lXmXXX> r -XnXwX4.: v.                                          ",
"                                    h.i 1.#XqX.Xr < j.0X=X3.; >.%XqX].9 q `.qX-X>.. 4.-X0X`.> r }.qX%X1.3 n.                                          ",
"                                    x.r :.|.9X].w < p.6X-X1.. >.XX>X).7 < k.6X#X:.. 3.@X6Xk.< w `.6X+X:.: n.                                          ",
"                                tXtXOX].'.{.{.0.w > >.k.j.1.+.1.a.).).`.`.).).j.1.i 1.a.k.3.> 9 0.{.{.'.'.OX,XtX                                      ",
"                                4 5 -XnXlX_.*.&.9 > < 2 < &.7.*.5 y ).bXmX{.6 X.*.8.$.< ; < 7 1 $.;.(.lXnX%Xe.f n.                                    ",
"                              OX+.+.|.qX-Xq.&.+.9 > 9 1 1 &.7.<.X.e k.lXlX_.5 X.*.;.$.q > < 7 9 +.&.8.-XqX|.#.%.v.                                    ",
"                          ,.3 p e e &.8.<.e < < < < < , 1 &.7.*.X.5 9.-X-X0.5 X.*.8.&.q > 1 < < < < w <.8.*.+.e e 3 6.                                ",
"                        pXu.%.%.e e &.7.&.w 2 < < < < 1 4 &.2.<.#.#.0.$X$Xa.#.#.<.7.$.w < 1 < < 8 < q *.7.&.X.e +.%.t.                                ",
"                    n.p l.pXgXP.1 < 4 4 1 1 < < > 1 +.-.*.i 2 4.=XxX+X:.:.XXxX0X3.3 e *.<.+.1 , 1 < < q 4 5 3 %.b.fXpXx.,.5.                          ",
"                    z.: t.gXBX1X1 < , , 1 1 , < > < +.7.2.i . 4.eXnX%XX.X.@XnXlX3.2 e 2.7.#.< > 8 8 < < < w 3 %.1XBXfXt.3 @.                          ",
"                    z.3 t.<XdXP.9 < q e w 1 < w #.&.#.+.+.w 2 3.%XqX}.o.o.'.0X-X>.8 q @.#.#.=.$.r < 8 w e r < a b.dX3Xt.e ,.                          ",
"                    l.; y.<XdXP.1 < w e e < ; e 7.8.&.e e < X >.XX9X'.e e ).>X@X:.; < e X.$.7.7.e ; < e X.w ; u b.kX3Xy.: i                           ",
"                      OX,XP.b.t.u u g g 6.h.k.9.$.+.i 4 t j.[.`.).k.k.a.a.a.a.k.`.[.p.@.3 i +.#.9.k.9.p 3 4 3 a y.I.P.OXOX                            ",
"                          ,.: u n c ! ! l.*XlXXXr . > > p 7XnX0Xw.3 0.=X=X0.3 :.qXMX&X:.. 7 o q XXlX;X:.; < e X.e 3 ,.                                ",
"                          z.h.r.n c W W s.OX*X[.4.>.p > r %XvX-X1.3 4.].].4.4 :.=XvX$X,.. p >.4.`.$X].:.w e 4 p 6.h.v.                                ",
"                                n c c c ..! s.l.%X-Xa.2 w ].9X.X:.; 8 8 8 8 > t .X9X].t > 9.=X%X5.; q <.7.$.: f n.                                    ",
"                                = = n c n Q ! c.*X7Xx.u a [.*X[.,.o , , , , , a [.*Xz.g u u.#XXX9.t @.<.;.$.< f c.                                    ",
"                          f a p a a d c n n n f.NXSXyXZ.B.} { W = - - - - - % = Q { } Z.Z.~ r :.+XlX7X2.+.X.e i p a r.                                ",
"                          0 X < 3 4 - & & & & f.    yXS.A.] ) G z # & & * & $ j Y U ] A.S. .o r &XnXzX3.3 3 5 4 < X f                                 ",
"                                          Q.E.Q.rXrXT.A.D.L z H [ M.Y & & Y M.[ M z L D.S.| W W r.r.l.iX                                              ",
"                                              yXK.K.L.F.S.H + b D.F.) # @ ) F.D.b @ H D.F.B.) U k + =                                                 ",
"                                          5XK.T.L.L.Z./ ^ n * b ) B.H.!.!.J.M.] b # n Y ) [ M.M.U m W                                                 ",
"                                          K.J N.S.S./ # # # @ b G ' W.    i.) U j * * @ $ Y S.S.N.) '                                                 ",
"                                          K.I N.S.A.) * & b H H H G E.    i.G G H G b & & Y A.A.N./ '                                                 ",
"                                          K.Z N.F.A./ # & ] S.M.v - f.    F # j M.F.] z # ^ S.A.] U '                                                 ",
"                                          Y./ Z.D.D.^ # & ] S.Z.H = m.      h F B.S.] z $ Y D.D.| } i.                                                ",
"                                                F & c % & U I H.                G.] Y z # & j W                                                       ",
"                                                = + & # & Y J G.                d./ H c * & @ E                                                       ",
"                                                !.Q.yXsXsXyX~.                  uX~.yXhXhXuXQ.rX                                                      ",
"                                                                                  hXZXAXAXZXhX                                                        ",
"                                                T.T.W.~.~.W.Y.                  ~.E.W.5X5X~.T.W.                                                      ",
"                                                U I U J J I x '                 i.L J L J I I i.                                                      ",
"                                              Q.^ Y i.L.L.J.d.                  E.H.J.T.T.Z.Y ` f.                                                    ",
"                                          s.O @ @ c {                             sXjXZXZX~.# @ @ + -                                                 ",
"                                          g.= E = E g.                              jX    Q.= = F F E                                                 ",
"                                                                                                                                                      ",
"                                                                                                                                                      "
};
