/* XPM */
static char *au3xn_sc8hn[] = {
/* columns rows colors chars-per-pixel */
"75 75 219 2 ",
"   c None",
".  c #030306",
"X  c #05060A",
"o  c #06090E",
"O  c #0A0A0D",
"+  c #08070B",
"@  c #0C0D12",
"#  c #0A0E19",
"$  c #060B15",
"%  c #140C12",
"&  c #0E1115",
"*  c #0D121B",
"=  c #0A1813",
"-  c #111216",
";  c #13141A",
":  c #1C1B1C",
">  c #1A1717",
",  c #280916",
"<  c #26161C",
"1  c #152A1B",
"2  c #24201B",
"3  c #2C251E",
"4  c #20341C",
"5  c #171721",
"6  c #151C24",
"7  c #191923",
"8  c #1D1D29",
"9  c #3A1423",
"0  c #2D1824",
"q  c #1D2326",
"w  c #1E232C",
"e  c #1A2A26",
"r  c #173026",
"t  c #1C2739",
"y  c #232325",
"u  c #2E2922",
"i  c #23232C",
"p  c #2B2A2C",
"a  c #262726",
"s  c #332926",
"d  c #243227",
"f  c #393429",
"g  c #242332",
"h  c #2D2E31",
"j  c #272A3A",
"k  c #3C2A32",
"l  c #393A3A",
"z  c #2D3C38",
"x  c #46192B",
"c  c #551F36",
"v  c #43392F",
"b  c #4C2A34",
"n  c #502939",
"m  c #68233D",
"M  c #4C452B",
"N  c #4A5A3A",
"B  c #594B36",
"V  c #64553F",
"C  c #4E633A",
"Z  c #74763A",
"A  c #141F4B",
"S  c #15214C",
"D  c #35334B",
"F  c #363649",
"G  c #2B3955",
"H  c #6D2340",
"J  c #742646",
"K  c #7B2A49",
"L  c #6F3A4B",
"P  c #3C4146",
"I  c #3F425C",
"U  c #2E537C",
"Y  c #305278",
"T  c #424344",
"R  c #4A4B4D",
"E  c #4C4E52",
"W  c #484D55",
"Q  c #4E5154",
"!  c #515152",
"~  c #5B5C5D",
"^  c #565659",
"/  c #594951",
"(  c #685744",
")  c #765846",
"_  c #79674B",
"`  c #776352",
"'  c #6B6A51",
"]  c #5B5C61",
"[  c #495568",
"{  c #605F62",
"}  c #5D6365",
"|  c #58697F",
" . c #646565",
".. c #6E6065",
"X. c #676768",
"o. c #6C6C6C",
"O. c #6E7174",
"+. c #7B7C7C",
"@. c #747577",
"#. c #706A71",
"$. c #8B7433",
"%. c #923C59",
"&. c #843B54",
"*. c #94425D",
"=. c #827E47",
"-. c #88765A",
";. c #967F5E",
":. c #AE645E",
">. c #974B62",
",. c #9F4C66",
"<. c #94586C",
"1. c #AE536D",
"2. c #A45763",
"3. c #A04965",
"4. c #92717A",
"5. c #AD7C71",
"6. c #778656",
"7. c #76864F",
"8. c #9E8D3E",
"9. c #888B57",
"0. c #958757",
"q. c #88965A",
"w. c #969656",
"e. c #908B46",
"r. c #A39A55",
"t. c #AC8E50",
"y. c #8D8C73",
"u. c #A38B65",
"i. c #AB916A",
"p. c #B5986D",
"a. c #B89C72",
"s. c #B6A07D",
"d. c #D8B57F",
"f. c #30448D",
"g. c #305984",
"h. c #4F5C8F",
"j. c #546B87",
"k. c #5F7085",
"l. c #627184",
"z. c #4351A6",
"x. c #626BB4",
"c. c #C06F81",
"v. c #7D8082",
"b. c #7A8992",
"n. c #828283",
"m. c #86888B",
"M. c #8D8E8E",
"N. c #878688",
"B. c #989188",
"V. c #898E93",
"C. c #8A9193",
"Z. c #929392",
"A. c #9C9C9C",
"S. c #96959A",
"D. c #9E8485",
"F. c #A49A99",
"G. c #9CA893",
"H. c #A4A49E",
"J. c #8593A3",
"K. c #9D9FA4",
"L. c #97A0A6",
"P. c #8EA5BB",
"I. c #90A8BE",
"U. c #A2A2A2",
"Y. c #ACADAE",
"T. c #A6A4A5",
"R. c #ABAEB2",
"E. c #BBA8B3",
"W. c #B4B4B4",
"Q. c #BDBDBD",
"!. c #B7B8B9",
"~. c #C8918C",
"^. c #D8B885",
"/. c #C4A89D",
"(. c #C9B79D",
"). c #D6BD94",
"_. c #C7ABA5",
"`. c #D5B4AB",
"'. c #D9B9B9",
"]. c #BBC0BE",
"[. c #DDC398",
"{. c #E8CA97",
"}. c #F0CB90",
"|. c #EED19F",
" X c #EDCB93",
".X c #D6CCB8",
"XX c #EACDA3",
"oX c #EDD1A1",
"OX c #F0D3A3",
"+X c #E7C8B9",
"@X c #999FCC",
"#X c #95AAC0",
"$X c #AEB7C9",
"%X c #C2C2C3",
"&X c #CBCDCC",
"*X c #C6CACA",
"=X c #CFCFD0",
"-X c #C5C9DD",
";X c #D1CFD1",
":X c #CFD0D2",
">X c #D3D3D4",
",X c #DBDBDC",
"<X c #D8D7D8",
"1X c #D1D3CD",
"2X c #E3D7C1",
"3X c #E6DAC6",
"4X c #E5D9D7",
"5X c #D4DCE0",
"6X c #DCE4E8",
"7X c #E2E3E3",
"8X c #E7E9EA",
"9X c #EBECEC",
"0X c #E5E6EC",
"qX c #ECEEF1",
"wX c #EEF1F2",
"eX c #F2F4F4",
"rX c #FCFDFD",
"tX c #F5F7F8",
"yX c #F0EFEF",
/* pixels */
"                                                                                                                                                      ",
"                                                                                                                                                      ",
"                                                                                                                                                      ",
"                                                                                                                                                      ",
"                                                                                                                                                      ",
"                                                                                                                                                      ",
"                                                                                                                                                      ",
"                                                                                                                                                      ",
"                                                                                                                                                      ",
"                                                                                                                                                      ",
"                                                                                                                                                      ",
"                                                                                                                                                      ",
"                                                            eXA. .X.X.X.X. .M.eX      =Xo. .@.,X                                                      ",
"                                                      qX,X>X,XE . . . . . . l >X8XtX7XU.O . ; W.7X                                                    ",
"                                                      ,XT p p 7 ; ; ; ; ; 5 7 a U.tX! y ; ; ; y o.tX                                                  ",
"                                                    %XM.7 O O ; 7 7 7 7 7 7 ; O { A.a @ 7 7 5 @ l A.>X                                                ",
"                                                  eX~ X ; 7 7 7 7 7 7 7 7 7 7 7 @ + ; 7 7 7 7 7 ; X Z.rX                                              ",
"                                                Q.~ p ; 7 7 7 7 7 7 7 7 7 7 7 7 ; ; 7 7 7 7 7 7 5 - l o.,X                                            ",
"                                            9X,XM.X ; 7 7 7 7 8 7 7 7 7 7 7 7 7 7 7 7 7 7 8 7 7 7 7 @ ; W.,X                                          ",
"                                            ,XT : 5 7 7 7 7 j D 8 7 7 7 7 7 7 7 7 7 7 7 g D i 7 7 7 5 5 :  .eX                                        ",
"                                          Q.N.: @ 7 7 7 7 7 g j 8 7 g g g 7 7 8 g g g 7 i j 8 7 7 7 ; ; . ! wX                                        ",
"                                        wX] . - ; 7 7 7 7 7 7 7 7 i D D D 8 7 g D D D 8 7 7 7 7 7 7 ; - . R 9XqX                                      ",
"                                      Q.! 7 . - ; ; 5 7 7 7 7 7 7 7 i g i 7 7 8 g g i 7 7 7 7 7 5 ; ; ; @ y ! W.                                      ",
"                                      W.h p p ; - ; ; 5 ; 5 7 7 7 7 7 7 7 7 7 7 7 7 7 7 7 7 7 5 ; ; ; ; - @ . +.>X9X                                  ",
"                                      9X7X9X>X: X ; ; - + @ 7 7 7 7 7 7 7 7 7 7 7 7 7 7 7 7 7 ; ; ; ; - X . . O h &X                                  ",
"                                          Q.n.: O ; @ O O @ ; ; ; ; ; ; ; ; ; ; ; ; ; ; ; ; ; ; ; ; @ ; ] O.O.o.+.,X                                  ",
"                                      qX9X~ . - ; ; O X - ; ; ; ; ; ; ; ; ; ; ; ; ; ; ; ; ; ; ; ; ; O : &XrXrX                  eXwX                  ",
"                                      Q.R y @ - @ + @ & - ; ; - O O - ; ; O @ ; ; ; ; @ X @ ; ; ; ; - > l n.tX                tXqXeX                  ",
"                                      U.. @ ; ; @ . @ ; ; ; - @ + + - - - u u - - ; & > s : @ ; ; ; ; - . T %X7X              eX  eX                  ",
"                                      U.+ @ ; ; @ . @ ; ; ; @ . X O ; O @ p.u.O @ - . f d.V . & ; ; ; - - - > A.            qX*X  wX                  ",
"                                      U.+ @ - @ O O - - @ @ v ) > X O v _ ^.a.O + - V ;. Xi.( : @ - - - ; @ . Z.          8XL.    eX                  ",
"                                      U.+ @ - X O ; ; - O + _ ^.s O O -.}.|.a.> O > a. X{. X^.3 X - - - ; @ X Z.          ,X[   eXeX                  ",
"                                      U.+ . X X O ; @ : u._ < f 3 u.p.^.|.oX[.p.p.i.B f f u.[.u X ; @ O @ @ X Z.        9XJ.    eX                    ",
"                                      U.+ p l O + & X < ^.0.. . < ^.}. XoXoX|. X}.^.u . . -.{.u X ; @ X . . . Z.      tXR.Y P.eX                      ",
"                                      U.X A.,Xy . . . 2 ).u.. . 2 ).oXoXoXoX|.|.oX[.u . . -.{.u X ; O O ! T + Z.      7Xb.j.6X                        ",
"                                      =XN.>X7Xy . O X 2 ).B.S A G ).oXoXoXoXoXoXoX[.I A A y.[.u X ; O : <XW.O Z.    wX    5XeX                        ",
"                                            >Xa + - + < ).F.f.f.h.[.oXoXoXoXoXoXoXXXh.f.f.S.[.u X - O : >X,XK.>XtX<Xk.g.$XtX                          ",
"                                            =Xy . @ X < `.'.E._.(.XXoXoXoXoXoXoXoXXX(._.E.'.`.p X @ . > $Xx.x.-X,X| U P.8X                            ",
"                                            ,X .h O X : 4./.+XOXOXoXoXoXoXoXoXoXoXoXOXOX+X_.D.y X + p ^ $Xz.@X:X| U P.wX                              ",
"                                              eXA.. + O . ( oXoXoXoXoXoXoXoXoXoXoXoXoXoXOX` + @ O . M.rX0X$X>Xj.U P.wX                                ",
"                                                &XM.l . . u ` 5.~.+X2X2X3X3X3X2X2X.XG.y.' f X + + + T +.7X<X| U I.qX                                  ",
"                                                  rXo.> @ % , L ,.! W W !.9X%XQ W E 0.7.1 = O + + @ . - Y.l.U #X9X                                    ",
"                                                    8XQ.s 9 m *.>.8 * * m.%XZ.* * q 7.7.C d = O O O O ; X.J.#XqX                                      ",
"                                                    >XT.b x K 3.>.i 6 6 6 l w 6 6 q 9.r.8.M r = @ < 0 W V.$XwX                                        ",
"                                                    .., m J %.1.>.i 6 6 ; M q P +.+.9.q.9.=.Z 4 = / <.@.K.8X                                          ",
"                                                    .., H J %.1.>.i 6 6 * 6 6 F O.O.9.q.q.e.Z 4 z H._.<.<X                                            ",
"                                                    .., H J %.1.>.i 6 6 ; B y 6 6 q 9.r.r.e.$.N C.L.4X4XyX                                            ",
"                                                    .., c c &.1.>.i 6 6 * y 6 6 6 q ' 6.6.7.6.H..X1XeX                                                ",
"                                                    ..< ^ ] <.1.>.i 6 6 ; f q 6 6 y =.r.w.t./.b.U.eX                                                  ",
"                                                    ..0 (..X~.1.>.i 6 6 ; M y 6 6 i 6.w.w.:.c.{ } yX                                                  ",
"                                                    %XF.( ) 2.,.L N.C.S.m.m.M.S.C.M.' 6.q.( b M.].eX                                                  ",
"                                                      >Xk 9 K x y T.W.Q.W.Y.W.Q.W.Y.p f r.C r &X                                                      ",
"                                                      ;Xk 9 J < o 6 w i w w w i w 8 o 2 6.N r *X                                                      ",
"                                                      ;Xk 9 J < X $ * * * * * * * $ X 3 w.N r *X                                                      ",
"                                                      >Xk x J < X # * X o o o X * # X 3 w.N d *X                                                      ",
"                                                      8X!.4.9 % X $ * o ~ m. .o & # X > M y.!.8X                                                      ",
"                                                          W.v ; o j y X l ^ P o q h @ & z T.                                                          ",
"                                                          9X,X! 7 W.v.o A.9XY.@ O.Q.a P ,X8X                                                          ",
"                                                            eX~ ; +.^ o R.rX%X@ E v.: R wX                                                            ",
"                                                              } # G t & W.rX%X; t G * ! eX                                                            ",
"                                                              *XL.j [ W.7XrX7XW.} t S.%XtX                                                            ",
"                                                                ,XE n.rX        Z.T >X                                                                ",
"                                                                wX7X8X          8X7XwX                                                                ",
"                                                                                                                                                      ",
"                                                                                                                                                      ",
"                                                                                                                                                      ",
"                                                                                                                                                      ",
"                                                                                                                                                      ",
"                                                                                                                                                      ",
"                                                                                                                                                      ",
"                                                                                                                                                      ",
"                                                                                                                                                      ",
"                                                                                                                                                      ",
"                                                                                                                                                      ",
"                                                                                                                                                      "
};
