/* XPM */
static char *a2foe_k8kuk[] = {
/* columns rows colors chars-per-pixel */
"75 75 244 2 ",
"   c None",
".  c #36080E",
"X  c #360A11",
"o  c #3B0B13",
"O  c #3D1215",
"+  c #371715",
"@  c #37120F",
"#  c #162A0D",
"$  c #19340E",
"%  c #1B3312",
"&  c #1D3C13",
"*  c #1B3617",
"=  c #1A2A15",
"-  c #282913",
";  c #352616",
":  c #213C15",
">  c #223D1A",
",  c #273616",
"<  c #333318",
"1  c #24172A",
"2  c #3A1A26",
"3  c #331A30",
"4  c #1E2A27",
"5  c #252A35",
"6  c #2D3427",
"7  c #1C1F2D",
"8  c #420D15",
"9  c #4B0F16",
"0  c #450F19",
"q  c #451315",
"w  c #4B1017",
"e  c #4D121A",
"r  c #46181B",
"t  c #53131B",
"y  c #5B141D",
"u  c #54151B",
"i  c #560E19",
"p  c #63151E",
"a  c #67171F",
"s  c #780C17",
"d  c #48261C",
"f  c #51251F",
"g  c #4E1C23",
"h  c #541A23",
"j  c #5C1B24",
"k  c #581823",
"l  c #4B1C31",
"z  c #651721",
"x  c #6C1721",
"c  c #631B24",
"v  c #6B1B23",
"b  c #641E28",
"n  c #6A1E2A",
"m  c #741A24",
"M  c #492426",
"N  c #572728",
"B  c #493926",
"V  c #5C3939",
"C  c #513232",
"Z  c #64232B",
"A  c #6B222C",
"S  c #652927",
"D  c #72232D",
"F  c #7A2B2C",
"G  c #6D2632",
"H  c #6B2B35",
"J  c #742531",
"K  c #7A2634",
"L  c #7B2934",
"P  c #772B37",
"I  c #6B3538",
"U  c #783434",
"Y  c #6B322D",
"T  c #1E4116",
"R  c #23421C",
"E  c #26481A",
"W  c #33461D",
"Q  c #2C551C",
"!  c #305B1F",
"~  c #264724",
"^  c #324925",
"/  c #2C5428",
"(  c #345825",
")  c #355B34",
"_  c #325235",
"`  c #366428",
"'  c #3A712F",
"]  c #386838",
"[  c #3D7634",
"{  c #2F612E",
"}  c #49552B",
"|  c #47572B",
" . c #4A4435",
".. c #525F34",
"X. c #535E38",
"o. c #4D4D32",
"O. c #75463A",
"+. c #45783B",
"@. c #556638",
"#. c #67673C",
"$. c #793943",
"%. c #593C4C",
"&. c #3E7142",
"*. c #6A4445",
"=. c #79444A",
"-. c #7A595B",
";. c #674D56",
":. c #467C4D",
">. c #437748",
",. c #487C50",
"<. c #4C6E44",
"1. c #6B704D",
"2. c #7B5E62",
"3. c #7B6866",
"4. c #51504D",
"5. c #8B0F18",
"6. c #842C3A",
"7. c #8A2E3C",
"8. c #832936",
"9. c #8C303E",
"0. c #853737",
"q. c #92313F",
"w. c #9C2B33",
"e. c #B8373E",
"r. c #9B192B",
"t. c #CF253A",
"y. c #865635",
"u. c #8D5234",
"i. c #94613F",
"p. c #8D3844",
"a. c #933442",
"s. c #9A3644",
"d. c #9A3A48",
"f. c #AB3B44",
"g. c #84454C",
"h. c #864A53",
"j. c #994A56",
"k. c #89545C",
"l. c #944F4F",
"z. c #B74758",
"x. c #AB5153",
"c. c #9C6D46",
"v. c #906C53",
"b. c #A47453",
"n. c #AA7052",
"m. c #845D63",
"M. c #955B64",
"N. c #A95C67",
"B. c #BD5767",
"V. c #866566",
"C. c #97676D",
"Z. c #986B72",
"A. c #997579",
"S. c #8D6F76",
"D. c #AB6467",
"F. c #B2736F",
"G. c #CD4F56",
"H. c #CE7168",
"J. c #46833F",
"K. c #488648",
"L. c #4C8854",
"P. c #528C58",
"I. c #549559",
"U. c #519151",
"Y. c #648C5A",
"T. c #59A25C",
"R. c #5A9B65",
"E. c #548F60",
"W. c #5DA469",
"Q. c #63AA6C",
"!. c #68B576",
"~. c #65AE73",
"^. c #729564",
"/. c #71C57D",
"(. c #A7855C",
"). c #B4845C",
"_. c #8E9073",
"`. c #AA8D62",
"'. c #BB8A65",
"]. c #B1946D",
"[. c #9B9A6E",
"{. c #C38A6A",
"}. c #C6896E",
"|. c #D78B7A",
" X c #C89A77",
".X c #D8967A",
"XX c #C88A71",
"oX c #D9A97D",
"OX c #D6A57C",
"+X c #CAA57C",
"@X c #E5A16F",
"#X c #E7AB7A",
"$X c #967C83",
"%X c #AC7C83",
"&X c #BE7B84",
"*X c #6BBF81",
"=X c #76C587",
"-X c #79D18D",
";X c #7DD492",
":X c #B3898D",
">X c #B9979A",
",X c #AF8E8F",
"<X c #99B98F",
"1X c #BDA2A5",
"2X c #B3B7AE",
"3X c #9AA690",
"4X c #D39B84",
"5X c #C3969B",
"6X c #C68E93",
"7X c #C8A985",
"8X c #DBAC83",
"9X c #D9A788",
"0X c #DDB289",
"qX c #D7AD95",
"wX c #E3AA86",
"eX c #E2B48C",
"rX c #EABD93",
"tX c #E5B595",
"yX c #E8B096",
"uX c #C69CA2",
"iX c #DD9BA3",
"pX c #C7A6A9",
"aX c #D3A7AC",
"sX c #D8B6BA",
"dX c #D0B4B0",
"fX c #E9AC9F",
"gX c #82D998",
"hX c #9AC18C",
"jX c #A6CA9E",
"kX c #B4DAA9",
"lX c #9CE2A5",
"zX c #EEC096",
"xX c #EEC399",
"cX c #F0C39A",
"vX c #EACFB5",
"bX c #C7E8BB",
"nX c #DCC4B5",
"mX c #D3BDC1",
"MX c #EBBDC3",
"NX c #E7C8C9",
"BX c #F7D9DC",
"VX c #EFD1CF",
"CX c #D3F5C7",
"ZX c #E4D6CB",
/* pixels */
"                                                                                                                                                      ",
"                                                                                                                                                      ",
"                                                                                                                                                      ",
"                                                                                                                                                      ",
"                                                                                                                                                      ",
"                                                                                                                                                      ",
"                                                      v v A                                                                                           ",
"                                                    b c c b                                                                                           ",
"                                                v v z j j j       b v v x x x x x x x x x x x v Z                                                     ",
"                                                c c j u u h       j p p p p p x x x a p p p p z j                                                     ",
"                                                j k u e w u c v p u w 9 9 w t p x x y e w 9 9 e t c x x x v Z                                         ",
"                                              j h u u t t y y p y e 8 9 e t t y z p t w 9 e t t y y p p p z c                                         ",
"                                          v v y e w t z v y t w w q q t y x p y e w w 8 w y p z y t w e w e t c v v                                   ",
"                                        n v x y e w t x x p u w e e t t y p p y e w w w t y z z y w q w e t y p v v                                   ",
"                                        n v x y e 9 t z x p y u y p p p i 9 9 t u y y p p p y y t w w t p v x x x v                                   ",
"                                        n v v p t t c D K L U U U U 0.U Y S S Y U U U 0.0.F A Z j u t t p z z p p c                                   ",
"                                        n v x x a v 6.j.N.D.F.'.{.{.{.{.'.'.'.'.'.{.{.{.'.F.N.j.p.n p y t e e w w t y b A                             ",
"                                        A v m D F 0.l.D.F.XX.XoXoXoXoXoXoXoXoXoXoXoXoXoXOX XF.F.x.0.F A y e e w 9 t p v v                             ",
"                                    v v v x D l.n.{. X9XyXtXrXrXrXrXrXrXrXrXrXrXrXrXrXrXrXtXyXeX9X{.F.n.F p y e 9 t p x v                             ",
"                                    v v v p D x.{.8X8X0XeXeXeXeXeXrXxXxXxXxXxXxXxXzXrXeX0X0X0X0X8X8X.XF.0.a p t 9 t p x v                             ",
"                                        u 9 Z v. XeX X(.c.c.c.b.'.oXxXxXxXxXxXxXxXeX Xb.c.c.c.b.'.0XeXXX0.x p t w t p v v                             ",
"                                        r 8 N v. XeX{.b.i.y.y.y.b. XxXxXxXxXxXxXxX8X'.y.y.y.i.c.).8X0X{.0.x p t w t p v v                             ",
"                                    v c u 8 u O.n.'. X7X7XA.O.S l.].xXcXxXxXxXxXxX9Xb.Y Y v.,X7X X'.n.c.F x p t w e p v v                             ",
"                                    v c u w u O.i.n. XdXnX:Xg.Z g.'.xXxXxXxXxXcXxX9Xb.S H C.dXnXqX).c.i.F a p t w t j b n                             ",
"                                        j y A l.n. XqXvXVXuXx.w.x.|.xXcXzXxXxXcXcXwXH.w.s.F.NXVXnX+X'.c.S t y y y j                                   ",
"                                          c F x.H..XtXvXVXqXH.e.G..XcXcXxXxXxXxXcXwXH.f.z.|.VXVXvX9XXXn.S w t c b b                                   ",
"                                    v v       z.G.G.H.9XtX9X4X|.wXyXxXxXxXxXxXxXxXrXwX|..X9XtXtX.XG.G.e.m p j                                         ",
"                                    v v         t.t.G.}.OX8XeXrXxXxXxXxXzXzXzXzXzXzXzXrXrXeXoX.XH.t.t.r.5.v b                                         ",
"                                                          8X8X8XwX#X#X#X#X#X#X#X#X#XwXwX8X0X        H.B.                                              ",
"                                                            7XOXOX@X@X@X@X@X@X@X@X@XOXOX+X                                                            ",
"                                                                9X4X4X9XyXfXyX9X4X4X4X                                                                ",
"                                                                  >X5XaXMXVXMXaX5X5X                                                                  ",
"                                                          ;   e h.%X5XaXMXBXVXsXuX:XC.N                                                               ",
"                                                R T T T : - + w $.Z.5XaXNXBXVXsX5X%Xk.u O ; , & & T T R                                               ",
"                                            +.L.I.P.] ~ % - - ; C *.k.C.%X5X:XA.k.=.V ; ; - % : / L.I.P.+.                                            ",
"                                          ! ' W.;XgXR._ # # % , < r u Z $.k.g.H u r ; , , % # > >.-XgX/.+.` `                                         ",
"                                      ( E E / P.=X-XP./ # # $ % - + 9 H M.:XA.=.t O ; , % # # * &.=X-XQ.{ E E (                                       ",
"                                  ` ` ! E $ * >.W.~.:.~ # # # # - O e =.,XVXsXC.h o + = # # # * ] W.~.P.~ % & Q ` `                                   ",
"                                  / Q / ] >.,.,.:.:.:.,.:.) ~ % - + e I Z.pX:Xh.t 8 + - > / >.,.,.:.:.:.:.:.&.( Q Q                                   ",
"                                  R & / R.;XgXE./ R ,.=XgXW.] & - + 9 j $.k.h.H i q ; , / L.;X;XW./ R &.=XgX!.] R :                                   ",
"                                  > & / I.-X-XL.~ % >.!.;XW.] : < f v $.M.%XZ.h.A N d , / K.-X-XR.~ * ] !.;X!.] & &                                   ",
"                                  > & E K.~.~.>.T % ] R.!.U.{ : B Y a.N.uXVXsX&Xd.0.C , ~ &.~.~.L.* % { W.!.R./ & &                                   ",
"                                  >.>.:.L.I.U.:.] { ] :.L.] / : B U d.N.6XdXuXF.j.0.Y , R ) :.L.>.) ) ] U.I.U.K.>.>.]                                 ",
"                            > & ) Q.;X-XT.[ ' K.R.R.>./ * & & : B U d.j.j.M.M.j.d.0.V , & & * ~ ] R.W.I.[ ' K./.gX=X&.E R                             ",
"                            > & / I.!./.T.K.J.K.P.P.>.] / / E E B Y 6.p.M.F.D.j.9.P C , * = = 4 _ ,.P.L.K.K.U.!./.Q.] T : R                           ",
"                      > & & & & E ` ' K.I.!.~.:./ ~ <.R.~.I.[ ! W d u =.:XNXaXC.j w 2 1 7 7 5 5 5 > ~ ] Q.!.Q.K.[ ' E & & & & :                       ",
"                      ............( Q ` K.R.R.,.) _ >.R.Q.I.@.} B d u $.:XsXuXM.j 0 2 1 1 3 l l 2 - 4 _ P.R.P.' Q ( | ............                    ",
"                > > @.[.+X7X7X7X].#.^ T R R / :.R.~.I.K.+.|  .N S Z n P h.C.M.$.A j 2 1 1 t 5.5.x 3 5 5 6 ~ R T E | _.7X7X7X7X X1.^ R                 ",
"                : & X.].0XcXzXcX7X1.W $ $ $ R >.W.!.R.,.@.1.-.h.h.g.g.g.h.h.h.g.g.=.;.%.%.H 5.5.s k l C  ._ _ > R | ].rXrXzXrX7X1.W >                 ",
"                : : ..`.+X8X8X8X].#.W & E Q Q ` ' +.Y._.,X1XdXmXdXuX,X:XS.2.V.A.,X>XpXmX1XS.l 0 i s 5.l.>X2X3X| R | (.OX8X8XoX].#.W >                 ",
"                > : } v.`.`.`.`.(...W E ` ' [ ` ! ( 1._.>XpXsXNXsX1X,X$X3.;.2.S.,X>XpXNXsX$XC 2 N w.f.D.pXdX3XX.W } v.`.`.`.`.(.#.W >                 ",
"                      | | } } | | ( Q ` K.W.W.:.( ^  .*.g.j.N.N.j.$.C C M M M M C I h.N.N.h.H H M.aXsX>X2.*.O. . . .o.} } | } } }                     ",
"                      & & & & & R ` +.U.Q.=X=XP._ < M N D 8.q.s.K u . . . . . . . 8 n a.s.7.J $.Z.mXZX>XV q r C V C 6 , : & & &                       ",
"                            : & ( ^.hXkXkXkXjXY.B + r b D 8.a.d.L k o X X X X X X w A s.s.7.K G I *.*.V g q q r M M C C  .                            ",
"                            ) ( <.<XbXCXbXkX<X3.C 8 u n K 6.a.a.L k o X X X X X X 0 n a.a.7.K D j 8 o o O O O q q r C V V                             ",
"                        R <._.<XjXkXbXkX_.Y.<.o.N b D 6.a.7.6.L Z e X X X X X X . 8 j K 6.7.q.9.L b j f ; - ; + q r r d M                             ",
"                      > & <.<XCXCXCXbXjX1.^ - M S D 6.s.s.7.K n j e 8 8 o X o o 8 w h b D 8.s.s.q.K S N < , - ; r r r M N                             ",
"                                         .; + g Z J 6.s.s.6.b e j A L A u o 0 j K K b e h D a.s.q.K A N + + +       V.Z.Z.V.V.V.                      ",
"                                        X o 8 k n K 6.a.a.K e o h L s.6.j o e K s.9.A o 8 c 9.a.7.K D b 0 o O       pXuX>XA.V.V.                      ",
"                                        h k b K 6.7.K A j u o o e A 6.P Z     J 6.K j o o w j b J 6.9.L b j j                                         ",
"                                          G K 7.s.s.J e X o o 8 e j A A       G A b h 0 o o . 8 j a.d.a.K J G                                         ",
"                                        G A K 6.s.s.K e o e b D A j u g       r e u b D A j o 8 b a.d.a.K J G                                         ",
"                                          A J 6.a.a.D w o j 6.d.L k o X         X 0 A a.a.A 8 8 j 9.a.9.K J G                                         ",
"                                              G A b u o o u J 6.P N               g H 6.L b 8 o w j Z Z G                                             ",
"                                                O O O O 0 k Z J H                     P G N r O O O O +                                               ",
"                                                -.-.V.S.A.Z.Z.C.C.                    C.C.Z.A.A.S.2.-.-.                                              ",
"                                                1XpXsXVXBXNXdXpX1X                    1XpXsXBXBXNXpX1X1X                                              ",
"                                                2.V.%X6XiX6XA.m.2.                    V.C.%XiXiX:XC.m.2.                                              ",
"                                                o 0 L z.G.d.Z o +                     O g L z.z.a.h o +                                               ",
"                                              Z J K 6.7.a.g.h.k.2.                    m.k.h.a.q.7.L K G h                                             ",
"                                          . 0 6.z.G.a.h r -.>XNXVX                    VXsXA.g w J z.G.d.k X @                                         ",
"                                          @ r P z.B.p.h 2 -.>XVX                      VXdXA.M r H z.z.d.h +                                           ",
"                                                                                                                                                      ",
"                                                                                                                                                      ",
"                                                                                            b b Z                                                     "
};
