/* XPM */
static char *akrzk_nxpic[] = {
/* columns rows colors chars-per-pixel */
"75 75 173 2 ",
"   c None",
".  c #0E1D24",
"X  c #0E1F28",
"o  c #111E23",
"O  c #0F2027",
"+  c #0F2028",
"@  c #102027",
"#  c #122229",
"$  c #1A272D",
"%  c #1E282E",
"&  c #112B29",
"*  c #19352D",
"=  c #172533",
"-  c #1E2A30",
";  c #1A2739",
":  c #20292E",
">  c #283223",
",  c #222D33",
"<  c #253137",
"1  c #293236",
"2  c #263238",
"3  c #2A353A",
"4  c #2C383D",
"5  c #333A3D",
"6  c #373839",
"7  c #3D402D",
"8  c #304239",
"9  c #3C602C",
"0  c #5D553C",
"q  c #635A3E",
"w  c #49752E",
"e  c #577B2F",
"r  c #57782F",
"t  c #597D30",
"y  c #2E3B45",
"u  c #333D42",
"i  c #3A3E42",
"p  c #35395B",
"a  c #16287B",
"s  c #403D45",
"d  c #773B52",
"f  c #3B4245",
"g  c #3A4449",
"h  c #424345",
"j  c #414846",
"k  c #424649",
"l  c #454B4B",
"z  c #4B4D4D",
"x  c #4D4848",
"c  c #50464E",
"v  c #4F504C",
"b  c #5B5A4A",
"n  c #505247",
"m  c #454F53",
"M  c #534950",
"N  c #445054",
"B  c #4F5453",
"V  c #455259",
"C  c #48565C",
"Z  c #4B585F",
"A  c #59575B",
"S  c #555A58",
"D  c #635B4A",
"F  c #754055",
"G  c #7F4258",
"H  c #7E4057",
"J  c #477E49",
"K  c #57645B",
"L  c #64655D",
"P  c #656255",
"I  c #585D61",
"U  c #6A716C",
"Y  c #726E70",
"T  c #853F58",
"R  c #8A435C",
"E  c #854059",
"W  c #824D61",
"Q  c #924662",
"!  c #8B5064",
"~  c #965269",
"^  c #926372",
"/  c #4A853D",
"(  c #5E8533",
")  c #618734",
"_  c #628935",
"`  c #639A3E",
"'  c #4D834E",
"]  c #539A43",
"[  c #5CA34E",
"{  c #6DAA44",
"}  c #69A643",
"|  c #78B057",
" . c #6CB66D",
".. c #BF921D",
"X. c #BEA035",
"o. c #C28E17",
"O. c #C68717",
"+. c #C69117",
"@. c #D69C19",
"#. c #D89F1A",
"$. c #D79419",
"%. c #E19310",
"&. c #D99F2B",
"*. c #C99429",
"=. c #C4AC32",
"-. c #C5A63B",
";. c #D4AB31",
":. c #D5BB36",
">. c #D4B639",
",. c #DABE38",
"<. c #E7A92C",
"1. c #908044",
"2. c #A89759",
"3. c #84B458",
"4. c #BDA75B",
"5. c #9E927A",
"6. c #2C3E9A",
"7. c #2B3B94",
"8. c #2F4090",
"9. c #3648A3",
"0. c #4756A3",
"q. c #B5A78C",
"w. c #B7A993",
"e. c #A8A9AA",
"r. c #BAB7A2",
"t. c #AEAFB0",
"y. c #AFB0B1",
"u. c #B0B1B1",
"i. c #BAB9B5",
"p. c #B8B9B8",
"a. c #B7B9B8",
"s. c #CDBA9A",
"d. c #CDB798",
"f. c #D1B79B",
"g. c #D9BD9E",
"h. c #D5AA9C",
"j. c #CFBEA1",
"k. c #D9AEB0",
"l. c #CECBBB",
"z. c #D1CEBD",
"x. c #D7C5A5",
"c. c #E6CBA7",
"v. c #E6D1AF",
"b. c #EACABD",
"n. c #F8C5B1",
"m. c #FDD4BE",
"M. c #E6D9B6",
"N. c #848DD4",
"B. c #8491D7",
"V. c #F0BBC2",
"C. c #C2C4C6",
"Z. c #CECCC2",
"A. c #D0CEC2",
"S. c #D7D8D2",
"D. c #F0CEC9",
"F. c #E5DBC7",
"G. c #F8D4C9",
"H. c #E4DED4",
"J. c #E3DFD8",
"K. c #E9E3CE",
"L. c #E6E1CC",
"P. c #E4E1D9",
"I. c #EBE5DB",
"U. c #EDE8D2",
"Y. c #F0E8DE",
"T. c #F5E8D6",
"R. c #EDF1D1",
"E. c #FEF5DE",
"W. c #FCF1D5",
"Q. c #EEEAE0",
"!. c #FDF6E2",
"~. c #FFF9E2",
"^. c #F3F2F1",
/* pixels */
"                                                                                                                                                      ",
"                                                                                                                                                      ",
"                                                                                                                                                      ",
"                                                                                                                                                      ",
"                                                                                                                                                      ",
"                                                                                                                                                      ",
"                                                                                                                                                      ",
"                                                                                                                                                      ",
"                                                                                                                                                      ",
"                                                                                                                                                      ",
"                                                                                                                                                      ",
"                                                                                                                                                      ",
"                                                                                                                                                      ",
"                                                                                                                                                      ",
"                                                                                                                                                      ",
"                                                                                                                                                      ",
"                                                                                                                                                      ",
"                                                                                                                                                      ",
"                                                                      , , , , < 2                                                                     ",
"                                                                  , , < < < < 2 < ,                                                                   ",
"                                                                , < < 2 2 2 2 2 2 < , , ,                                                             ",
"                                                    g       , , < 2 2 2 2 < < 2 2 2 < < , ,                                                           ",
"                                                      2 , 2 , < 2 2 2 2 < , , < 2 2 2 2 2 2 ,                                                         ",
"                                                        3 V u 2 < , < < - # # < 2 2 2 4 u N 3 ,                                                       ",
"                                                        2 u V 3 , , 3 , # # 3 4 2 2 u Z C < - < ,                                                     ",
"                                                        2 2 2 , # < N $ O - C C < 3 V u 4 , # - , ,                                                   ",
"                                                      2 2 < - # - < , @ # , 3 3 5 $ 3 2 < < # # , < 2                                                 ",
"                                                    < < 2 , # @ , , # < # , , v q.3 , , , < , # -                                                     ",
"                                                  < , , < - # @ - , j q.5 , B x.F.N - # - < < # #                                                     ",
"                                                      , , # O X ; y j.F.f m i.H.E.l.f # # , , # #                                                     ",
"                                                      , % # @ 2 a 8.H.K.U i.0.0.I.L.f # # , , # # #                                                   ",
"                                                    , , o @ f w.7.6.J.E.U.J.6.6.P.L.f # # , , # O # #                                                 ",
"                                                    , % . 3 s.H.9.9.P.~.~.P.9.9.P.K.B $ 3 < - @ #                                                     ",
"                                                  < , # . 4 c.T.N.B.Q.~.~.Q.B.N.I.E.z.S 5.5 # #                                                       ",
"                                                        O 3 d.m.D.Y.!.~.~.!.Y.D.G.E.W.w.f - # #                                                       ",
"                                                        # # f d.F.E.~.~.~.~.~.E.W.v.s.j # # #                                                         ",
"                                                          O # 1 l l.U.!.~.~.R.R.M.b 8 # O # # # # #                                                   ",
"                                                            # X # s ^ S.^.S. .| <.o./ * O . . . #                                                     ",
"                                                            #     d F Y A.U ' _ :.=.t 9 * . . @                                                       ",
"                                                                T H c b 4.L r.;.} ` o.o./ & . . O                                                     ",
"                                                                E F k z D l P -.) ( =.=.r > o . . .                                                   ",
"                                                              Q R c k v 1.x f q $.#.} ` o.O.                                                          ",
"                                                              Q G h k l b l f n >.,.) t =.;.                                                          ",
"                                                            Q R G A S L 2.L I K [ { #.@.` ` +.                                                        ",
"                                                          Q Q T W p.C.p.Z.p.C.a.J ( ,.,.( e =.>.                                                      ",
"                                                          Q R d 6 i f i i i f f 7 ..{ { @.+.` ]                                                       ",
"                                                          R T F i : % % % : 4 5 6 X._ _ :.=.e w                                                       ",
"                                                          ~ ! M f , 5 , % , i 5 1 0 O.&.3.| *.%.                                                      ",
"                                                          V.k.A i , f i : , i 5 < i D h.b.b.n.                                                        ",
"                                                            f.S f 1 k k , , i 5 < f f z f.g.c.                                                        ",
"                                                              3 i 1 f f , , , 3 , f i , l h                                                           ",
"                                                              % : % , , , ,   , : : : , , ,                                                           ",
"                                                                5 5 5 5 ,       , u i i i                                                             ",
"                                                                u.u.y.e.          t.u.y.e.                                                            ",
"                                                                C.C.C.            C.C.C.                                                              ",
"                                                              = p y y           = p y y                                                               ",
"                                                                                                                                                      ",
"                                                                                                                                                      ",
"                                                                                                                                                      ",
"                                                                                                                                                      ",
"                                                                                                                                                      ",
"                                                                                                                                                      ",
"                                                                                                                                                      ",
"                                                                                                                                                      ",
"                                                                                                                                                      ",
"                                                                                                                                                      ",
"                                                                                                                                                      ",
"                                                                                                                                                      ",
"                                                                                                                                                      ",
"                                                                                                                                                      ",
"                                                                                                                                                      ",
"                                                                                                                                                      ",
"                                                                                                                                                      ",
"                                                                                                                                                      ",
"                                                                                                                                                      "
};
