/* XPM */
static char *aiwls_c5316[] = {
/* columns rows colors chars-per-pixel */
"75 75 227 2 ",
"   c None",
".  c #350C12",
"X  c #3B0B12",
"o  c #3D0F1B",
"O  c #2C1814",
"+  c #381216",
"@  c #2D0E1A",
"#  c #162C0E",
"$  c #18310E",
"%  c #192E11",
"&  c #1E271E",
"*  c #1B3413",
"=  c #1D3C14",
"-  c #1C3718",
";  c #223B15",
":  c #213E1B",
">  c #273717",
",  c #36381C",
"<  c #2D2A19",
"1  c #191B2C",
"2  c #361824",
"3  c #22182B",
"4  c #1C2626",
"5  c #383C3A",
"6  c #2F302D",
"7  c #450F16",
"8  c #4B0F17",
"9  c #4A0F18",
"0  c #510F1A",
"q  c #471016",
"w  c #4B1017",
"e  c #44121A",
"r  c #4D1119",
"t  c #441B1A",
"y  c #49191A",
"u  c #53121A",
"i  c #5C141D",
"p  c #53181C",
"a  c #63151E",
"s  c #68171F",
"d  c #6D0E13",
"f  c #48221A",
"g  c #451B22",
"h  c #5B1621",
"j  c #5C1B24",
"k  c #561821",
"l  c #5F1A30",
"z  c #641620",
"x  c #6A1721",
"c  c #641A23",
"v  c #6C1B23",
"b  c #641E29",
"n  c #6B1E29",
"m  c #711C25",
"M  c #741626",
"N  c #4E2B2A",
"B  c #4A2627",
"V  c #522B2C",
"C  c #5B2B2B",
"Z  c #552529",
"A  c #57342A",
"S  c #582C32",
"D  c #5A3B3C",
"F  c #5A3436",
"G  c #463427",
"H  c #65212A",
"J  c #6B212C",
"K  c #632B2A",
"L  c #75272B",
"P  c #6D2530",
"I  c #692B33",
"U  c #742932",
"Y  c #782834",
"T  c #643236",
"R  c #653936",
"E  c #753838",
"W  c #70392B",
"Q  c #1E4115",
"!  c #214116",
"~  c #23411B",
"^  c #2B451B",
"/  c #2B4C1C",
"(  c #234B1D",
")  c #2C541D",
"_  c #2D591E",
"`  c #32581E",
"'  c #3A4B1D",
"]  c #254B23",
"[  c #294926",
"{  c #334A26",
"}  c #2A5524",
"|  c #2B522C",
" . c #2B5827",
".. c #325C22",
"X. c #355624",
"o. c #335C34",
"O. c #375835",
"+. c #2E5731",
"@. c #3B6426",
"#. c #39663C",
"$. c #3A713D",
"%. c #4B4B35",
"&. c #6F4B35",
"*. c #43652D",
"=. c #52673B",
"-. c #342946",
";. c #422A45",
":. c #583D4A",
">. c #703C44",
",. c #3F7545",
"<. c #3C6C41",
"1. c #5A4546",
"2. c #414C47",
"3. c #704C4F",
"4. c #457B4C",
"5. c #437648",
"6. c #4E734E",
"7. c #6E724F",
"8. c #767964",
"9. c #7D6364",
"0. c #8D0D11",
"q. c #852F3B",
"w. c #8B3535",
"e. c #BC373E",
"r. c #8A433F",
"t. c #8A5938",
"y. c #82532F",
"u. c #8A3A45",
"i. c #983846",
"p. c #88444A",
"a. c #84585A",
"s. c #955052",
"d. c #B74759",
"f. c #AA4F4B",
"g. c #8C6F51",
"h. c #A96958",
"j. c #AC7E57",
"k. c #BD5466",
"l. c #A85E61",
"z. c #886766",
"x. c #987878",
"c. c #92726D",
"v. c #AC7669",
"b. c #C9586B",
"n. c #CC6576",
"m. c #D47D6B",
"M. c #4C8856",
"N. c #528C5B",
"B. c #4C8952",
"V. c #5A9C64",
"C. c #569963",
"Z. c #70896D",
"A. c #5DA66B",
"S. c #63A56E",
"D. c #64AD72",
"F. c #6AB67C",
"G. c #8C8A5C",
"H. c #968577",
"J. c #8E8A73",
"K. c #B8876C",
"L. c #AC9A73",
"P. c #B19576",
"I. c #C99A78",
"U. c #D29E79",
"Y. c #CC8672",
"T. c #D3A279",
"R. c #D0A97F",
"E. c #CEA67F",
"W. c #D27988",
"Q. c #72BE83",
"!. c #77C78A",
"~. c #7CCD91",
"^. c #7FD091",
"/. c #998989",
"(. c #B79698",
"). c #B48E89",
"_. c #AAA79C",
"`. c #B4AC9E",
"'. c #BC9EA2",
"]. c #B7B4A9",
"[. c #9CB88F",
"{. c #CB9A89",
"}. c #CA9391",
"|. c #DAAB81",
" X c #D6A789",
".X c #C7A89A",
"XX c #DFAC93",
"oX c #DDB89B",
"OX c #D1AB86",
"+X c #E1B48A",
"@X c #E6BA8F",
"#X c #E1A798",
"$X c #E5BB92",
"%X c #E9BC93",
"&X c #E6BB99",
"*X c #E3A586",
"=X c #CA9BA2",
"-X c #C9A6AB",
";X c #D3A8AC",
":X c #C9B9B5",
">X c #D5B6BA",
",X c #CCAFAF",
"<X c #E1BCA4",
"1X c #E6AAB1",
"2X c #83D898",
"3X c #85E19D",
"4X c #94EDAC",
"5X c #8FF0A9",
"6X c #EDC39A",
"7X c #ECC197",
"8X c #D6C2B6",
"9X c #EED2B3",
"0X c #DABFC3",
"qX c #F1BFC6",
"wX c #B5E8C3",
"eX c #DCC4C7",
"rX c #D9DCD6",
"tX c #E8C7CB",
"yX c #F5C8CE",
"uX c #EFCDD3",
"iX c #F2CDD1",
"pX c #E4DAD9",
"aX c #F1D7DA",
"sX c #EAD5C5",
"dX c #EAE5D6",
"fX c #FBE4E6",
"gX c #F4F0EF",
/* pixels */
"                                                                                                                                                      ",
"                                                                                                                                                      ",
"                                                                                                                                                      ",
"                                                                                                                                                      ",
"                                                                                                                                                      ",
"                                                                                                                                                      ",
"                                                                                                                                                      ",
"                                                                                                                                                      ",
"                                                                H v v v x x x x x x x x v x v v                                                       ",
"                                                                c z s s s s s s s s s s z s z c                                                       ",
"                                                      v v v v c u r 8 8 8 8 8 8 r r r r 8 8 w u z v             b b                                   ",
"                                                      v x x x a u 9 9 r r u r r u u u u u r r u a c H           c c                                   ",
"                                                  b v v x a 0 r w q u z x x x x x x x x x x x a u r i v m m v z u r                                   ",
"                                                  v x x x i w 9 w r u s x x x x x x x x x x x a u r i s s s s i 0 r                                   ",
"                                                  x s i r w 9 r i s a u r r r r r r r r r r r u a z i u r 0 0 i s c                                   ",
"                                                  c z i p u u p a x a r q q q q w 8 9 w q q 7 u z c i u 8 9 9 u c n                                   ",
"                                                  r H u.s.p.E U c u r 9 q q q r i z i w q q 7 w r u i z a u w y                                       ",
"                                                  p I s.v.l.s.p.K w 9 9 q q q r z x i r q q q q w r i x s i w y                                       ",
"                                                  j.K.{.XX X XY.s.s i r 9 q q r a x a r q q q r i z i u u i z c                                       ",
"                                                  T.|.@X7X7X%X Xf.m s r q q q r a x a r q q 7 u a x i w r a x n                                       ",
"                                                  T.|.%X%XT.j.h.t.&.W p 9 7 q r s x a r q q q w u u r 7 r a x n                                       ",
"                                                  T.|.%X%XI.t.y.t.t.&.p 9 7 w r a x i r q q q q q q 7 9 u a x n                                       ",
"                                                  T.|.%X$XK.W W c.).v.Z w u i a i u u w q q q q q w u i s s x n                                       ",
"                                                  T.|.%X$XK.K I P.8X(.S w i x x u 9 q q q q w q q w i c x x x v                                       ",
"                                                  T.|.%X%XY.w.i.}.sX.XT w i x s u w q w w q 7 r i i j     v x v                                       ",
"                                                  T.|.%X%XY.e.d.#XdX,XT r i x v u w w w w w 7 u z v       v x v                                       ",
"                                                  T.|.$X7X*Xm.Y.&X9X.XU z r.h.h.L i i i i i i h b                                                     ",
"                                                  T.|.$X6X7X7X7X6X%XI.w.L h.$X Xr.m x x x x v v                                                       ",
"                                                    OX+X+X+X+X+X+X+XU.h.f.Y.|.|.h.s.w.L x n n                                                         ",
"                                                      E.T.T.T.T.T.T.T.U.U.T.T.T.T.U.h.L v                                                             ",
"                                                        OX X#XXX X{. XoX<X<X<XoX X{.v.E                                                               ",
"                                                            yXqX;X=X-XaXfXfXfXaX;X=X(.                                                                ",
"                                                          `.iXyX;X(.(.`.`.`.`._.H.J.J.                                                                ",
"                                                      ..*.J.pXaX>X(.H.%.^ ^ ^ / ..@.*.                                                                ",
"                                                      ) X.8.,X,X(.H.8.{ = ] +. .} ) X.                                                                ",
"                                                      Q ! %.a.a.=.*.X.* * <.A.C.| * ! ..@.                                                            ",
"                                                      > , %.c.c.7.` / $ * 5.F.D.| % = ) ..                                                            ",
"                                                  @.' < p a.tX8X8.! = # - N.3X~.o.% $ = !                                                             ",
"                                                  ` ' f k a.:X].7.= = [ +.N.!.F.#.[ : = =                                                             ",
"                                                  ! , Z J R =.*.^ * o.Q.~.N.| | N.V.4.] =                                                             ",
"                                                  = , C U A X.) = % o.!.2XM.- ~ C.F.B.] =                                                             ",
"                                                  = , E u.R ^ Q $ % | A.F.,.* ] F.3XA. .=                                                             ",
"                                                  = , E i.R > = = : +.C.A.,.] o.F.2XV. .=                                                             ",
"                                                  = , K U A > ( ,.C.M.| | M.Q.F.5.+.] Q =                                                             ",
"                                                  : , V I G > ] B.A.M.: - M.2X!.o.* $ = =                                                             ",
"                                                  4 4 -.-.5 X._  .+.} = = ] o.o. .) ! * %                                                             ",
"                                                  1 3 -.-.5 X.../ ^ ^ ^ ^ ; % * ) ` / - -                                                             ",
"                                              : 4 1 2 h M C 5 2.8.L.L.L.L.7.X./ ! = #.S.D.4.]                                                         ",
"                                            ; = & 4 g d 0.M ;.:.H.&X7X6X$XG.@._ = * 4.^.2XB.] ~                                                       ",
"                                            = ^ 7.H.z.T 0 i M m 3.9.c.OXR.g.) } 5.B.4.5.4.C.D.F.                                                      ",
"                                            = { G.oXP.1.3 r 0.0.l ;.3.P.I.7./  .C.D.4.: : S.3X4X                                                      ",
"                                                7.7.3.G @ o u u a m p..X8X[.S.C.5.#.<.5.4.4.4.5.O.[                                                   ",
"                                                  ; > O . @ 3 2 d 0.f.>XrXwX4X~.o.* o.A.A.#.* % = ~                                                   ",
"                                                    < + . O & 6 a.}.).x.x.J.Z.Z.{ * ] $.$.] # ] 4.V.                                                  ",
"                                                      . . O ; %._.gX:XR t V D %., ; = Q Q * # #.Q.5X4X                                                ",
"                                                      . . t A &.z./.c.F N V V N G , 6.Z.Z.O.- | B.V.N.O.                                              ",
"                                                      . X j i.u.b o g F D V t t F D /.pXdXZ.[ = ! ! Q Q ~                                             ",
"                                                      . X k q.Y k X e S T C Z B V S 9._.].8.{ = : ~ ~ ~                                               ",
"                                                      . X r J J r X e H P T D F f t N D 1.                                                            ",
"                                                      . X r J b r X e b P I T F Z B N V S V                                                           ",
"                                                      . X r J n r X q n P P P I T D V y t t t t                                                       ",
"                                                        X p J J c h h c b n J U E E C y e Z R R                                                       ",
"                                                            P U q.i.Y r 7 k J Y i.i.U q t z.).x.R t N D 1.                                            ",
"                                                            a.a.u.q.U r e u b J Y q.P e g z.(.x.F t N D 1.                                            ",
"                                                            gXeXz.e w b H u 7 X 7 7 e                                                                 ",
"                                                            gXpXx.V F 3.p.>.F F V V :.                                                                ",
"                                                            fXaX:X(.'.tXtXtXtX0X'.(.,XaXfX                                                            ",
"                                                            yXtX-X(.'.>XeXtXiXtX=X(.,XaXfX                                                            ",
"                                                      I Y i.n.b.u.Z Z S T s.n.k.E Z D                                                                 ",
"                                                      U Y i.b.k.Y X X 7 u u.b.k.I B B                                                                 ",
"                                                  . b i.d.n.1X=X3.X h i.d.W.1X1X;X-X-X                                                                ",
"                                                  . j i.b.W.qX>X9.+ j d.b.}.tXuXiXuXuX                                                                ",
"                                                                                                                                                      ",
"                                                                                                                                                      ",
"                                                                                                                                                      "
};
