/* XPM */
static char *_f2ed2911e3e4b5bbfa0b2f7b4d18c24i65zGrcKeDAi3W0j[] = {
/* columns rows colors chars-per-pixel */
"75 75 256 2 ",
"   c None",
".  c #020C02",
"X  c #100C0D",
"o  c #1A1819",
"O  c #210305",
"+  c #390304",
"@  c #3C0F10",
"#  c #2A1115",
"$  c #361013",
"%  c #311215",
"&  c #301919",
"*  c #12380C",
"=  c #26261F",
"-  c #0C1621",
";  c #191C24",
":  c #221C21",
">  c #281A21",
",  c #12212C",
"<  c #1C2029",
"1  c #1A2430",
"2  c #1D2832",
"3  c #2B2820",
"4  c #2E232E",
"5  c #3D2022",
"6  c #302B25",
"7  c #3F3025",
"8  c #35322D",
"9  c #3F332C",
"0  c #202834",
"q  c #212B37",
"w  c #383431",
"e  c #3D3935",
"r  c #373B3A",
"t  c #440A0B",
"y  c #410E0F",
"u  c #490D0D",
"i  c #441112",
"p  c #491112",
"a  c #4E1111",
"s  c #4C1112",
"d  c #4D1719",
"f  c #511313",
"g  c #571616",
"h  c #5F191A",
"j  c #6F0000",
"k  c #780A08",
"l  c #7E0D0D",
"z  c #6C1C1B",
"x  c #4E2123",
"c  c #50302A",
"v  c #593E28",
"b  c #4E2D36",
"n  c #413D37",
"m  c #4D3E37",
"M  c #4B323B",
"N  c #5D3432",
"B  c #7B2323",
"V  c #762929",
"C  c #683D28",
"Z  c #6A3238",
"A  c #71373E",
"S  c #175428",
"D  c #294623",
"F  c #3F5538",
"G  c #366C3D",
"H  c #217336",
"J  c #434426",
"K  c #43403C",
"L  c #46433F",
"P  c #5F453D",
"I  c #764127",
"U  c #7B4324",
"Y  c #6D4736",
"T  c #253542",
"R  c #303D4D",
"E  c #3A3E4A",
"W  c #473341",
"Q  c #503743",
"!  c #5B3541",
"~  c #3D4B5F",
"^  c #3F7B47",
"/  c #4E4A47",
"(  c #4F404E",
")  c #5E414B",
"_  c #53514F",
"`  c #474252",
"'  c #464F5D",
"]  c #5B5653",
"[  c #75444F",
"{  c #7D454C",
"}  c #665641",
"|  c #694552",
" . c #734E58",
".. c #62615D",
"X. c #41546A",
"o. c #525464",
"O. c #475B70",
"+. c #705563",
"@. c #7D5B67",
"#. c #79447C",
"$. c #4D6076",
"%. c #526277",
"&. c #6B6362",
"*. c #69686D",
"=. c #716866",
"-. c #76726F",
";. c #66737A",
":. c #6E787F",
">. c #78797C",
",. c #821617",
"<. c #812625",
"1. c #862727",
"2. c #8E2122",
"3. c #802B2C",
"4. c #8A2B2B",
"5. c #962120",
"6. c #9B2524",
"7. c #9D2827",
"8. c #962629",
"9. c #902A2B",
"0. c #952B2B",
"q. c #972D2D",
"w. c #9D2B2B",
"e. c #992C2C",
"r. c #9B2D2D",
"t. c #992F30",
"y. c #9C2F30",
"u. c #8E3031",
"i. c #823B3D",
"p. c #9F3131",
"a. c #9C3132",
"s. c #983B3B",
"d. c #A02D2C",
"f. c #A42F2D",
"g. c #A13131",
"h. c #A23232",
"j. c #A53334",
"k. c #A23434",
"l. c #AA3232",
"z. c #A43B3A",
"x. c #AC3B38",
"c. c #B33A3A",
"v. c #BB3E3D",
"b. c #9A4C4C",
"n. c #8C5342",
"m. c #8A5358",
"M. c #B24443",
"N. c #A85A5B",
"B. c #B55353",
"V. c #9A6649",
"C. c #9E6262",
"Z. c #946073",
"A. c #827272",
"S. c #917A7B",
"D. c #A36B6B",
"F. c #A37575",
"G. c #AE7E7D",
"H. c #C54144",
"J. c #D84444",
"K. c #EC4D4C",
"L. c #538B60",
"P. c #7F997B",
"I. c #587087",
"U. c #5F7891",
"Y. c #667E9C",
"T. c #826583",
"R. c #AB6B81",
"E. c #AC788C",
"W. c #B7708A",
"Q. c #BC6DB0",
"!. c #CA7A98",
"~. c #7F8187",
"^. c #7E818E",
"/. c #7D91A7",
"(. c #948282",
"). c #958C8B",
"_. c #9A8C8B",
"`. c #878C93",
"'. c #9D9896",
"]. c #95919E",
"[. c #BB8E8E",
"{. c #A68590",
"}. c #AD9E9B",
"|. c #B09291",
" X c #89A688",
".X c #869AAD",
"XX c #9D9FA1",
"oX c #A99DB0",
"OX c #96A6B4",
"+X c #A8A8A9",
"@X c #B1AFAF",
"#X c #B8A8A8",
"$X c #A4AEB7",
"%X c #AFB6BE",
"&X c #B8B0B1",
"*X c #BFB6B0",
"=X c #CA8BA2",
"-X c #DD80A1",
";X c #D98DA9",
":X c #C382B9",
">X c #EB9DBA",
",X c #F391B7",
"<X c #C8A7BA",
"1X c #C7BCBF",
"2X c #CBBCB8",
"3X c #D3B7B5",
"4X c #D1C1BF",
"5X c #B3BEC7",
"6X c #D591C9",
"7X c #F5ABD8",
"8X c #BEC9CF",
"9X c #CAC6C7",
"0X c #CDCDCD",
"qX c #D6C7C9",
"wX c #D8CCC8",
"eX c #DFCEC8",
"rX c #C8D3D9",
"tX c #DED3D5",
"yX c #D4D7D9",
"uX c #D6DADE",
"iX c #DFDCDC",
"pX c #E7D6D0",
"aX c #EEDCD7",
"sX c #F6E6DF",
"dX c #F1DAEB",
"fX c gray89",
"gX c #E7E2E6",
"hX c #E3E6E7",
"jX c #ECE6E8",
"kX c #E2EBEC",
"lX c #EAEAEA",
"zX c gray92",
"xX c #E9EFEF",
"cX c gray93",
"vX c #EFEEEE",
"bX c #FBE8E2",
"nX c #FEECE6",
"mX c #FFF0EB",
"MX c #FFF6EF",
"NX c gray94",
"BX c gray95",
"VX c #F4F4F3",
"CX c #F6F6F5",
"ZX c #F7F6F6",
"AX c #F9F7F5",
"SX c #F7F8F7",
"DX c #FEFBF7",
"FX c #F3FBF8",
"GX c #F8F8F8",
"HX c gray98",
"JX c #FBFBFB",
"KX c #FCF9F8",
"LX c gray99",
"PX c #FEFEFD",
"IX c #FCFFFF",
"UX c white",
/* pixels */
"                                                                                                                                                      ",
"                                                                                                                                                      ",
"                                                                                                                                                      ",
"                                                                                                                                                      ",
"                                                                                                                                                      ",
"                                                                                                                                                      ",
"                                                                                                                                                      ",
"                                                                                                                                                      ",
"                                                                                                                                                      ",
"                                                                                                                                                      ",
"                                                                                                                                                      ",
"                                                                                                                                                      ",
"                                                                                                                                                      ",
"                                                                                                                                                      ",
"                                                      zX                                                                                              ",
"                                              NXJXUXUXUXUXUXUXLXCX                                                                                    ",
"                                          JXUXUXUXJXfX0X0XaXSXUXUXUXJX                                                                                ",
"                                        UXUXJX@X-._ w w 8 w ] XXyXJXUXUXJX                                                                            ",
"                                      LXUXiX] 6 8 e n K r / -.).>.'.yXUXUXUXNX                                                                        ",
"                                    JXUXfXe 8 L K K K K K e ] 0X@Xe ] +XzXUXUXUX                                                                      ",
"                                    UXUX..3 L n K n e e e e L n ..L e K ).iXxXJXUX                                                                    ",
"                                  vXUX0Xo : K n w n / ] 8 = 3 6 = w L n e +XtX9XSXUX                                                                  ",
"                                  JXUX+XX 8 e n ] =.-.&./ K w w 8 = = e ] ;X7X;XiXUX                                                                  ",
"                                  UXJX..w e K A._.}.}.}.).A.=.=.L | R.) Z.-X-X=XvXUX                                                                  ",
"                                CXUX'.3 m P *XaXbXmXmXmXnXaX}.A.&.W.W.5 N E.{.+XNXUX                                                                  ",
"                                JXUX..w U |.DXbXbXsXsXsXbXnXmX2X..Z.!.b | ;X;X>X1XLXJX                                                                ",
"                                UXCX/ m I *XMXsXsXbXbXbXbXsXaXMX2Xm | M ! W.,X,X=XFXUXvX                                                              ",
"                                UXJX_ n C wXpXpXmXbXbXbXsX2X2X4XmX'.= L n r @.;X<XUXCXfXvX                                                            ",
"                              UXUXJX_ e c }.pXaX*XaXnXnX#X(._.}.eXaXe w n W 8 XXNXUXLXCXNXvXvXxX                                                      ",
"                            UXJXUXNXY r 7 (.'.e W ).nXnXeX..T.T...pX_ 3 e n 8 -.iXUXUXUXUXUXUXLXUXJXNX                                                ",
"                          UXUXoXoXVXn.w v |.'.oX6X&XaXnXsXqX6X7X<XbX/ o e e 8 _ &X|.{.).}.1XaXxXFXUXUXUXJX                                            ",
"                        UXUXFX#.T.FXV.9 U A.UXgX:X<XsXsXmXjX:XQ.dXmXe X 6 r 3 / '.5 5 & & 5 ) R.;X<X1XNXUXUXNX                                        ",
"                      CXUXhXuXrXhXJXV.v U r pX1X{.<XeXnXbX2X#X..P.qXw X 3 o o w &Xn 7 c 7 7 6 c m.-X,X=XtXUXUXUXUXUXUXUXJXJXVXCXNX                    ",
"                    vXJXUX].T.UXUXCXV.N J H ^ ^ ^  X*XP.L.L.L.L.H S ; . r . . o +X6 = = = = = = = 9 W.,XW.#XzXjXVXSXUXUXUXUXUXUXUXUXUX                ",
"                UXUXUXUXUXvXfXvXxXwXV.c J L.^ G F D F * J } v Y Y C V V i.3.V u.B.z.z.x.x.c.c.v.v.v.v.H.H.c.M.M.B.B.N.N.C.D.F.S.S.9XUX                ",
"                UXhX$X`.>.*.*._ r c n.P v . * . ,.8.2.8.8.8.w.l.x.H.J.J.K.K.K.K.J.J.J.J.H.v.v.c.x.l.h.e.0.t.2.,.,.,.,.l l k k k j m.UXJX              ",
"                JXyXuX/.Y.Y.OXNXLXuX^./.hX5XI.I.o.c h h z B B <.<.<.B <.1.9.e.0.0.9.4.4.1.1.1.<.<.B B B B z i.C.C.D.F.G.|.|.}.#X*XtXUX                ",
"                UX$X(.b.i.i.A n.C.C.m.! m.F.{ T.U.Q 1.h y @ # < > $ f z g z h x x d g g f p > 4 = @ p y y + #XUXLXUXUXUXUXUXUXUXUXUXUX                ",
"                AXxXF.5.f.f.l.d.6.5.e.p.6.5.6.{ I.) d.j.a.B 5 1 1 > u y y u # ; , o t i p y ; 0 ; @ p g <.2.3XUXJXCXAXVXVXNXvXvXvXvX                  ",
"                KX%X{.5.a.y.k.k.k.h.h.h.k.k.8.C./.Q e.a.k.l.A ~ R > t p s f > 2 q > s p s i ; q < p B q.k.2.2XUXvX                                    ",
"                DXrX@.6.p.p.g.k.y.h.p.p.h.l.6.D.8XW e.a.a.d.A %.%.Q z f y u & 2 q > s s s y < T E u.l.g.t.2.4XUXNX                                    ",
"                VXrX|.5.k.w.y.y.e.h.p.p.p.p.d.{ .X( d.g.t.w.Z O.$.) y.a.<.h % < 2 > s p i s E $.o.4.g.a.a.2.4XUXvX                                    ",
"                KX/.+.5.0.e.a.j.h.t.w.t.e.t.7.[ I.( e.y.a.6.m.I.X.) w.y.a.f.Z R q > t s B 4.o.%.' 4.a.r.g.2.qXUXvX                                    ",
"                DX.X| 6.a.a.g.a.y.h.t.w.w.t.7.[ U.( 0.t.h.5.G.FXU.Q d.y.a.r.A O.O.M z 4.g.4.~ %.o.9.a.g.g.2.wXUXvX                                    ",
"                KX/.| w.a.e.r.r.e.r.t.e.t.q.6.[ U.Q a.a.t.w.{ kXUXA.5.a.t.d.Z X.$.) f.a.d.s.^.X.' 9.a.q.y.4.tXUXvX                                    ",
"                AX/.| 6.g.g.g.a.k.g.y.e.0.q.6.[ U.` t.a.t.r.A X.kX3X2.k.y.w.m.O.O.) d.a.d.4.%X8Xo.9.g.a.y.4.tXUXvX                                    ",
"                AX/.| w.q.q.e.q.e.y.g.a.g.a.7. .U.` 9.y.a.7.C.OXO.S.8.a.a.5.G.rX$.! f.a.w.s.$X%X1X9.a.e.y.4.iXUXzX                                    ",
"                VX/. .6.g.a.p.k.g.g.r.e.t.a.7. .U.` 9.y.e.d.Z $X$XW e.a.a.5.F.UXhX .w.t.g.u.uXkX`.9.a.a.g.u.iXUXzX                                    ",
"                VX/.+.7.a.a.g.g.a.g.a.r.a.a.6. .Y.Q 4.k.a.f.Z ' $X{.5.a.t.r.A 8XUX[.5.g.g.3.o.rXeX2.j.j.j.u.fXUXzX                                    ",
"                AX%.Q 8.q.q.a.e.a.a.g.g.g.g.7. .I.E 4.4.<.0.A O.$.+.w.a.g.f.Z X.%XG.2.r.a.V ~ X.*.<.1.1.<.V gXUXvXCX                                  ",
"                CX' : B j.y.g.e.0.0.q.q.e.q.r.! T ; i s i s & ~ R 4 z z z z 5 T q 5 g f f @ 2 q o t u i t i zXUXzXCXSXCXGXGX                          ",
"                VX' > <.a.q.q.q.0.q.q.e.q.q.w.b T ; y s p s % < 1 : t y y y # < 2 # u i s @ 1 q : u s s u x zXUXzXCXSXJXGXGXCXJXCXJX                  ",
"                NX' : z g.e.g.k.j.k.g.k.g.g.d.b T ; @ s p s % 0 q : s s s f % 2 q & s p s $ < q : p s s u x vXUXzXCXGXGXGXGXGXGXGXGXGXGX              ",
"                BX' > z a.0.q.a.q.q.r.r.a.y.w.M T ; @ s p f % 2 q : u s s a % 2 2 # s p s $ 2 q : s d d u x NXUXzXGXGXGXGXGXGXGXGXGXGXGXJX            ",
"                BX' > f a.l.g.j.j.j.j.j.k.t.0.M T ; @ s i s % 2 q ; u p p a % q q & f s s $ , , X + + + + c GXUXzXGXGXGXGXGXGXGXGXGXGXGXCX            ",
"                CX' 4 y g 3.4.4.4.4.9.e.e.g.f.M T ; @ s p s % q q & s s u u O - - O + + i 5 E o.*.S.'.&X9XhXUXJXzXGXGXGXGXGXGXGXGXGXGXCXJX            ",
"                JX' q q q < 2 q q 0 0 4 4 5 x 4 < - + t t t O - - X + i x N ) *.~.'.&X9XiXvXJXUXUXUXUXUXUXUXUXvXvXJXCXGXGXGXGXGXGXGXGXGXGX            ",
"                UXyX0X0X9X%X+XXXXX].`.~.:.:.;.:._ r b N P  .&.~.XX@X9XiXzXJXUXUXUXUXUXUXUXUXUXJXCXNXNXvXzXzXzX    GXJXCXGXGXGXGXGXGXGXGXJX            ",
"                  UXUXUXLXUXUXUXUXUXUXUXUXUXUXUXUXLXJXJXUXUXUXUXUXUXUXUXUXUXJXCXVXNXvXvXzXzXzXzXzXvXvXNXVXCXJXCX    JXJXGXGXGXGXGXGXGXCXCX            ",
"                        vXvXvXvXNXNXVXCXCXCXCXCXLXUXUXUXJXJXCXNXvXvXzXzXzXzXzXzXvXvXNX                                CXGXGXGXGXGXGXGXJX              ",
"                                                                                                                            JXCXJXGX                  ",
"                                                                                                                                                      ",
"                                                                                                                                                      ",
"                                                                                                                                                      ",
"                                                                                                                                                      ",
"                                                                                                                                                      ",
"                                                                                                                                                      ",
"                                                                                                                                                      ",
"                                                                                                                                                      ",
"                                                                                                                                                      ",
"                                                                                                                                                      ",
"                                                                                                                                                      ",
"                                                                                                                                                      ",
"                                                                                                                                                      ",
"                                                                                                                                                      "
};
