/* XPM */
static char *avr3d_whhmn[] = {
/* columns rows colors chars-per-pixel */
"75 75 235 2 ",
"   c None",
".  c #370C0F",
"X  c #350C13",
"o  c #3A0C13",
"O  c #3D121A",
"+  c #341313",
"@  c #162B0F",
"#  c #182B0F",
"$  c #172D10",
"%  c #192C11",
"&  c #1A3413",
"*  c #1E3C14",
"=  c #1D3A17",
"-  c #1A360F",
";  c #362515",
":  c #213D14",
">  c #233D1B",
",  c #2C3718",
"<  c #36381A",
"1  c #2A2D15",
"2  c #450F16",
"3  c #4A0F16",
"4  c #490F18",
"5  c #460F18",
"6  c #461016",
"7  c #4B1117",
"8  c #461119",
"9  c #4C1119",
"0  c #481D18",
"q  c #54121A",
"w  c #5B141C",
"e  c #54151A",
"r  c #570E18",
"t  c #63161E",
"y  c #69171F",
"u  c #69181F",
"i  c #4A261B",
"p  c #4C1820",
"a  c #561A22",
"s  c #5D1B24",
"d  c #551520",
"f  c #651620",
"g  c #6B1721",
"h  c #631B24",
"j  c #6C1A23",
"k  c #641E29",
"l  c #6A1E29",
"z  c #701722",
"x  c #701A23",
"c  c #701C28",
"v  c #592724",
"b  c #433B26",
"n  c #53302F",
"m  c #65222C",
"M  c #6C222C",
"N  c #672629",
"B  c #70232F",
"V  c #63342C",
"C  c #6C2831",
"Z  c #712431",
"A  c #7A2734",
"S  c #7C2A35",
"D  c #762C35",
"F  c #663739",
"G  c #783736",
"H  c #78362A",
"J  c #1D4116",
"K  c #1E471A",
"L  c #224315",
"P  c #22431A",
"I  c #27491A",
"U  c #37461D",
"Y  c #2A531B",
"T  c #2B561C",
"R  c #34571D",
"E  c #36611F",
"W  c #254523",
"Q  c #2B4F2B",
"!  c #294923",
"~  c #2B5424",
"^  c #2C532C",
"/  c #2C5927",
"(  c #335C21",
")  c #365B2B",
"_  c #325B35",
"`  c #355935",
"'  c #35512D",
"]  c #356223",
"[  c #396227",
"{  c #336433",
"}  c #38633B",
"|  c #37683A",
" . c #3F763F",
".. c #47592C",
"X. c #485935",
"o. c #545D32",
"O. c #524E30",
"+. c #596638",
"@. c #4E6D36",
"#. c #68673C",
"$. c #64763E",
"%. c #663B41",
"&. c #3D6F43",
"*. c #565647",
"=. c #764D4E",
"-. c #447848",
";. c #567149",
":. c #6B6945",
">. c #6D7552",
",. c #6E6263",
"<. c #861725",
"1. c #892D3B",
"2. c #832C3A",
"3. c #853B3D",
"4. c #8A343C",
"5. c #902F37",
"6. c #B72F3B",
"7. c #BB182F",
"8. c #D01B36",
"9. c #855537",
"0. c #894F34",
"q. c #A0613F",
"w. c #933442",
"e. c #9C3948",
"r. c #8C3840",
"t. c #A13A4A",
"y. c #A03946",
"u. c #AD3F52",
"i. c #CE2F49",
"p. c #864344",
"a. c #934C44",
"s. c #985655",
"d. c #915255",
"f. c #AD4654",
"g. c #9B6E4F",
"h. c #A97B56",
"j. c #AB7450",
"k. c #B55A68",
"l. c #8A6969",
"z. c #95757A",
"x. c #8C7370",
"c. c #A2767B",
"v. c #B16F69",
"b. c #CB4C57",
"n. c #CC5468",
"m. c #D3697A",
"M. c #CA686E",
"N. c #47834D",
"B. c #4B8555",
"V. c #528959",
"C. c #51945C",
"Z. c #53985E",
"A. c #4F9258",
"S. c #658B59",
"D. c #589964",
"F. c #5CA268",
"G. c #5FAF71",
"H. c #61A36D",
"J. c #64AA72",
"K. c #67B578",
"L. c #778962",
"P. c #99847A",
"I. c #8C957C",
"U. c #A88C65",
"Y. c #BA8768",
"T. c #B1936E",
"R. c #B6A377",
"E. c #AB855A",
"W. c #C79876",
"Q. c #CC9076",
"!. c #E29A7F",
"~. c #C9A579",
"^. c #D3A377",
"/. c #D3A47A",
"(. c #D9AA7E",
"). c #9C7D82",
"_. c #D67182",
"`. c #6EBC81",
"'. c #70BF81",
"]. c #73C384",
"[. c #77C98B",
"{. c #72C988",
"}. c #9D8889",
"|. c #A48A83",
" X c #B79698",
".X c #AD9291",
"XX c #BAB4AA",
"oX c #C3969B",
"OX c #D19D83",
"+X c #CEA285",
"@X c #C4A58A",
"#X c #D1A481",
"$X c #DBAC82",
"%X c #D9A98A",
"&X c #DEB185",
"*X c #D6B58C",
"=X c #D9AB94",
"-X c #DAB791",
";X c #C7A298",
":X c #E8A78A",
">X c #EABE94",
",X c #E7BA94",
"<X c #E3B390",
"1X c #D59BA4",
"2X c #C4A7AA",
"3X c #D3A4AC",
"4X c #CCB3B6",
"5X c #D9B8BC",
"6X c #D1B4AB",
"7X c #E7B5BC",
"8X c #E5ACAE",
"9X c #E49E96",
"0X c #84DD9A",
"qX c #8AEAA5",
"wX c #8FEEA9",
"eX c #9CD2A6",
"rX c #EEC299",
"tX c #EBC197",
"yX c #F0C79F",
"uX c #DAC3A9",
"iX c #D6C2B5",
"pX c #ECCAA7",
"aX c #E9CDB7",
"sX c #ECBBC2",
"dX c #F0BCC3",
"fX c #D8D3CA",
"gX c #E8CACD",
"hX c #F4C9CD",
"jX c #ECD8DA",
"kX c #F3D0CE",
"lX c #F0E7D5",
"zX c #F7DFE1",
"xX c #FBE1E5",
"cX c #FBE6E9",
"vX c #F1F6F4",
/* pixels */
"                                                                                                                                                      ",
"                                                                                                                                                      ",
"                                                      l j j j j j j j j j j j j j j j j m                                                             ",
"                                                      f f y y y y y y y y y y y y y y u h                                                             ",
"                              k j               l j f q 7 7 7 7 7 7 7 7 7 7 7 7 7 7 7 7 q f x x z j l                                                 ",
"                              j j M             j j t q 6 6 3 3 3 3 3 3 6 6 6 6 6 6 6 5 q t j u j z j                                                 ",
"                              q q s M M M M l h q q q t t y t t t t y y y t t t t w 7 6 6 7 q q f z z j l                                             ",
"                              4 4 w g z j j j t 7 3 q g j z j j j j z z z j j j j t q 3 3 3 3 q t j j j j l                                           ",
"                              w w w w w w w w w w w w w w w w w w w w w w w w w w w w w q 9 6 7 q w w g j l                                           ",
"                              j j w 9 6 6 6 6 q g j t 9 6 6 4 4 6 6 7 6 5 3 3 6 3 q t j u q 3 6 6 5 q t j x                                           ",
"                              M l w 7 6 9 q q q t t w 9 6 6 q q q q q q q q q 6 6 9 w t t s s v m C N h f f                                           ",
"                                    6 6 e f j w 7 3 3 6 3 q f j j j j j j j t q 6 6 3 3 a D 3.p.s.k.s.N 9 6                                           ",
"                                    9 q w y g w 9 6 6 9 3 w f g g g y y y y t q 9 e v v V p.s.s.v.v.k.G v v                                           ",
"                                    f y w q 9 7 6 6 q t f w q 7 7 9 7 7 7 7 q y y 3.v.#X%X%X%X%X<X<X%XW.Y.Y.                                          ",
"                                    j u w 9 5 3 3 6 q u j t q 3 6 6 5 6 6 6 q j x a.Q.,X>X>X>X>XrXrX>X$X^./.                                          ",
"                                    j u w 7 6 q w t w q q q w t w 9 5 9 w t G v.Q.Y.h.h.h.h.h.Y.$XrX>X$X^./.                                          ",
"                                    j u w 7 3 q g j t 3 3 q y j t 9 3 q y z 0.OXtX/.j.9.0.0.9.g./.rX>X$X^./.                                          ",
"                                    j j y w q w w w q 4 3 q y j t 9 6 q y z 3.Y.W.W.T.U.g.9.H 9.W.rX>X$X^./.                                          ",
"                                    j z z j j t q 3 3 3 3 q y j t 9 5 q y z H q.j.Y.=XiX X=.a G W.rX>X$X^./.                                          ",
"                                    j j j j j f q q 9 3 3 q w y w q q t <.<.5.j.E.W.6XaX;Xd.l 3.Q.rX>X$X^./.                                          ",
"                                    j z l       j g w 7 6 6 6 7 q f z <.7.8.b.!.,XpXkXlX8XM.6.f.!.rX>X$X/./.                                          ",
"                                    l j         j j t 9 6 6 6 7 w M 2.5.i.i.n.:XtXpXkXlX8XM.6.b.OXrX>X$X^./.                                          ",
"                                                      f u u t u p.v.#X=X5XgXaXpXrXyXpXpXrX:X:X:X,XrX>X$X^./.                                          ",
"                                                      j j j y z s.W.yXaXlXvXlXaXrXtXrXrXrXrXrXrXrXrX>X$X/./.                                          ",
"                                                          M j z a.Q.&X-XuXuXuX-X&X&X&X&X&X&X&X&X&X&X&X                                                ",
"                                                            l z a.Y.^./././././.^.^.^.^.^./.^.^.^./.#X                                                ",
"                                                              M s.Y.+X+X#X#X#X#X/.+X+XOX+X=X<X=X%X+X                                                  ",
"                                                                  oXoXoX            oXoX3X7XhXhX                                                      ",
"                                                                  |.|.P.             XoX3XsXhXhX                                                      ",
"                                                                  @.@...I : : : * *.P.oX3XgXzXfXL.[ ]                                                 ",
"                                                                  ] ( T I K J * - X.x. X2XgXjXiXS.] R                                                 ",
"                                                              [ ~ : : ~ N.C.-.W & P X.;.>.x.c.l.X.I I                                                 ",
"                                                            ] ] Y & % Q D.K.C.W $ = T E ..=.d.=.U : :                                                 ",
"                                                            Y Y P $ % ` K.[.J.Q $ & L Y +.P.oX|.O.; ; U                                               ",
"                                                            P * & @ & } [.wX'.^ % @ & * ;.XXzX5X=.3 0 U R ]                                           ",
"                                                            > * P ! _ &.H.K.H.-.} ^ P & X.I.XX.X=.d 0 U R (                                           ",
"                                                            = J { C.G.V.^ = } ].0XK.` # = ( @...V M v < : L                                           ",
"                                                            : J | F.K.D.W @ _ ].qXK.` % & I ( ' V Z N < : L                                           ",
"                                                            * J -.].0XK.Q @ Q F.].D.^ $ @ * L U G w.3.b : *                                           ",
"                                                            * J -.].qX`.` & ^ D.K.A.^ & & & * < G e.3.b : :                                           ",
"                                                            = * ~ } -.B.D.J.D.&._ | -.B.&.~ * < V 2.D < : *                                           ",
"                                                            : * & $ & } [.wX`.^ @ ^ C.K.Z.{ * , v M v < : J                                           ",
"                                                            & & = * P ) V.D.B.! $ ! | N.@.) I U i s v < I Y                                           ",
"                                                            % @ : T ] ~ * % & * = * * L I T E R i 3 0 U ( ]                                           ",
"                                                            ` _ ^ ~ T I * & P ..o.o.o.o...( T U i q v O.+.$.                                          ",
"                                                      > J -.].0XH.` @ * Y ( $.R.*X-X-X*XT.+.: , v M G h.W.U.#.> *                                     ",
"                                                      ! ~ N.].0XJ.} > I ~ ( $.~.>XtXrXtXR.+.= , n C p.Y./.T.#.L *                                     ",
"                                                      [.{.F.&._ -.J.].F.) I o.T./.(.(.(.U.o.* W *.=.l.@X,XR.:.L *                                     ",
"                                                      wXwXJ.^ & &.].qX'.{ L ..U.W.^.^.~.E.o.* ! *.,.x.@X>X~.:.L *                                     ",
"                                                  ! ` -.B.V.D.D.D.V.B.V.D.F.S.>.#.#.#.#.+.) Y Y b n n :.>.>.:.                                        ",
"                                                J * & % $ -.[.qXJ.` % } [.wX].{ L = : : I T ] R ; . + 1 : P                                           ",
"                                                -.-.{ & $ _ D.K.B.! & ^ D.K.C./ J I / | { / T I ; X + 1 >                                             ",
"                                                wXqXJ.W % & J P J * * * L P K * * ) C.G.C.{ * 1 + X o                                                 ",
"                                                [.[.D.W % > ` X.' , 1 , < < < , , ' ;.D.V.X.< < + X o                                                 ",
"                                          > P I ~ ~ ! : * >.XXfX}.F 7 w G 3.3.C N v i ; v G r.G 9 X X                                                 ",
"                                          > * * * * * * = >.XX  l.s w j 4.e.w.A Z h 6 . e S e.1.d X X                                                 ",
"                                                            V s M 2.1.1.2.2.A Z Z h 4 o 7 m S B 9 X X                                                 ",
"                                                            9 r c 5.e.w.A B B M Z h 7 o 5 s M k 6 o X                                                 ",
"                                                            2 3 h 1.t.w.A B B B B s 6 X 5 s M k 6 o X                                                 ",
"                                                            X o s 1.e.w.A B B B B s 6 X 5 s M k 6 o X                                                 ",
"                                                            X o s 1.t.w.A B M k h s a e s l M m 9 X X                                                 ",
"                                                            + o s 1.y.4.A M h 5 o a S w.4.S M C                                                       ",
"                                                            + X s S w.2.B k s 7 2 a S w.4.S C Z                                                       ",
"                                                                  9 9 7 5 5 9 s k s e 9 p                                                             ",
"                                                                  O O O O O p C D m p O O                                                             ",
"                                                              xX2X).x.z..X X X2X2X X).x.).4X                                                          ",
"                                                            cXxXgX4X2X4XjXxXcXvXvXjX4XXX4XgXxXxX                                                      ",
"                                                              xX2Xz.l.c.1X8X3X X.X}.z.l.c.oX8X1Xv.                                                    ",
"                                                                  O 6 m f.n.f.s 8 O o O k t.n.f.4.B N                                                 ",
"                                                                  F F p.k.m.k.D s 9 o X m f.m.M.e.1.2.                                                ",
"                                                                  5X7XsXsXdX1XM.b.w.s o F .XdX8Xm.b.u.m O X                                           ",
"                                                                  gXkXhXhXhX8Xm.n.t.s o %. XhX7X_.n.f.k o X                                           ",
"                                                                                                                                                      ",
"                                                                                                                                                      ",
"                                                                                                                                                      "
};
