/* XPM */
static char *aw0qa_6498d[] = {
/* columns rows colors chars-per-pixel */
"75 75 255 2 ",
"   c #340C07",
".  c #2B1A11",
"X  c #480A08",
"o  c #570C07",
"O  c #471508",
"+  c #5A1708",
"@  c #4F1C12",
"#  c #661B08",
"$  c #751A03",
"%  c #572810",
"&  c #6A250B",
"*  c #772809",
"=  c #7B330A",
"-  c #6A361A",
";  c #793817",
":  c #6B2D11",
">  c #6B3924",
",  c #553D20",
"<  c #7B4416",
"1  c #7A4727",
"2  c #862909",
"3  c #843A0C",
"4  c #88380A",
"5  c #943C0B",
"6  c #863A14",
"7  c #8B420D",
"8  c #96470D",
"9  c #894617",
"0  c #964A15",
"q  c #98561A",
"w  c #925217",
"e  c #A45C1C",
"r  c #A75816",
"t  c #A34E12",
"y  c #9E631D",
"u  c #A9661A",
"i  c #B3681A",
"p  c #B8751C",
"a  c #AF711C",
"s  c #874B25",
"d  c #8B5325",
"f  c #9C5C23",
"g  c #965727",
"h  c #92542D",
"j  c #A25C24",
"k  c #A55D2A",
"l  c #9C6329",
"z  c #9A6535",
"x  c #8F6232",
"c  c #A46323",
"v  c #A3632B",
"b  c #AC6B2C",
"n  c #AA6825",
"m  c #B26C24",
"M  c #B36D2B",
"N  c #B66824",
"B  c #AC722C",
"V  c #B47324",
"C  c #BB7522",
"Z  c #BC7B24",
"A  c #BA742B",
"S  c #BC7C2C",
"D  c #B4762C",
"F  c #A36533",
"G  c #AB6C34",
"H  c #A66A38",
"J  c #AC7437",
"K  c #B47433",
"L  c #B47B34",
"P  c #BB7C32",
"I  c #B57C3B",
"U  c #BB7D3B",
"Y  c #B87536",
"T  c #B36C36",
"R  c #C27D2C",
"E  c #C37926",
"W  c #C27D35",
"Q  c #C2741C",
"!  c #AC7644",
"~  c #B87B45",
"^  c #9A6A45",
"/  c #C07F40",
"(  c #BD801E",
")  c #BE812C",
"_  c #BD8333",
"`  c #BC823B",
"'  c #BA873A",
"]  c #CC8B1D",
"[  c #C4832B",
"{  c #C88929",
"}  c #CD912B",
"|  c #D59B29",
" . c #C38434",
".. c #C48A34",
"X. c #CC8D34",
"o. c #C3843B",
"O. c #C48A3C",
"+. c #CB8C3C",
"@. c #CA8536",
"#. c #CD9233",
"$. c #CC933C",
"%. c #C9943B",
"&. c #D2943C",
"*. c #D49B3D",
"=. c #D69936",
"-. c #D28D34",
";. c #DBA53C",
":. c #DCA32E",
">. c #E1A93B",
",. c #E29E2C",
"<. c #BC8342",
"1. c #BB8747",
"2. c #BB8756",
"3. c #BA9052",
"4. c #BB9264",
"5. c #C38643",
"6. c #C48B43",
"7. c #CB8D43",
"8. c #C68A4A",
"9. c #CC9343",
"0. c #C5924A",
"q. c #CC944B",
"w. c #CD9A4B",
"e. c #C99643",
"r. c #D29543",
"t. c #D49B43",
"y. c #D99C44",
"u. c #D2944B",
"i. c #D49C4C",
"p. c #D99D4C",
"a. c #D89647",
"s. c #C48C55",
"d. c #C49352",
"f. c #CC9553",
"g. c #CD9B53",
"h. c #C5935C",
"j. c #CC9A5A",
"k. c #C89759",
"l. c #D39C53",
"z. c #D49D5A",
"x. c #D79C55",
"c. c #D5A244",
"v. c #DBA344",
"b. c #D5A14C",
"n. c #DBA44B",
"m. c #DCAB4C",
"M. c #DDA945",
"N. c #CDA258",
"B. c #D5A354",
"V. c #DBA453",
"C. c #DDAA54",
"Z. c #D5A35C",
"A. c #DBA55B",
"S. c #DCAB5C",
"D. c #D6A95A",
"F. c #DDB15C",
"G. c #DEB055",
"H. c #E2AB4C",
"J. c #E2A946",
"K. c #E7B44A",
"L. c #E2AC53",
"P. c #E2AD5B",
"I. c #E2A857",
"U. c #E3B255",
"Y. c #E9B454",
"T. c #E4B35C",
"R. c #EAB55C",
"E. c #EBBA5C",
"W. c #E7B957",
"Q. c #F1BC54",
"!. c #CB9C63",
"~. c #C79765",
"^. c #CE9D6A",
"/. c #CEA366",
"(. c #D4A463",
"). c #DBA662",
"_. c #DCAB64",
"`. c #D6AB6B",
"'. c #DBAC6B",
"]. c #D5A768",
"[. c #DEB263",
"{. c #DEB26B",
"}. c #DAB66E",
"|. c #CEA774",
" X c #DAAE74",
".X c #D4AB75",
"XX c #DCB374",
"oX c #DCB579",
"OX c #E1AD63",
"+X c #E2AF6A",
"@X c #E4B364",
"#X c #E9B663",
"$X c #E5B964",
"%X c #ECBB64",
"&X c #E3B46B",
"*X c #E5BA6C",
"=X c #EABC6C",
"-X c #E9B66B",
";X c #F0BE66",
":X c #E3B572",
">X c #E5BB73",
",X c #EABD73",
"<X c #E4B67A",
"1X c #E5BB7C",
"2X c #E9BD7B",
"3X c #E8B776",
"4X c #E0AD70",
"5X c #F2C55C",
"6X c #EEC159",
"7X c #ECC164",
"8X c #EDC26C",
"9X c #E7C168",
"0X c #F1C36C",
"qX c #F2C768",
"wX c #ECC274",
"eX c #E6C17C",
"rX c #ECC37C",
"tX c #EEC97C",
"yX c #EBC673",
"uX c #F1C473",
"iX c #F1C57C",
"pX c #F3CA7C",
"aX c #F3CA74",
"sX c #F7D27A",
"dX c #DCB886",
"fX c #DBB990",
"gX c #E4BC83",
"hX c #E7BD86",
"jX c #E6BE91",
"kX c #E5C284",
"lX c #ECC483",
"zX c #EDC983",
"xX c #E4C38B",
"cX c #EBC58B",
"vX c #EDCA8B",
"bX c #F2CB83",
"nX c #F2CC8C",
"mX c #F1C784",
"MX c #F5D38D",
"NX c #F6D389",
"BX c #EDCB93",
"VX c #EAC896",
"CX c #F1CD93",
"ZX c #F0CE9A",
"AX c #EED19B",
"SX c #F4D394",
"DX c #F4D49B",
"FX c #F9D998",
"GX c #EDD2A4",
"HX c #F6D9A5",
"JX c #F7DDB2",
"KX c #EBD1A8",
"LX c #FBE1A8",
"PX c #FCE6B6",
"IX c #FEEDC5",
/* pixels */
"& : 9 w w L d   l b._ S ..b.9.O. .R V ..7 7 ) W.] ( Z { p u u u i p a ( p w ..} p p p a p a 8 0 C 9 < D ; + & 9 z I O.i.U.O.b  .F.b.e.m i p q y u q w ",
"& # o o o # o O q o.6.9...u.i. .S A 8 q 3 a #.S 4 4 * $ * * = = = 3 7 8 r 7 [ i 8 8 5 2 4 # X o * & s o.O.w.J l < & 9 c 9 & = n q q B L w < % O O O O ",
"' q r r 0 3 3 7 S c q D u q q q n 9 v 1.! A.$X9.P _ 1.I f < ; %     o o o # * o X X X X X # = 9 ; * 4 r [ B d I %.z   d x h J H - % @   . . . @ @ @ , ",
"[.f ' d.j.d.k.!./.}. X].Z.w.k.!.}.oXgXXX(.g.l.>XzXvXDX>X@X@XZ.g.Z u n n c J 1.<.l d w y ' w.b.B.%...c.@Xz.<.s X # w n L.*.*.+.o.S.[.N.' L I ` K U 0.9.",
"W.K q.HX_.`.gXVX{._.f.`.eX>XMXvXvXAX[.w.0.I Z.*X>XtXaX8X@XT.F.>XK w.S.B.*XsX7XC.P.N.D.F.&X_.$Xf.l b.*X*XP.C.b.B b l N.9._ T...S %.w.w.' O.i.9...L e.' ",
"7X5.O.eXm j.g.z.g.z.A f._.{.Z.cXGXg.a u w.g.kXyX7XyXaX*X[.i.m.c.q Z.rX+XnXzXO.l.{.j.:X3X:X+X3Xz.1.VXAX[.+.r.e.' eX}.&XB.C.B.P n. .V ..e.0.B.w.w.%.w.N.",
"wXs.M V.q.1X'.l.A.~ c z.g.P ` cX6.V P 6.+.D b.m.C.C.i.e.6.$.r.T.q 0.iX-XbXZ.i.*X&X{.2X3X&XA.+XA.(.gX1Xl.X.i.r.0.xX]._.@Xp.S ..t.D r.S ..Z.(.B.w.j.d.d.",
"W...j 7.j.S.Z.f.q.q P :Xd.O.A.(.o.6.+.K S u [ [ } X.X.Z V O.*.m.w 8.#X@XOXC.>XT.@XtXrXS.A.S.S.l.r.A.O.+.t.r.r.9.kXf.B.T.r.r.C.9.V.r.r.U.D.(.B.q.6.6.' ",
"9.n.j `  X&X&X7.8.+.l.l.U _.l.9.q. .$.u C S Z X...[ #.r...C.b.;.w ` R.$X@X,X2X#X-X,X,Xr.R $.n.B.C.R C R i.S.x.l.S.P g.=XB.C.C.i.i.7.y.@XB.i.$.r.9.<.` ",
"n.wXf Z.A._.A.n x.p.x.7.z.f.S $.9.S $.D S S V H.$.#.#.X.r.@XR J.w I 5X=X=X=XP.H.=X@Xi.*.r.t.y.L.r.&.a.i.y.8Xy.B.7.B ` T.n.T.U.T.R.C.0X0XT.m.T.b.6.` w.",
"OXlXC.m._.A.U n &Xo.+.l.).W B._...S C.o.r.o.i.n.X.$.#...l.r.[ X.c ` sXU.U.y.C { =.@.A &.S E E Y e K 6 0  .M 6 * 4 7 V #.m K b F F z ! G G J U K B G G ",
"w._.K n.H.C.D l.7.N W a.A +.P.6.*.[ &.*.&.y.L.y.*.*.=.=.v.v.t.m.K q u 8 8 2 $ * 2 0 P q.5.V.`.~ J s F <.9 % ; G F F i.0.1.d.F 6 ; 6 g f G G H H h - - ",
"4 4 o : i e 0 j 6 6 ; & # 9 9 ; 6 = d 9 ; 9 3 8 q 0 3 9 6 7 6 * * 9 8 8 0 0 9 8 M *XR.R.%Xn.T.@XA.@X%X9.A $.X.V.OXl.u.&X@XP.L.J.X.v.%X8X%XY.%Xb.i.l.9.",
"f.0.z F - : - - > > 1 d s ; ; - < 1 - - s ; l O.B d - - k F h F <.g.>XwX=X=XF.e.L.8Xa.y.#.v.t.y.l.b.&.u S &.@.n.7.m X.H.n.L.t.y.r.m.H.v.m.v.n.9.i. .q.",
"+._ m.W.H.E.w.*.;.*.X.&.J.=.{ { M.H.=.#.m.H.v.B.c.L.Y.M.m.U.U.%X8X=X$XP.*XP.m.$XT.%XX.&.*.&.v.n.Z.b.X.S $.C.p.P.o.A m.v.P.L.r.L.y.$XU.M.=.m.n.*.+.i.q.",
"v.m.M.X.;.J.X.v.U.{ X.[ [  .C #.U.U.{ #.m.v.E 9.*.C.b.D.V.*.C.-XC.v.m.t.n...#.L.L.8Xy.y.*.J.Y.=.L.S.v.y.i.@Xr.C.P $.C.C.m.m.m.P.m.S.U.T.W.c.*.....w.+.",
"H.;.#.[ #.;.#.) #.Z #.C [ *.p #.K.*.#.;.F.m.*.$.H.C.@Xi.C.n.m.n.L.L.H.*.M.&.Y.v.r.E.y. ...X.i ..H...X...y.*.*.y.S *.c.H.v.H.m.L.y.t.T.*.t.c.c.$.M.c.e.",
"*.*.*.*.M.;.} ..) ) M.=.J.;.p $.U.=.C.#.C.n.#.S.=XM.T.&.n.$.*.$.t.9.S S ) ..=.V $.Y.i A C V ..{ q r p V  .[ ) e w B %.{ [ [ M  .L b.c.*.$.c.w.e.D D g ",
"F.$X*XtXaX8X7XW.M.v.*.*.=.{ X.c.c.c.$.[ *.{ } n.P c b q f d g g d 6 = * 3 9 0 u B.` m B f f n q 7 = 6 9 9 w l f c 6.w.w.6.P S S u n n S ) %.<.B f q q ",
"tXDXMXvXDXHXSXzX7X0XNXSXSXSXSXMXSXSXDXbXwX$XT.M.M 6 = * * * * = = 3 3 8 t r u Z Z r 8 & * 7 3 3 = * # + # & * = 9 9 3 3 = * + # & % + & : ; = 7 q B ..",
"F.tXL _ rXSXzXe.L.bXSXFXSXSXzXzX2XvXkXA.,X=XrXSXyXH.;.#.X...C i p Z Z Z e.V.*XwXuX7Xm.&.[ p C S Z V P D u e V g.[.{._.i.` K f = * * 7 7 = 9 J 1.0._.B.",
">XF.m t.=XnXzXq _ qX%X8XnXtX[.eX$XV.S ..L.U.=XC.b.U.U.C.G.[.' i.>XS.m.V.wXtXtX,X=X=XbXaX8X$XwXwX,X[.eXD.D.w.@XpX,X*X2X>X,XwX=XV.C.i.S.S.D.$XqXpXMXvXkX",
"_.:X2X@XwXBXS.q L qX=XW.7XrXrXSX}.r.r.#.T.8XC.M.,XT.,X*X*X{.O.zX>Xb.V.[.3XeXR.wXT.lXSX@X,XwX8X,X&X[.,XD.[.2XrX*X_.,X&X_.{.>XgXlX>X,XtX8XwXtXyXwX_.&X{.",
"1XzXSXeXrXeXL.v K qX%X8XaXbXvXb.w.M.*.&.=XT.$XC.*XC.wX-XtX_.L &Xn.T.B.@XP.C.,X@XT.rXnX&XwX@XtXmXV.A.@XA.{.{.&X&X&X-X_._.l.*XBX2X}.wXwXwXwX,XpX@XS.tXZ.",
"BXvXlXXXV.w.O.f c qX,XSXHXMXrX_ O.tX=XtX,XCXtX=XnX@X=X$XS.9.K S.$.b._.b.*.L.L.@X*XrXrXS.>XwXSXtX>XcXgX&X`._.S.2X1XgX1X).Z.:XcXgX:X`.1X>X*X>XwX,X2X:Xq.",
">X2XlX(.{.O.$.c v %XH.wXtXJXeX' ' bXtXMX>XvXtX=XSX:X=X_.*.S.L _.$.@X_.l.T.=X,X=X>XZXvX1X,X@X%XK.K.,XcXBXgX'.2X<X2X&X+X'.1X1XcX2X].Z.].'.eXzX*X@XcX_.9.",
"[._.%.%.S._ *.e v Y.U.rXDXAXF.B.&.9.,X$XC.DXbX=XMX2X=XB.b.&XJ _._.lXA.A.eXvX_.n.C.tXtX*XC.;.J.;.| | L.W.A.'.<XcXlX&X_.:Xj.<XBX<X0.Z.eX>X'.D.wXpXCXgX{.",
"O.0 * 4 8 8 i # ; Q.zX$XU.9Xm.t.%.$.,XS.zXCX=XbXDX@XP.@XH.L.d w._.'.m M 5.(.l.@X,XF.| | ] | | | ] ] | ] [ O.R.@Xm.L.*.i [ %X'.G 3.:X>XF.u u O.T o.W l.",
"* + o & * # X o 7 | K.K.5XK.{ [ p %.T.r.FXMXMXHXbXL.%XrXt.J.g e.7Xi.r.t.b.p.q.7.@.| | | } | :.{ r u 8 4 8 t C p | p 8 4 4 Q m n 5.F &XaXaXi.$ $ 2 $ $ ",
"B B q ; f s > v D 8 8 r u u u 8 8 S m m P Y <.~ 5.P @.~ 0 E 7 9 5 0 G F T h 0 8 8 r r 8 r r t 0 s s s 0 5 2 2 5 5 2 4 7 8 2 o X : & 6 f M f w m n c n ",
"%.F.<.a C.vX0.f.d.` v g F 9 +   X + # h H f g d h F ! ~ h.{.k.~ U 8.U F v c  .A A e 8 8 8 5 ~ _.tX:X].f.8.Z._.(.].(.` %.w.g.I H k.l.G g g g w.@X{.XXkX",
"F.9XF y T.U.#.{ C.kXvX$X%XH.1.x g I Z.8XY.Y.K.Y.0XuX0X=X[.K 7.,XNXFXbXtX1X9.-XzXeX>X>X:Xz.@XMXmXnXXXgXcX2XMXSXNX8XT._.vXBXFX/.L -XL F.=XwXS.D.nXmXnXmX",
"eX[.d u rXC.L.$.&XHX_.{.*XT.nXZ.(.cXL.L.W.L.P.-XL.I.i.-.e 8 C &.T.MX>XF.8.j nXSXrXkXkXxXvXvXDXBXvX>XVXAXBXZXtXV.i.y.T.zXtXbXd.9 n L U.$XZXlX=XvXDXmXCX",
"xXg.9 V XXU H...gXBXn.q._.wX:X_ :X$XR =XL.=.,X&X+X@Xt.C.+.i C -.v.E.U.c.P M SXeXrXyX{.eX>XkXvXwX>X&XlXBXvX=X&. .p.t.P V { #.K w %X=XwXwXlX>XtXwXSXbX&X",
".Xf.; L k.L $Xg.BX*X$.A._.T.V.l.=Xr.7.mX$.*X,X=XC.L.-XSX=X@XP.L.H.H.*.i V b E.nX9X>X>XvX>XeX*XP.@X&XzX>X&X@Xq.A.u.W r i *.Z i w $X$XzXwXwX=XwXwXiXU C ",
"/.f.9 B B.D.*X(.kX9.i._._.S.3XZ.B.E S.9.&.m.V.C.+.p.P.R C N p.zXbX#XM 8 i e 6XwXC.T.>X*XS.V.F.$XV.A.$XS.F.[.2XBXA.+.z.A.A.H._ q C.wXnX@XbXlX*XpXOXX.H.",
".Xj.6 l eXZ.q. .A.9.+.l.<XS.i.E b *.m.t.T.r.&XO.l.a.V.W W A -.X.#Xo.e N N e 5XE.v.m.C.c.e.c.c.m.c.t.t.e.t.C.$X&Xl.'.<XcX@X=XL u @XbX-XW.bX=X=XaXR.%XR.",
"dXd.: B *X'._.q.*Xr.i.&Xr.u.t.X.n P y.L.p.P.@Xr.x.y.n.&.Y.a.X.R.y.&.@.X.j j Q.>.>.;.| [ Z [ } } { { [ C Z { =.=.R H.U.=XP.m.r B H.L.H.L.l. .i.i.-.&.=.",
"F.6.& y P 1.B I d.u e q 7 n P t 4 w C R i X.R p E e r N E r R N 0 t 2 0 0 N i i p ] p r r r r 0 6 4 4 * * 3 8 7 4 3 4 5 4 4 3 I &XeX2X!.!.h.s.<.x.f.q.",
"- % @ s v d h z d 1 1 1 s k k H h k s.2.2.2.f.+X&XT 2.s.s.~ ~ ~ ~ H ~ 1.(.'.z.F 3 * + O O O X # & : - d z h l F G ! 2.s.!.(..XfXJXJXHXPXJXDXZXCXPXLXPX",
"x z 3.].q.'.BXBXXX_.:XXXxX_.BX:XL ~.PXvXZ.kXBXZXcXmXbXSXnXnXwXiXpXR.MXmX<XvXnXL.M.V n L J - l e.f.f.x.&X&X-X=X=X:X=X#XiXMXnX2XcXCX3X2XhXq.q.R A.A.'.CX",
"{.<XxX`.+.l.gX Xf.g.Z. XXX_.oXj.Y 1.eXn q.<XgX+Xl.<X-XP.B.2X2X3X#XR.uXOXA.S.y.*.7XH.L.t.r.j j.<X:X&X1X&X_.OXS.P.OX&.m.L.H.I.x.lXA.P.3X).O.W r.@.R -X~ ",
"/.dXxXd.6.'.Z.oXo.O.2X'.i.S.w.).! B O.q.1X'.:X_.A.lX&Xy.V.P.P.T.L.L.pXU.P.n.&.E.iX=XY.@XL.G g.R.L.$X@XC.C.T.*X@XS._.bX&X=XP.-XhXr.2XP.8.P +.9.+.N n j ",
"dXxXw.` (.XXD.Z.m l.2Xz.Z.B.7.l.b H iX1XVXVX2X1XmX,Xy.@XL.P.L.pX%XuX;XL.{ v.bXbXbX=X%X$XP.v $.=...T.P.*X{.eX,XlXvXcXgXcXZX@X,XOXhX2XOX5.A.u. .o.-.0 r ",
"/./.0.].'.(.Z.Z.i.D.[.i.q.l.Z.&X1.!.ZXGXVXgXhXZX3X9.v.%XC.E.0XiX%XuXaXB.[ uXpXiXnX,XP.C.&.b $.b.C.J.m.rX2X1XcXlX3X_.&XhXGXnX@Xx.cX_.q.u.z.Y +.I.B.P W ",
"].j.g.].`.q.O.'.q.w.i._.9.i.i.S.K .XJXVXl.B.S.).r.$.H.H.&.E.pXH.%X8XuXy.,XMX%Xy.L.L.C.&Xy.c '.rXrXtXT.L.C.r.*Xr.9.p.P.rXZX:X3X&XS.A.'.o.9.5.p.B.o.@.&.",
"/.dX0.i.z.`._.oXq.B.i.w._ b.C.n.b  XJXs.9._.i.@.B.B.U.J.T.uXK.H.8X*.R.%XiXbX=XR.uXy.A.L.t.M V.p.wXP.r.m.+.v.v.*.T.rX3XmX3X2X:XBXBXlX'._.1Xq.+XOXp.P.=X",
"_ <.8.Z.9.S g.'.w.B.B.%.V A.S.r._ VXjXU A.i.OX@XP.S *.Y.aXU.E.NXH.n.T.L.R.L.V.0X#XL.=Xp.&X8.p.2XiXcXlX@Xv.=XC.T.,Xi.A.GXBX&XgXGXgX'.6._.l.@X2XCX&X#X#X",
"g.o.P 6.O.%.g.6.0.B.q.) [.wXi.n.i.xXoX<.l.&X'.W A.w.U.T.wXW.SXbXy.C.T.uXH.%X%X%XA.=X&.OX@XK <XmXlXCX,XA.zXCX@X$X9.r.lXJXkX:XgXkX'.8.+.+X+XrXnXgX).2X=X",
"l.<.e.6.B._.q.w.w.l.9.D I v U 0.c z.(.~ Z.).o...OXZ.C.m.P.p.T.E.T.%XiXL.J.u.OXP.L.n.p.P.y.P nX@Xu.uX=X_.DXlXS.V.S.,XlXBX&X1X:XZ.).5.rXlX=XnXcX&.P.2X3X",
"g.<.B.i.1Xf.q.9.%.n.J = 9 b P L _ C.i.8.9.B.9.#.L.q...p.a.&.zXpXy.L.%XK.u.M P 7.R.L.#XL.a.A @XA.CXtX$.+.9.-XS.,XlX>XbX@XT.,Xq.A.f.x.mXS.rXrXC.,X,XT.P.",
"6.6.` ` ~ 5.6. .L 9 & ! .X.XXX2X_.` f 9 d s I T.@X*.n.+.&.=.uXP. .&.n.y.N -.#X=XJ.E @.i r M E A uXT.S S &.&.u.l.8.q.8.q j A b Y c &.p...B.t.C.OXf.P.o.",
": : : & * 9 ; 1 1 g /.KXJX4.2.xXgX`.(.!.<.w v j.<.b b f n m n 4 4 t r r M 7.a.p.7.8.z.].gXcXCXZXy.e G U W M q g 0 0 0 n Y 6.L G o.l.b 7.+.A m V c b H ",
"F z J K !.`.(..XD.2XgXKX!.c 3.xXjXdXVXxX`.h.s z x h G ~ ].&X_.g.q.).'.1XvXSXHXHXHXDXFXHXtXnXHXDXCXXX1XhX,XrX2X>X3X3X3X<XDXFXkX<XHXdXjXDXZXBXBXBXhX X'.",
"}.oXN.oXxXXX`.Z.`.VXGXj.' (.`.oXjX.XoX]. Xd.h FXwXwXwXLXSXSXnXpXz.DXiXHXbXbXDXbXnX@XuXR.iXHXZXL.=XnXHX,X,XzXnX=XS.wXS.B.1X'.<XoXJXGXHXHXHXGXGXAXhX~ @.",
"dXdX.X/.d.8.0.`.gXVX].<.!.1.U f.(.g.5.M P j f wXZ.b.xXVXcXCX&XC.z.kXOXnXSXnXnXmX=XbX=XuXDXbX=XrXnXzX=X,XbXnXDX&XzX{.Z.A.+X_.VXcXBXBXZXBXBXkX{.:X~.j u.",
"|.|.~ 0 8 e M 6.xXoXxXf.j e P q.Y K m P  .0 I tX_.:XhXZ.S.B.R b.z.:XC.nXSXDXSXmXwX8X%XbXwX=XP.$XR.R.=XSXeXzXvXeXBX1XXX(.B.:XAX!.7.7X@XC.S.F._ } L n P.",
"|.`.L w q.q.q.(.gX Xh.` P M ..V P  . .9.+.A k.ZX'.:X[.lXbXl.,XwXA.cXmXHXHXPXMXeXP.5X7XqXpXuXL.H.0XsXSXLXNXbXnX$X=X*X&Xl.2XCXB.L q { { i i w = u 7 M A ",
"` ~ G ` {.` (.BXAXgX_ i.+.b.r.9.u.i.9.+.+.S f.hXs.k k 8.k.f.2X&X~ :XCXlXlX&XB.l._.y.H.%XL.v.y.%X,Xp.p.(.Z.(.<.D K G H J s.H w g H z d s s 1 ^ ! 2.oX X",
"c q q 6 v 7 G ~ h.G K B f f f f f j q l ` 1.0.j = = j A A m Y z.!._._.).).z.Z.5.h./.lXzXzX>X<XHXSXCXj.m M q d h F H J ~ 6.j..XhXcXZXhXgX+X-X&X-X-Xl.p.",
"<.b z l H H g h F F 2.J z ^ 4.~.h.!.3.h.oX.XdX.X.X.XoXxX2XvXZXSXnXHXHXnX2XnXiXHXPXPXIXIXPXLXIXLXMXMXl.t.5X%XE.E.E.E.Y.B.p.A.'.:X1X<X_._._.OX+.p.P.@.l.",
"(./..XdXxXz 4.dX|..XxXxXxXkXj.oX].oXcX1XgXgXxXj.Z.P.ZXVXxXHXHXBXcXJXZXA &.P.y.uXPXHXDXNXNXsXMXaXaX0XU 6.sX8X8X%X=X*XU.p.A.B.x._.'.l.Z.&X).u.5.OX).A.OX",
"j ~ dXfX1X; 4.AXdXdXfXdXdXH D z.<.z.cXAXxX}.'.` ).cX2X2XHXZXvXBXlXDXz.9.%X#XL.;XNXMXsXU.Y.qXaX5X6XU.<.l.;X8XuX=XP.S.L.A.A.x.C.).q.l.B.A.z._.(.A.&.z.W ",
"H fXfX!. X9 4.].oXVXfX~.! v (.(.K i.D.gXGXKX|.<.:XcXcXcX1XBXvX*X3XA.o.A.R.=X@XY.E.7X7Xy.R.7X5XqXW.m.I Z.pXuX=XP.L.P.,X+XA.x.OXu.o.).3Xu.OXx.7.u.+Xf.u.",
"!.fXdX|.6.6 2.l.VX.X~.H 2.s.^.~ q.A.3XgXGXBXd.h._.<X1XgX<XeX&X@X&X7.7.V.L.Y.y.;XY.Y.8XL.%XpXqXW.U.*.I _.uXSXiX,XR.wXmXA.A.A.,Xu.7.3X_.u.p.7.7.).4Xz.l.",
"s.|.^.1.S 6 1.2XKX|.2.s.~.G s.8.5.Z.P.1XjX*X0.f.XX2X<X1XhXeXT.P.A.o.u.n.#XL.E.uX%X0XK.L.uX7XH.*.#.S j I.R.uXuX=XuXSX,X*XP.&X+Xu.+X&Xx.l.+Xq.l.4Xz.8.).",
"s.k.8.n M = ~.GXxX^.s.~ g j 5.U z.1X2XlXXX>X6.` q.eX&X[.>X1XS.&X1Xg.C.R.R.=XpX0XpX;X;XT.P.R.r.C i t r T.iXuXwX=XSXmXmX:X&XrXgX<XOXV._.u.OXu.'.z.f.z.).",
"^.~..X2.j.s ].lX`.h.h.H q M o.z.'.gXgX'.+.S.N.0.A.>X$XC.C.n._.rXZ.(.S.L.H.L.#XuXuXY.NXC.@Xo.r r j t E pXDXpX;XbXnXlX,X+XP.-X3X:XgXlX<X'.A.).!.f.z.].f.",
"4.|.~.h.6.d i.C._.`.h.G ` 7.A.'.'.&XB.(.).&Xm.O.0.c.] Z #.{ *.n.i.C.O.H.H.K.Y.Q.K.sXyX*.7.i R A i $.y.U.uXnXwXMXSXmXmX2X-XiXP.&XrXT.H.A.r.r.l.z.k.G q ",
"|.4.~.U S z $XH.*.9.<.U U b i.3XkX_.&X_.A.s.g 4 C p Q } } { } { p p [ Y N A @.M  .p.[ r 8 r i i $.n.b.>.,.Q.W.6X>.v.m.5.q.z./ N e e e w 7 7 0 g j <.d.",
"L 6.U 8 3 6 b V m e 3 * 4 8 Z K 8.0.7.r 6 # # 3 8 4 3 7 3 7 3 8 4 8 q 8 K P e e m r r q m  .9.V.[.}.wXqXY.[ a i C u i m m V D ` (.].|.`.^.|.dXoXvXBXxX",
"9 !.U ~ v j K L b f b I 0.B._.i.7.M c 9 w J <.<.g.Z.3.! j.(. X].'.*XS.D.S.pXD.e.*.@XrX&X[.{.vXHXSXHXMXMXPXGXZ.Z._.{.vXzXzXSXzXMXiX-X+XS.f.P.3XZXgX XgX",
"` .Xh.!.q.z.lXvXzXeXkXkXcXvXBXvXvXSXoXZ.zXvX1XoXzXaX=X*XwXwXi.P.pXiXwXrXvXHX<Xw.pXFXpXMXtXMXPXbXY.0XMXLXIXbX8XFXPXLXSXuXMXSXDXDXiX:Xl.7.5.V.x.(.1.8.Z.",
"`./.0.q.Z.(.DXBXBXAXlXBXGXAXGXcX2X*X+.` x.A.P.U.7X0XW.7XU.#.S S.8XnX,X%XiXaX$.L FX8XH.wXwXFXpXJ.8XNXHXPXMXuXzXFXbX8X=Xv.E.MXbX+XCXhXS.l.+.V.l.n G / 8.",
"N..XdX.X.X XAXjXAXJXxXGXGXAXGXBXB.S.B.P +.i.OXzXU.9XW.yX$XO.r.H.=X9.X.t.n.$X$.f Y.#XFXbX,X8XU.qXLXLXFXLXMXMXSXvXT.R.=X,X0XMXrX..nX1Xx.7.i.&.u.q.f.8.U "
};
