/* XPM */
static char *aac231748f844d82b15cd37730abe6d3wH4tGt38kTpPHaNg[] = {
/* columns rows colors chars-per-pixel */
"62 75 237 2 ",
"   c None",
".  c #010700",
"X  c #1B0000",
"o  c #031400",
"O  c #0A1401",
"+  c #031B01",
"@  c #0B1C03",
"#  c #141B06",
"$  c #2B0003",
"%  c #2A0307",
"&  c #33050B",
"*  c #37070C",
"=  c #340D11",
"-  c #3C0913",
";  c #3B1515",
":  c #2E130F",
">  c #042200",
",  c #0D2204",
"<  c #0B2C02",
"1  c #0E250A",
"2  c #0D2C0A",
"3  c #14250C",
"4  c #1A260E",
"5  c #152A0D",
"6  c #192B0E",
"7  c #132C05",
"8  c #0E3204",
"9  c #15340B",
"0  c #18360C",
"q  c #162611",
"w  c #152A10",
"e  c #1A2B12",
"r  c #1B2813",
"t  c #1B3413",
"y  c #1C3C13",
"u  c #193917",
"i  c #272915",
"p  c #223D1C",
"a  c #263917",
"s  c #253411",
"d  c #343A24",
"f  c #460305",
"g  c #570105",
"h  c #450E15",
"j  c #490E16",
"k  c #4A0F18",
"l  c #450D17",
"z  c #520D15",
"x  c #5D0B16",
"c  c #570A16",
"v  c #461016",
"b  c #4B1116",
"n  c #4D121A",
"m  c #441819",
"M  c #54121A",
"N  c #5C141D",
"B  c #57141A",
"V  c #41110F",
"C  c #650B14",
"Z  c #660B16",
"A  c #62141D",
"S  c #6C151D",
"D  c #64181F",
"F  c #6D181F",
"G  c #62000C",
"H  c #471E25",
"J  c #5A1A22",
"K  c #591822",
"L  c #641621",
"P  c #6C1621",
"I  c #641A23",
"U  c #6C1A22",
"Y  c #681D2A",
"T  c #711922",
"R  c #731A24",
"E  c #731825",
"W  c #442327",
"Q  c #532B2A",
"!  c #542D30",
"~  c #58383B",
"^  c #6B222C",
"/  c #63262A",
"(  c #73242C",
")  c #6D2932",
"_  c #782835",
"`  c #673539",
"'  c #763339",
"]  c #1D4315",
"[  c #1F461D",
"{  c #0F4400",
"}  c #224316",
"|  c #234B1A",
" . c #294D1C",
".. c #254817",
"X. c #2B541D",
"o. c #295719",
"O. c #305C1D",
"+. c #314818",
"@. c #33661F",
"#. c #2D611B",
"$. c #244422",
"%. c #254B24",
"&. c #2A4A26",
"*. c #364C29",
"=. c #2C5522",
"-. c #2D5922",
";. c #2B542B",
":. c #295629",
">. c #325B26",
",. c #2E5731",
"<. c #325D34",
"1. c #3C5A38",
"2. c #3C4C3A",
"3. c #366424",
"4. c #396C25",
"5. c #366738",
"6. c #326828",
"7. c #465C3C",
"8. c #585539",
"9. c #4E5035",
"0. c #48623F",
"q. c #65653E",
"w. c #783B44",
"e. c #693A42",
"r. c #3E7643",
"t. c #3C6D43",
"y. c #7C434A",
"u. c #775A5B",
"i. c #7D4F53",
"p. c #566648",
"a. c #447C4B",
"s. c #457748",
"d. c #52704C",
"f. c #66745B",
"g. c #686A4C",
"h. c #6A7963",
"j. c #7D666A",
"k. c #475545",
"l. c #872C3B",
"z. c #86333B",
"x. c #893437",
"c. c #964B3B",
"v. c #8A3542",
"b. c #983846",
"n. c #A53C4C",
"m. c #A63A4A",
"M. c #A83F51",
"N. c #82434C",
"B. c #8A4A54",
"V. c #91555D",
"C. c #915350",
"Z. c #AB4453",
"A. c #B94456",
"S. c #85774F",
"D. c #8E5A62",
"F. c #985862",
"G. c #99676C",
"H. c #9D6E74",
"J. c #986B74",
"K. c #9A7477",
"L. c #8E6870",
"P. c #A3747B",
"I. c #A77C7F",
"U. c #3E8049",
"Y. c #47844C",
"T. c #4C8454",
"R. c #4B8B54",
"E. c #478553",
"W. c #558B5C",
"Q. c #4E9058",
"!. c #509653",
"~. c #5A9965",
"^. c #7A8A75",
"/. c #709470",
"(. c #5BA46A",
"). c #5AA469",
"_. c #62A56D",
"`. c #65A973",
"'. c #66BB7B",
"]. c #6CBC7E",
"[. c #68B574",
"{. c #75BA7F",
"}. c #57A358",
"|. c #6CC47F",
" X c #82977A",
".X c #85886D",
"XX c #BC926E",
"oX c #BBA57D",
"OX c #CB8E6B",
"+X c #CFA377",
"@X c #EEAE77",
"#X c #CC8D5F",
"$X c #9F7B81",
"%X c #A47C84",
"&X c #B17F86",
"*X c #6EBC82",
"=X c #77B682",
"-X c #6DC583",
";X c #6BCB84",
":X c #74C988",
">X c #7AD793",
",X c #74D18B",
"<X c #948985",
"1X c #A58588",
"2X c #B3888E",
"3X c #B6979A",
"4X c #AD8D91",
"5X c #96A392",
"6X c #86A286",
"7X c #A3B69B",
"8X c #BEA881",
"9X c #AAACA4",
"0X c #A8B5A2",
"qX c #B7B4AC",
"wX c #D5B186",
"eX c #E6B588",
"rX c #F1B489",
"tX c #C5AAAC",
"yX c #CBB0B3",
"uX c #85DB99",
"iX c #88E69D",
"pX c #8AE9A5",
"aX c #8DF6AB",
"sX c #92F4AD",
"dX c #93F5AC",
"fX c #99FDB6",
"gX c #A0E0AD",
"hX c #E2C59C",
"jX c #FFD7AC",
"kX c #E4BEC4",
"lX c #AAFFCB",
"zX c #A6FFC8",
"xX c #B2FFDA",
"cX c #D4D6C8",
"vX c #D8E4D4",
"bX c #F8EEEF",
"nX c #EFDBDE",
/* pixels */
"                                                                                                                            ",
"                                                                        ) 1X                                                ",
"                                                                      K.g H.                                                ",
"                                            K.H.H.H.K.H.H.H.P.H.K.    K.g w.H.1X                                            ",
"                                            A C Z Z Z C C Z C C x     K.j L g _                                             ",
"                                            L A D L D S D D D D I     i.j L L w.                                            ",
"                                  H.g Z C C j h v j v v v h h j j x Z z v n M e.                                            ",
"                                  G.A U U I M b b v v b v M k v v L E M h n n `                                             ",
"                              y.S B j v h b P T A K b h B R U j v j j j v v v b U L                                         ",
"                              y.Z N h j j b U U J K n h B P D j v k v v j v h b U F                                         ",
"                              N.S N h M F D L K n v N F K z M L S P F B h v v b U F                                         ",
"                              N.Z B h B T F K K b j N E A l k U T T T B h j v n F F                                         ",
"                          J.J./ M b v M U S n n v h N T N v v B M M M N L M h b U S                                         ",
"                          Z C j - j v B T U j l v j N T N j b j j l j N E L h n T F                                         ",
"                          ( E z h j l B T D v v v h N T N h b v l v j N E A h v N N 2X                                      ",
"                          U P M j j h B R P j v j j A R A j v v v b h N R A j j j h c f                                     ",
"                          U P M l k n B P L j v M z N P N j v v v v j N R A l v v v w.w.                                    ",
"                          U P M l A R N j j v j I T B j j j v v v h j N R K j b j j                                         ",
"                          U T M h N E A j v v j L R B v h v v j v v j N T A l v v j                                         ",
"                          ( T M h j M j v j v v k n b l v v v v v v j j M b v v j v ' '                                     ",
"                          A C z h j j j v v j v l v v v v v v v k v v v h v l v v j x g                                     ",
"                              ' A M ; v j v v l l l k v v v j v j v v v l j v b I J                                         ",
"                              w.G z ; k k v v v j j h h j v h j v h k h j h h j C C                                         ",
"                                I.` c M b b v j B B B N M v j j v N N n j M B / H.P.                                        ",
"                                  I.Z D - V j j A S U R A V h j h A P z * z Z '     ' f                                     ",
"                                  P.x ) e.~ k c ( x.( F ^ ( Q c M ( x.` ` e.v.F.    G.'                                     ",
"                                  P.g G.    U S OXeXC.G c.@X#XP F OX+X                                                      ",
"                                  %Xg G.    ^ U XXwXc.x c.@X#XU D OX+X                                                      ",
"                                                9.i a i i *.+.i i a 4 9X                                                    ",
"                                                2.+ 3 @ 7 y u 1 # 3 O 9X                                                    ",
"                                        d.f.h.f.a @ s.=XT.0 =.`.`.&.1 7.h.f.f.^.                                            ",
"                                      9X. O 5 8 5 o `.xX]., =.fXzX&.O 2 9 1 . r                                             ",
"                                    7X XT.a.y u ,.t.a.`.Q.5.s.~.~.s.1.%.9 ,.E.W.7X7X                                        ",
"                                   X{ !.zXpXw 1 (.>X1.. :.>X`.+ o (.>Xt.o d.lXiXo.o.vX                                      ",
"                                vX/.} Y.aX:Xw w E.(.t.p 5.(.Q.%.&.R.(.<.O t.sX,X>.X.0XcX                                    ",
"                              d.#...@ ;.|.).q q 5 @ a.,XR.8 | [.].u # e @ ,.-X).5 2 @.o.0X                                  ",
"                              d.#. .3 <.*X~.u e e 1 a.:XR.t %.'.'.$.q w 2 <.*X~.t w >.o.0X                                  ",
"                              0.8 }.sX_.5 %.uXuX&.+ ~.fX_.@ $.pXsX&.o ~.sX_.5 ;.uXuX6.< 0X                                  ",
"                              7.> `.lX`.O &.sXfX,.O `.zX'.O %.dXsX,.o `.lX`.O $.aXfX6., 0X                                  ",
"                              0.8 ~.>XW.@ p -X-X&.+ W.>XW.@ [ -X:X$.@ R.>XQ.# [ ;X:X,.8 0X                                  ",
"                              7.> Y.,XR.@ p ].*X$.O a.,XE.o t '.*X$.O Y.,XR.@ p *X'.$.+ qX                                  ",
"                          5X5XW.R.R.!.5.# u s.a. .] 5.Y.a.T.Y.Y.a.%.y 5.T.<.3 t R.!.R.R./.5X                                ",
"                          0 < uXlX}.o.o.4 3 @ , -.4.| > a.zXiX0 9 #.4.y @ 3 3 t #.#.iXzXY.+ h.                              ",
"                        qX| ] [.uXY.o...3 5 e 6 o.3.o.0 s.aX:X] ] O.@.a 3 6 q e X.X.[.iXa.7 d.                              ",
"                      , y y ] o.@.] 3 5 q w 4 3 X.4.| 9 5.|.).y 0 O.4.y 3 6 4 5 5 5 o.@.[ ] ] < ,.                          ",
"                    0Xs ..y y -.3.a 3 5 5 5 6 5 o.3.o.y 5.].).[ ] O.3.} 5 6 5 w 5 5 -.3...y ] ] 7.                          ",
"                 Xu f.hXoX6 5 5 9 5 w q 3 t O.@.s , ~.dX(.] 6.uXiX:.1 | 3.| 4 4 5 e 5 5 0 9 q.hX+X*.*.                      ",
"                ^.@ g.jXwX6 4 4 3 5 4 w 3 6 3.3.t O (.zX[.< :.dXfX*.@  .4. ., 4 q 3 5 5 y 9 g.jXwXy 0                       ",
"                 X8 q.eXXXe e y u t 3 u o.| ..} t # R.>XQ.y :.|.-X&.3 p ..| o. .w w t y s 7 8.eXoX} ]                       ",
"                /.+ 8.eXXX0 5 y ] w O u 4.3.] y , o s.>XR.< | '.*Xu o t y | 4.>., @ y ] e , 8.rXXX8 <                       ",
"                  ^..XS.g.i : d d 7.a.<...} t t s.W.a.a.r.r.r.U.a.T.W.,.9 y  . .s.s.p 9 t 5 *.S.S. X^.                      ",
"                    qX> 7 m m ` ~ /.sX~.O 3 4 3 uXlXR.> 5.,X[.u 0 >XlXa.@ w O y uXuX%.@ 0 } u > *.                          ",
"                      p.p.m V ! ! f.=XW.&.%.6 4 *XsXa.7 ,.~.E.y y -XaXt.@ u &.,./._.%.t u t &.p.h.                          ",
"                          n j m ; Q ~ p.-X_.7 3 ~.-X5., 2 1 1 w 5 ~.;X5.O 5.:X_.1 @ -.6.} o h.                              ",
"                          V V m m Q ~ p.-X`.i 4 ~.=X1.# r 4 4 4 6 W.{.7.# 1.'.~.u t -.@.} @ f.                              ",
"                      e &.} } m M m - u.bXcXB.x.' ) m : = : = = = / ` ' b.` w &.uXpX>.y y u p a k.                          ",
"                      o @ 0 9 : - ; $ u.  nXb.m._ ^ n & * - * & * Y ^ v.M.) @ $.fXfX;.< 9 9 5 o d                           ",
"                                    H.K.1XK.m.b.K l / l.^ - l w.' M h _ m.z.Q ! 9.9.9X                                      ",
"                                      4Xu.B.m.Z.k % _ A._ X & M.Z.b $ _ A.x.R Y % %                                         ",
"                                    V.F.C.C.^ ^ l & Y l.B.<XL.v.l.v * J ^ _ l.l.K K                                         ",
"                                  $Xc l.m.v.& % = & K L K.    _ ^ - & & $ K Z.b._ ^                                         ",
"                                  %XL v.m.b.- - n K J M L.    / J K K j & J m.b._ ^                                         ",
"                                  %Xx l.n.b.- & v.Z.Y X u.    & & v.Z./ % J m.b.E ^                                         ",
"                                  %XY v.b.v.= & v.M.) = j.    W m v.n.I & I b.v.' e.                                        ",
"                                      3X& l = - ^ E               B.E K = = - Q                                             ",
"                                        X & & & J N               y.Y v % & % W                                             ",
"                                        K.1XtXtX2X%X              3X&X3XyX3X$X4X                                            ",
"                                                                    yXnXbXbXyX                                              ",
"                                        D.G.&X&XJ.D.              %XD.P.2XP.F.P.                                            ",
"                                        N E x x P c               w.N A x L P w.                                            ",
"                                      1XK / V.F.B.w.              J.v.V.F.v.K `                                             ",
"                                  j.X % & K                         tXkXbX4X$ * % $                                         ",
"                                    ; W H ~                         qX    4X; W H W                                         ",
"                                                                                                                            ",
"                                                                                                                            "
};
