/* XPM */
static char *_dad8b4996d2462adf232c4d67b0cab2oZPTNHMvBOKhrBTq[] = {
/* columns rows colors chars-per-pixel */
"49 74 237 2 ",
"   c None",
".  c #34060D",
"X  c #35090E",
"o  c #3B0A0F",
"O  c #2F0C11",
"+  c #350A11",
"@  c #3A0A12",
"#  c #381616",
"$  c #2E1C12",
"%  c #12260B",
"&  c #142A0D",
"*  c #1A2C0F",
"=  c #1B350F",
"-  c #182A11",
";  c #1B3413",
":  c #1C3C13",
">  c #1C3C17",
",  c #0F2207",
"<  c #282613",
"1  c #332514",
"2  c #332913",
"3  c #223C15",
"4  c #233D1B",
"5  c #283213",
"6  c #1F192F",
"7  c #31192A",
"8  c #1D242A",
"9  c #262534",
"0  c #2D2936",
"q  c #460E15",
"w  c #4A0D15",
"e  c #4B0E18",
"r  c #451315",
"t  c #4A1116",
"y  c #4D1119",
"u  c #491B1C",
"i  c #441717",
"p  c #53131C",
"a  c #5B141C",
"s  c #54181B",
"d  c #4C0B13",
"f  c #62151E",
"g  c #69161F",
"h  c #6A181F",
"j  c #690F1C",
"k  c #41331E",
"l  c #4C1A25",
"z  c #551A23",
"x  c #5B1A23",
"c  c #561722",
"v  c #631621",
"b  c #641B25",
"n  c #6C1A23",
"m  c #651E29",
"M  c #691F29",
"N  c #6D1621",
"B  c #721923",
"V  c #721721",
"C  c #4C2925",
"Z  c #5A2328",
"A  c #583929",
"S  c #523432",
"D  c #64232B",
"F  c #6D222D",
"G  c #602B29",
"H  c #71232E",
"J  c #762326",
"K  c #6D2632",
"L  c #6B2932",
"P  c #662933",
"I  c #722431",
"U  c #7E2B36",
"Y  c #752834",
"T  c #783837",
"R  c #6B3532",
"E  c #1F4316",
"W  c #24441B",
"Q  c #244819",
"!  c #2A571C",
"~  c #335F1F",
"^  c #3A4A1F",
"/  c #31631E",
"(  c #294A25",
")  c #3B4A25",
"_  c #2C562A",
"`  c #375727",
"'  c #345A36",
"]  c #2B4F30",
"[  c #356224",
"{  c #376829",
"}  c #356636",
"|  c #3C7637",
" . c #4B4535",
".. c #5B5B37",
"X. c #4D4930",
"o. c #7B482C",
"O. c #5B6338",
"+. c #40783B",
"@. c #626238",
"#. c #793B44",
"$. c #6E3E47",
"%. c #5D3B40",
"&. c #3C6D42",
"*. c #3E7545",
"=. c #6B464A",
"-. c #77575A",
";. c #744C51",
":. c #457A4A",
">. c #4B7E52",
",. c #5B7B50",
"<. c #686B4F",
"1. c #776364",
"2. c #5C4244",
"3. c #8F0B13",
"4. c #B61E32",
"5. c #852C39",
"6. c #8A2E3C",
"7. c #812C36",
"8. c #88383A",
"9. c #AB2E37",
"0. c #AB070D",
"q. c #D3283B",
"w. c #C12337",
"e. c #D01D37",
"r. c #895835",
"t. c #864F34",
"y. c #8C3744",
"u. c #953442",
"i. c #9D3947",
"p. c #9E3948",
"a. c #9D3646",
"s. c #A23A49",
"d. c #A13847",
"f. c #BD3D40",
"g. c #C53946",
"h. c #874A53",
"j. c #89565C",
"k. c #904752",
"l. c #A74A55",
"z. c #986B52",
"x. c #A86654",
"c. c #AB7D59",
"v. c #AD6F4E",
"b. c #895D64",
"n. c #915962",
"m. c #B05D65",
"M. c #896669",
"N. c #98666B",
"B. c #906E73",
"V. c #A56A74",
"C. c #A6767B",
"Z. c #B47367",
"A. c #CC5064",
"S. c #CC746B",
"D. c #D46259",
"F. c #488547",
"G. c #4D8954",
"H. c #539559",
"J. c #4F8F52",
"K. c #6A8B5C",
"L. c #599965",
"P. c #6C996D",
"I. c #5DA566",
"U. c #63A969",
"Y. c #63AC72",
"T. c #69B578",
"R. c #6BB875",
"E. c #5AA05B",
"W. c #8D8D6F",
"Q. c #B68963",
"!. c #A8986D",
"~. c #B69770",
"^. c #8AAB7E",
"/. c #AC966D",
"(. c #C58C73",
"). c #CB9A77",
"_. c #D29D76",
"`. c #D59A77",
"'. c #DA8B73",
"]. c #E19F71",
"[. c #CBA37A",
"{. c #D2A57B",
"}. c #DAAB7E",
"|. c #D7A376",
" X c #E7A56F",
".X c #E5A373",
"XX c #937981",
"oX c #B97C85",
"OX c #A97C82",
"+X c #77BE86",
"@X c #72C384",
"#X c #77CA8B",
"$X c #7BCC90",
"%X c #77D08C",
"&X c #BB8B92",
"*X c #BB9498",
"=X c #AA8A8D",
"-X c #A9A89E",
";X c #D79983",
":X c #C69799",
">X c #C9898C",
",X c #CBA883",
"<X c #D6AB83",
"1X c #DCAC83",
"2X c #DFAF8A",
"3X c #D9B58F",
"4X c #E3B58C",
"5X c #EEBD94",
"6X c #E8B794",
"7X c #E1AD89",
"8X c #C5A8AB",
"9X c #D7B9BC",
"0X c #D9AFAA",
"qX c #E7AEB4",
"wX c #D19AA0",
"eX c #95CA94",
"rX c #ADD8A9",
"tX c #91F4AB",
"yX c #8FF2AA",
"uX c #8AEA9D",
"iX c #EDC296",
"pX c #EEC39A",
"aX c #F1C49C",
"sX c #F4C89D",
"dX c #CFC4B9",
"fX c #E9CEB6",
"gX c #C6E9BB",
"hX c #DFBDC4",
"jX c #DCCACD",
"kX c #E5C9CC",
"lX c #ECD4D5",
"zX c #F1D5D8",
"xX c #F2CECB",
"cX c #D5F7CA",
"vX c #F9E8D6",
"bX c #FDE6E8",
"nX c #FBFAFA",
/* pixels */
"                                                                                                  ",
"                                                                                                  ",
"                                                                                                  ",
"                                                                                                  ",
"                                                                                                  ",
"                                                                                                  ",
"                                    n                                                             ",
"                                  b b                                                             ",
"                              F n v c       n n B n n n n n n D                                   ",
"                              m N c p Z   x a f f v N N f f f v                                   ",
"                              x c p w a n a t w r a N v w q w y n n n F                           ",
"                              z p p p c f s q y p p v a r e p p a f f v                           ",
"                          D n a q c V a w w d p V f w w q p V g t q w t n n                       ",
"                          F N c q a V f t w p a f a t t p a g a r t p s n n                       ",
"                          M N a e a V v s f h f r t a x n g a p q d n n h n                       ",
"                          M n a y M 7.T o.8.8.t.R R T 8.8.T K P p p f g g a                       ",
"                          F V h h y.V.S.[._.`._._._._._._.(.m.l.B f t t w p b D                   ",
"                          M V 7.8.x.S.(.<X}.}.}.}.}.}.}.<X_.Z.Z.t.U p t r t h n                   ",
"                      b n n h x.`.7XaXpXaXiXpXiXiXiXiXiXpXpXpX6X`.Z.B f w e h n                   ",
"                        n b g x.}.<X<X<X}.4XpXpXaXiXpX5X<X<X<X<X.X(.J g w p n n                   ",
"                          i r V.iXQ.r.r.r.Q.pXpXaXiXaX[.r.r.r.z.aX,XB g t y h n                   ",
"                          u q x.iXQ.z.r.o.c.pXpXiXiXaX).o.r.r.Q.4X).J g t t h n                   ",
"                      D n p q t.v.[.fXN.l z.pXpXiXaXaX~.C ;.dX3Xv.r.B h t t n n                   ",
"                        b s p t.Q.,XkXC.f x.pXpXiXaXaX).h k.kX3XQ.v.n f p y b D                   ",
"                          m v x.).pXvX>X4.S.pXiXpXpXaX'.9.m.vXxX|.Q.s p g b                       ",
"                            n x.'.4XvX;Xg.S.aXpXpXpXaX;Xg.S.xXsX'.v.s p b m                       ",
"                      D n     g.q.D.,X2X6X6XaX5XaXiXaX5X6X7X1X'.q.e.V b                           ",
"                        n       q.D.{.2X5X5X5X5X5X5X5X5XiX4X}.S.q.w.B M                           ",
"                                        }.|..X X X X X X|.,X                                      ",
"                                        {.|.].]. X X X|.|.,X                                      ",
"                                            :X0XqXqXwX:X                                          ",
"                                            :X0XzXqX:X:X                                          ",
"                                : 3 4 1 e h.:X9XbXkX:XV.r # 3 : : 4                               ",
"                              ` Q E : 1 q ;.&X8XlXhX&XN.r # 3 3 Q (                               ",
"                            [ Y.uX:.% ; 5 C Z #.N.h.D C 2 5 * ' $X@X{ {                           ",
"                          ` ! Y.yX>.% = = 1 w P n.#.w # 3 : % ' yX%X{ [                           ",
"                        [ E ; G.@X&.% & - $ w j.kX=Xd # * * % ( @XI.> > ` [                       ",
"                      [ / E ; :.T.&.; ; % $ d b.bX&Xd # * * ; ] I.L.4 > / [                       ",
"                      Q E L.$X*.( G.$X>.; 1 w R V.h.d i ; } #XY.( } @XY.! W                       ",
"                      W E T.tXG., L.tXL.: 1 d K j.T e i ; &.yX@X- ] yX$XQ 3                       ",
"                      4 : H.@X&., *.%XF.> k 5.V.hX>Xy.P : } @XL.- ( @XY.Q 4                       ",
"                      ( E G.R.| & *.T.*.: S a.&XbX8Xa.T : _ Y.H.; ( Y.L.Q W                       ",
"                    W I.@XJ.| F.L.&.] Q 3 A a.l.C.m.p.T 3 W ( } H.J.| F.@XR._ W                   ",
"                  4 3 Y.tXH./ J.T.&.% ; E A a.k.k.k.p.$.3 ; % ( Y.I.{ | uX%X( 3                   ",
"                W E E | J.H.U.:.( :.U.+.! k h n.hXoXm l 8 6 9 0 ] &.I.I.J.F.E E W 4               ",
"              W E E : ! [ E.#X:.% ,.#XJ.~ k d M.bX*Xe @ 6 6 0 9 % ( @XR.{ ! Q E 3 4               ",
"            ( W.!.!.!.O.Q ` ' >.L.J.F...X.Z f h.OXn.m l 6 7 3.N 8 9 ' ' E ` !.!.!.!.X.W           ",
"          3 W ~.sXpXpX@.: * % G.%XJ.~ X.H F F T h.#.K Z 6 l 0.3.0 9 8 & E ^ 3XiXsX3X` >           ",
"          3 W !.<X}.1X@.: Q ! { F.K.W.=X8X*XOXB.-.M.OX=X8XXXl j j T =X=XW ) [.7X7X[.) >           ",
"          4 3 Q.{.{.[...= ! [ / [ K.0XkXbXkX8X=X1.XX8X9XbX8X6 7 3.k.jXrX( ^ ~.{.|.~.) 3           ",
"              @.@.O.O.~ ! F.I.| ( =.h.V.oXn.=.%.S S 2.-.oXn.l $.:X>XM.-.X.X...@.@.@.              ",
"              4 : : : ! ~ I.$X:.4 C B 5.s.H + + + + . c a.u.I j.nXjXC u S S 4 > : E               ",
"                  E = K.eXeXrX<.$ z M 6.d.K @ + + + + c d.u.H #.M.-.u i C C k )                   ",
"                  : E -XcXgXgX1.. c I 6.s.I . + + + + x a.u.I v X X r r r u R 2.                  ",
"                ) P.eXrXgX^.K...c I y.5.5.b @ @ + + + e 5.5.u.U a u 2 2 # i C C                   ",
"              4 4 eXcXgXgX,.= C B 6.a.y.I c + + + @ + e H U a.u.J G E 5 i r r i                   ",
"                           .< Z H 6.d.U p v K c @ e I M p M a.u.I G 1 <     j.M.M.                ",
"                          + X z H 6.s.H + m p.Y + x s.7.X c p.u.H m @ @     :X*XM.1.              ",
"                          l s I y.I M c + c u.Y   D y.M + e F I 5.U x z                           ",
"                          P K u.s.m + . + p F K     I x + + + y a.u.I K                           ",
"                          K F 6.s.M + c M b c z     z x F x + c i.u.Y L                           ",
"                          L F 6.s.b . M s.K + #     + s p.7.@ p i.a.H L                           ",
"                              Y I c . b y.K #         Z 6.Y @ r F K Y                             ",
"                              # . . . p K P             F x . . X O                               ",
"                              -.=.-.M.b.n.b.            n.b.M.b.;.;.                              ",
"                              8X8XjXbXkX8X              8X9XbXzX8X8X                              ",
"                              B.M.&XqX&XB.M.            M.OXqX:XB.B.                              ",
"                              # . 6.A.y.. O             + v A.l.@ O                               ",
"                              D I 5.a.y.-.-.            ;.h.a.u.I K                               ",
"                          O + y.A.7.+ B.lXkX            zX*X@ x A.s.@ +                           ",
"                            # y.A.U # B.lX              zX*X# z A.l.#                             ",
"                                                                                                  ",
"                                                                                                  ",
"                                                            M D                                   "
};
