/* XPM */
static char *_813aae16c6047cfcdcd0720686fa9716y8rEohnbBLfI3kX[] = {
/* columns rows colors chars-per-pixel */
"60 75 219 2 ",
"   c None",
".  c #360A0F",
"X  c #3A080F",
"o  c #350B11",
"O  c #3B0A11",
"+  c #3A0F1B",
"@  c #2B1318",
"#  c #3B131B",
"$  c #3C1518",
"%  c #2C1615",
"&  c #152A0C",
"*  c #15270B",
"=  c #18380E",
"-  c #1A2C18",
";  c #1B3413",
":  c #1C3C13",
">  c #1E3A1A",
",  c #163213",
"<  c #2B2615",
"1  c #223D13",
"2  c #243D1B",
"3  c #293718",
"4  c #3D3A1B",
"5  c #1A192B",
"6  c #1C2726",
"7  c #3E3525",
"8  c #262337",
"9  c #3B3938",
"0  c #450E15",
"q  c #4A0F16",
"w  c #4C0F18",
"e  c #470F18",
"r  c #461116",
"t  c #4B1017",
"y  c #4C1219",
"u  c #48181C",
"i  c #53121B",
"p  c #5C141C",
"a  c #51141A",
"s  c #530F1C",
"d  c #63161E",
"f  c #69161F",
"g  c #69181E",
"h  c #7C121F",
"j  c #42341F",
"k  c #491A25",
"l  c #591A23",
"z  c #661621",
"x  c #6B1721",
"c  c #641C25",
"v  c #6C1A23",
"b  c #641D29",
"n  c #6B1F29",
"m  c #701923",
"M  c #761122",
"N  c #4C2628",
"B  c #522326",
"V  c #522D2D",
"C  c #582A2A",
"Z  c #552C32",
"A  c #5A3B3A",
"S  c #573636",
"D  c #4F382C",
"F  c #64212A",
"G  c #6C212D",
"H  c #692326",
"J  c #75252B",
"K  c #613529",
"L  c #6C2531",
"P  c #662A33",
"I  c #752532",
"U  c #782A33",
"Y  c #633639",
"T  c #763839",
"R  c #763A2A",
"E  c #1F4217",
"W  c #23411E",
"Q  c #264618",
"!  c #37451C",
"~  c #2B531C",
"^  c #2D581E",
"/  c #335D1F",
"(  c #31571F",
")  c #33601F",
"_  c #254423",
"`  c #294A26",
"'  c #364325",
"]  c #2A5524",
"[  c #2C5B2B",
"{  c #2C552A",
"}  c #375A24",
"|  c #355B35",
" . c #354E31",
".. c #376225",
"X. c #376638",
"o. c #4C4631",
"O. c #7B4A36",
"+. c #4C6733",
"@. c #3A2849",
"#. c #333C41",
"$. c #7C3E49",
"%. c #4E3E51",
"&. c #3F7443",
"*. c #3F6F41",
"=. c #5B4041",
"-. c #4D544D",
";. c #674B47",
":. c #744849",
">. c #6F5153",
",. c #437848",
"<. c #4B7B51",
"1. c #596F54",
"2. c #6A7151",
"3. c #765C61",
"4. c #6E7E66",
"5. c #90080B",
"6. c #852E3A",
"7. c #87343B",
"8. c #8E222D",
"9. c #AF2931",
"0. c #845130",
"q. c #983846",
"w. c #AA3D4F",
"e. c #9C5848",
"r. c #864C55",
"t. c #8F4F50",
"y. c #A74855",
"u. c #BE485A",
"i. c #8A6F52",
"p. c #A76858",
"a. c #A56B4F",
"s. c #B25362",
"d. c #927779",
"f. c #8E736E",
"g. c #B3686F",
"h. c #C24F5D",
"j. c #C5586A",
"k. c #D25F73",
"l. c #CE5267",
"z. c #CE6F6F",
"x. c #538A5B",
"c. c #4C8555",
"v. c #748A5E",
"b. c #589B64",
"n. c #7A9276",
"m. c #6C8F6B",
"M. c #5CA36A",
"N. c #5EA56A",
"B. c #5EB074",
"V. c #67AC73",
"C. c #67B679",
"Z. c #69AE76",
"A. c #988974",
"S. c #9F9569",
"D. c #BE8677",
"F. c #AD9B76",
"G. c #B08D71",
"H. c #C49676",
"J. c #D5967B",
"K. c #D58E7C",
"L. c #CBA278",
"P. c #D3A176",
"I. c #D3A279",
"U. c #D37485",
"Y. c #72BF84",
"T. c #78C58B",
"R. c #7CD393",
"E. c #9D8D86",
"W. c #B8999C",
"Q. c #B18F88",
"!. c #AFAE9D",
"~. c #B99DA1",
"^. c #BBA8A5",
"/. c #B7B0A3",
"(. c #BEB5B3",
"). c #C2989B",
"_. c #C8968A",
"`. c #DDAE84",
"'. c #D7A789",
"]. c #DAB389",
"[. c #DAB89F",
"{. c #CEA890",
"}. c #E1B58B",
"|. c #E2AE94",
" X c #E5B693",
".X c #E5AB8A",
"XX c #C29DA4",
"oX c #C5A2A7",
"OX c #C8B4AF",
"+X c #D7B9A8",
"@X c #CDAFB3",
"#X c #E1BCA2",
"$X c #ECB4BB",
"%X c #E3A6AC",
"&X c #85DD9B",
"*X c #81D396",
"=X c #87E89E",
"-X c #96FAB3",
";X c #8EE9A5",
":X c #EEC59A",
">X c #F1C59C",
",X c #D6C5B4",
"<X c #F1CDA9",
"1X c #D8BCC0",
"2X c #EDBCC2",
"3X c #D9D1CD",
"4X c #E6C4C9",
"5X c #EACED2",
"6X c #F3CED4",
"7X c #EBD2D5",
"8X c #E1D1D1",
"9X c #F5D3D8",
"0X c #F5CECB",
"qX c #D8E8DE",
"wX c #FBE6D2",
"eX c #FBDFE3",
"rX c #FEE6EA",
"tX c #FBE5E6",
"yX c #FAFBF9",
/* pixels */
"                                                                                                                        ",
"                                                                                                                        ",
"                                                                                                                        ",
"                                                                                                                        ",
"                                                                                                                        ",
"                                                                                                                        ",
"                                                                                                                        ",
"                                                                                                                        ",
"                                                    c v v v v v v v v v v v                                             ",
"                                                    z f f f f f f f f v f z                                             ",
"                                            n v v z q w t t q q q w r q w q l v           n F                           ",
"                                            v g v d q q y y y s w w y y y y p g           z H                           ",
"                                        n v v d t q r y x x x x x x x v x x i w p m m m z t y                           ",
"                                        v x x z r r t t f f v x x x x x f v p q p v f x p t u                           ",
"                                        v f t y 0 y x d t t t t t t w t w t d x p t y w p f c                           ",
"                                        z p y a y a v f t r r r t w t r r 0 p v p t q q a n F                           ",
"                                        w P t.t.U U i t q t t t z z y r 0 q q w p x i 0 u                               ",
"                                        y T g.s.t.R t q q r 0 t z x i 0 r r r q p m p q u                               ",
"                                        G.H.|.|.`.D.g d q r 0 t z x i 0 t r p z p t p z b                               ",
"                                        J.`.>X:X:XP.J g q r r t x f i e r 0 d x p r p m n                               ",
"                                        P.`.:XI.a.a.O.R t e r w f x i r r r t i t 0 p g n                               ",
"                                        P.`.>XI.0.0.0.O.y e r t g x i r 0 r t r 0 q p v n                               ",
"                                        P.}.>XH.K 0.Q.G.u y p d p i q 0 t r r t i d f m n                               ",
"                                        P.].>XD.p :.,XoXB t x g w 0 r r 0 r r q p m m f n                               ",
"                                        I.`.>XK.8.y.0X,XB q x f y q r r r 0 i p l   n v n                               ",
"                                        I.`.>XJ.9.l.wX,XB q f f s 0 r r r q z v       v H                               ",
"                                        I.`.:X.Xz.J.<X[.H g p.p.H p p p p p l                                           ",
"                                        P.].:X>X:X:X:X'.J 6. X X7.f g h v v                                             ",
"                                          ].].}.].}.}.I.e.a.I.}.p.0.J v G                                               ",
"                                            L.P.P.P.P.J.I.I.P.J.I.P.7.g                                                 ",
"                                            {.]. X|.'.'.#X#X#X+X'.'.t.d                                                 ",
"                                                0X$XW.oXeXrXrXeXoX).                                                    ",
"                                                9X4X).W./././.!.A.A.                                                    ",
"                                            ) v.tX7XXXE.' E > : ^ +.                                                    ",
"                                            ~ 2.$XOXA.f.1 : [ [ ~ ~                                                     ",
"                                            = o.r.:.+.} & > M.M.W & ^ ..                                                ",
"                                            3 o.f.i.} ~ & > B.Y._ * ~ [                                                 ",
"                                        ..! 0 :.eXOXW : & 2 R.;X` * : E                                                 ",
"                                        / 4 i >.3X!.W : _ | T.T.| 2 : :                                                 ",
"                                        E j H K +...& ` R.R.{ _ b.N.[ :                                                 ",
"                                        E 4 J K ( ~ * ` &XR.> , M.C.[ :                                                 ",
"                                        : D q.T Q : * W C.C.> > T.=XX.:                                                 ",
"                                        : D q.T : : , ` M.b._ _ T.&XX.:                                                 ",
"                                        : 4 I K : ] M.x._ [ T.T.X.` E E                                                 ",
"                                        2 7 F C 1 ] V.b.; 2 *X&X` & ; 1                                                 ",
"                                        6 8 @.9 / [ [ ] : 1 [ [ ] ~ ; &                                                 ",
"                                        5 8 @.#.} ] 1 Q 2 1 & & ^ ..: -                                                 ",
"                                    2 6 5 k h F 9 -.F.F.F.S./ ~ 1 E b.Y.,.:                                             ",
"                                  2 1 < 5 i 5.5.@.%.#X<X<X}.+.) = ; T.;X,.1                                             ",
"                                    : +.F.r.w p M $.3.f.I.L...~ ,.c.,.,.b.C.                                            ",
"                                    1 2.<XG.5 k 5.5.@.%.H.G.! E N.C.` * C.-X                                            ",
"                                      2.2.o.@ + s s p q.OX,XZ.M.,.X.,.<.<.<.| `                                         ",
"                                        : < X @ 5 + 5.9.3XqX-X;X_ & b.C.{ * , :                                         ",
"                                          < . % 6 D D.D.d.d.n.m._ ; X.,.W & X.b.                                        ",
"                                            o < , 1.yXqXN $ S A 2 E = = & & V.-X                                        ",
"                                            . $ D ;.E.d.V N Z N 7 7 v.n. .& ,.N.x.                                      ",
"                                            o l q.6.X + A A u u S =.3XyX1.: : : : E W                                   ",
"                                            X k q.I O + Y K N B V A Q.(.4.> 2 _ 2 _                                     ",
"                                            o e G b O 0 n L Y A u r D =.                                                ",
"                                            O t L l o 0 n L Y S N N V S                                                 ",
"                                            o t I b X + G I G L Y o.N r r $                                             ",
"                                            o u G n p l b c G I T T u r C Y o.                                          ",
"                                                n I q.6.0 + b I q.q.y o f.).:.y V =.                                    ",
"                                                r.r.q.U e y l b U q.l o d.^.:.u V =.                                    ",
"                                                yXOX+ e F b + X 0 O                                                     ",
"                                                yX3XN Z $.$.Z Z k N                                                     ",
"                                                rX7X~.^.5X7X7X5X^.~.7XrX                                                ",
"                                                6X2X~.~.4X5X6X6X~.W.5XrX                                                ",
"                                            L q.k.s.k k N Y j.j.P N                                                     ",
"                                            L q.l.y.0 X + i u.j.l #                                                     ",
"                                        o I u.k.$X).# l w.u.%X$X%X@X                                                    ",
"                                        o I h.U.6XXX# k u.k.2X6X9X9X                                                    ",
"                                                                                                                        ",
"                                                                                                                        ",
"                                                                                                                        "
};
