/* XPM */
static char *_31aac87c8df4135e67717b70738484dPwSlUzQWFgj4sc2P[] = {
/* columns rows colors chars-per-pixel */
"75 75 222 2 ",
"   c None",
".  c #0C0708",
"X  c #130C0D",
"o  c #170C0B",
"O  c #161212",
"+  c #1B1414",
"@  c #1D1A19",
"#  c #1C1718",
"$  c #211719",
"%  c #241C1D",
"&  c #291D1E",
"*  c #291415",
"=  c #351B18",
"-  c #3E2119",
";  c #2C201C",
":  c #2B1E21",
">  c #231F20",
",  c #252324",
"<  c #2B2425",
"1  c #292629",
"2  c #2C2A2C",
"3  c #2E2827",
"4  c #312326",
"5  c #35262A",
"6  c #312C2D",
"7  c #3A2A2D",
"8  c #392425",
"9  c #312F31",
"0  c #3D2D31",
"q  c #353334",
"w  c #383636",
"e  c #393738",
"r  c #3D3B3B",
"t  c #3A3D34",
"y  c #312F30",
"u  c #411F1F",
"i  c #44231C",
"p  c #4D2A1D",
"a  c #492826",
"s  c #542C22",
"d  c #542D2B",
"f  c #5A2D2B",
"g  c #502625",
"h  c #47322D",
"j  c #5A3122",
"k  c #58302E",
"l  c #452E35",
"z  c #433235",
"x  c #4B3632",
"c  c #493539",
"v  c #413D3D",
"b  c #4C3B3A",
"n  c #483638",
"m  c #583733",
"M  c #64362B",
"N  c #733E2D",
"B  c #683636",
"V  c #7C3D3B",
"C  c #753937",
"Z  c #622F2D",
"A  c #3F4038",
"S  c #48413F",
"D  c #5A423B",
"F  c #78422F",
"G  c #674437",
"H  c #7B4232",
"J  c #7A4637",
"K  c #6F402F",
"L  c #413F40",
"P  c #4C3A42",
"I  c #503C45",
"U  c #454344",
"Y  c #494546",
"T  c #4C4A44",
"R  c #494748",
"E  c #4B4949",
"W  c #554948",
"Q  c #57544D",
"!  c #555252",
"~  c #5C5455",
"^  c #5B5956",
"/  c #5D4651",
"(  c #674D44",
")  c #6A4B5A",
"_  c #634854",
"`  c #645A55",
"'  c #665A59",
"]  c #72504D",
"[  c #5D6656",
"{  c #5E6658",
"}  c #67675C",
"|  c #65725C",
" . c #72615B",
".. c #785B68",
"X. c #6E6B6B",
"o. c #686564",
"O. c #756969",
"+. c #6B7663",
"@. c #7D7B7B",
"#. c #757273",
"$. c #78726F",
"%. c #803F3D",
"&. c #84433C",
"*. c #874938",
"=. c #924C3E",
"-. c #8B523D",
";. c #9C553C",
":. c #93533C",
">. c #80452F",
",. c #A55A3E",
"<. c #A3583F",
"1. c #995641",
"2. c #8D5647",
"3. c #A55A41",
"4. c #AC5D42",
"5. c #A25741",
"6. c #B26143",
"7. c #A96D4B",
"8. c #896677",
"9. c #837A79",
"0. c #8E6E72",
"q. c #B67776",
"w. c #896749",
"e. c #C74F7F",
"r. c #7B856F",
"t. c #88857A",
"y. c #859870",
"u. c #879576",
"i. c #94857A",
"p. c #91A27C",
"a. c #D29E6D",
"s. c #C98A70",
"d. c #D4A16F",
"f. c #997084",
"g. c #A4768D",
"h. c #AE7D95",
"j. c #C85483",
"k. c #D5799A",
"l. c #D06991",
"z. c #858484",
"x. c #8D8B8B",
"c. c #8C8584",
"v. c #938F8C",
"b. c #958A87",
"n. c #989589",
"m. c #9C9A9A",
"M. c #969394",
"N. c #A9988B",
"B. c #B6859D",
"V. c #A69E9B",
"C. c #B09296",
"Z. c #94A181",
"A. c #9CA989",
"S. c #A9A59B",
"D. c #B8A69B",
"F. c #ABB897",
"G. c #A8B794",
"H. c #BB86A1",
"J. c #BD88A3",
"K. c #A5A4A4",
"L. c #ADABAC",
"P. c #A8A9A6",
"I. c #B6ABA5",
"U. c #B3B3B3",
"Y. c #BBBBBB",
"T. c #B8B8B7",
"R. c #B0B8A1",
"E. c #C8958E",
"W. c #C8AA9D",
"Q. c #C48CA8",
"!. c #C792AD",
"~. c #CD98B2",
"^. c #D498B7",
"/. c #D984A2",
"(. c #E78FB7",
"). c #EA9CBE",
"_. c #C9B6A7",
"`. c #D4BEAD",
"'. c #C5BDB8",
"]. c #CEAEA8",
"[. c #B9C5A4",
"{. c #C7C5B3",
"}. c #CCC8BB",
"|. c #D3C5BC",
" X c #DDC4B6",
".X c #C4CFAF",
"XX c #E5CDB9",
"oX c #E6A6C5",
"OX c #EBBDD0",
"+X c #FEB6DB",
"@X c #FCBBDB",
"#X c #EEB0CA",
"$X c #C5C5C4",
"%X c #CBCACA",
"&X c #C9C8C7",
"*X c #D7CEC7",
"=X c #D9D5C6",
"-X c #D3D3D3",
";X c #DDDCDC",
":X c #E7D7CA",
">X c #EDC2D1",
",X c #F4C8D9",
"<X c #F6DBD8",
"1X c #EDDCD0",
"2X c #F5E5DC",
"3X c #FDEBDC",
"4X c #F7E5D8",
"5X c #EFE3D7",
"6X c #E4E4E4",
"7X c #EBEBEB",
"8X c #FDEFE4",
"9X c #FDEFE4",
"0X c #FBE6E1",
"qX c #FEF0E5",
"wX c #F4F4F4",
"eX c #FBFBFB",
"rX c #F9F9F9",
"tX c #FCFCFC",
"yX c #FFFFFF",
"uX c #FDFDFD",
"iX c #FBF6F8",
"pX c #F6EFF3",
/* pixels */
"                                                                                                                                                      ",
"                                                                                                                                                      ",
"                                                                                                                                                      ",
"                                                                                                                                                      ",
"                                                                                                                                                      ",
"                                                                                                                                                      ",
"                                                                  eXeXeXtXtXtXtXuXuXuX                                                                ",
"                                                              eXtXeXeXeXeXeXeXeXeXeXuXtXtX                                                            ",
"                                                          rXuXuX7Xz.X.X.X.X.X.X.X.X.@.;XuXuXeX                                                        ",
"                                                      eXtXuX-XK.v.q # @ @ @ @ @ @ @ 2 @.K.&XuXtXtX                                                    ",
"                                                  eXuXwX-X&X#.@ % r U U U U U R U U U , @ ^ $X%XwXtXtX                                                ",
"                                                tXwXwX%XE 1 q r L R R T R R R R R R R L r w 1 e T.pXwXtXeX                                            ",
"                                              tXeXm.T U q 9 r R E R L r r r r r r r R R R U 9 9 U U z.wXuXeX                                          ",
"                                          eXtXrXm.E , 1 U R E R L L r e e e e e e e r U U R R R 2 , v x.7XuXeX                                        ",
"                                        eXtX7XL.r 9 T R R R R L w q 9 9 9 9 9 9 q e e e r R R R R R w q m.7XtXtX                                      ",
"                                        tXwXL.w e R R R R U r e 9 1 1 1 1 , 1 1 2 q q q e r R R R R U q 3 m.7XtXeX                                    ",
"                                        tXU.w r U R R R U q 9 9 1 q q q q q q q 2 1 1 1 q e A Y R Y q > q q x.wXeX                                    ",
"                                      tXtXm.# r R U r L U 9 1 2 q w w e w w e e q 9 9 9 2 2 w r r 1 P 8.5 1 L x.7XuX                                  ",
"                                    eXtXT.} 2 U U q q L R 2 1 9 w w q 1 1 2 1 1 2 9 w w 9 9 y q < I h.~.: 9 , ! 7XtX                                  ",
"                                    tXeXX.@ U U e 9 q R U 9 9 q 9 9 E ` ` ` ` ` ` ! q 9 q q 2 , X _ h.0.9 e > ! 7XtX                                  ",
"                                  eXrX6Xo.> L e 9 e R U r w q w r S N.XXXXXXXXXXXXW.T r t 0 2 O . # 7 7 e U 1 E -XtXtX                                ",
"                                  uX6Xo.9 e e 2 r U U e w w 9 [ W.{.1X3X3X3XqX3X3X5X X_.O.q q 3 X ) Q.g.5 e U e E ;XtX                                ",
"                                  tX6XL > e 2 e U U r w w 9 ` W.4X4X3XqXqXqXqX3XqXqX4X4X_.O.6 q 2 z _ I q L E 9 1 -XtX                                ",
"                                  tX6XU @ 9 2 R R r w w q ` W.4X3XqXqXqX3XqXqXqXqXqXqX3X3X_.O.w q 1 O > L E E 9 2 -XtXtX                              ",
"                                tXwXU.v , 9 2 U U r 9 q Q W.4XqXqXqXqX9X9X9X9X9X8X8X8X8X8X3X`.} e 9 q e r L R w 6 K.7XtX                              ",
"                                tX%Xq w r 9 2 U r 9 2 ! ].4XqXqXqX3X9X9X9XqX9XqX8X8X8X8X8X8X4X X} 9 2 q 2 q L R r 2 L.tX                              ",
"                                tX$X@ w L 9 2 U r 3 ! _.4X9X8X8XqX9X9X9X9X9X9X9X8X8X8X8X8X8X9X3X`.' 2 9 1 9 L R S # K.tX                              ",
"                                tX$X% q e 9 r U r 5 ` :X9X8X8X8XqXqX9XqXqX9XqX9X8X8X8X8X8X8X8X9X1X9.1 e 9 2 q U r @ K.tX                              ",
"                                tX$X> w q 9 R R e Q N.1X3XqX8XqXqXqXqX9X9XqX9X9X8X8X8XqXqXqX8X8X4XD.` q q 1 2 r r @ P.tX                              ",
"                                tX$X% q q q U U 7 9.XX*X2X:X|.&X*X2X9X9X9X9XqX9X8X8X9X*X|.|.*X2XXXXXN.y q 1 2 L r @ K.tX                              ",
"                                tX$X, q q q U e 6 i.W.9.{.t.~ ~ O.:XqX9X9X9X9X9X8XqX5Xz.~ ' #.|.t.I.I.y q 2 9 r r @ P.tX                              ",
"                                tX$X% w q 9 U e 2 b.1XR.9.B.!.!.~.2XqX9XqX9XqX9X8XqX2X^.!.!.H.$.I.:XI.q q 2 2 r r @ P.tX                              ",
"                                uX$X> w q 9 U e 2 v.*Xv.V.oX+X+X,X0X8X8X8X8X8X8XqXqX9X,X+X+X#XV.v.|.I.2 q 1 2 r r @ K.uX                              ",
"                              eXtX$X> q q 9 U e 2 n.|.n.:X#X(.^.).<X8X9X8X8X8X8XqXqX2XoX(.(.oX<XC.'.I.9 q 9 9 e e @ P.uXuX                            ",
"                              tX7Xm., e e 9 U e 2 v.9X0X3X/.j.e.l.<X9X9X8X8X8X8XqXqX5Xk.j.j.l.<X9X8XI.9 q U q 2 9 , z.6XtX                            ",
"                            eXtXK.q r R q 9 U e 3 b.2X8X0X/.j.j.l.<X9X9X8X8X8X8XqXqX<X/.j.j.k.<XqX0XS.2 q U e 2 e e 2 x.eXeX                          ",
"                            tXtXv.@ L R q 9 U e 1 L b.2XqX1X>X>X>X0X8X8X9X9X9X9XqXqX3X,X>XOX<XqX9XV.E 1 w U q 1 w r O #.wXtXeX                        ",
"                          tXeXL.! 9 U L 9 9 U e 9 1 o.5X:X}.*X=X}.{.{.{.{.{.{.{.{.{.{.{.*X=X}.=X5Xt.1 2 w U e 1 w w 2 E m.wXtXeX                      ",
"                        tXeXU.! 2 U r e 2 9 U w w 2 o.=X.XG.G.R.Z.Z.Z.p.Z.p.n.p.Z.Z.Z.Z.F.F.A.[.=X@.1 w e U q 2 q w L 9 U P.7XtX                      ",
"                      tXwXY.U 9 R L 2 q 2 q U r w 2 Q [.[.p.A.G.y.y.y.y.y.y.y.y.y.y.y.y.A.G.p.R.[.+.3 e e L q 2 w e U Y q q %XtX                      ",
"                      tX%XU t Y R r 1 q 2 q U U r 2 T n.Z.r.u.u.+.| | | | | | | | | | | u.x.r.Z.Z.^ 3 r L q 9 q w e U E q 1 %XtX                      ",
"                      tXY.& K ` L 9 9 w q 9 q U r q r { u.+.r.r.{ { [ [ [ [ [ [ [ [ { { r.r.| u.o.L q t U 9 2 w w e v T 9 3 %XtX                      ",
"                      tXY.; *.1.D 1 q w q y 2 U r e e v { } | ^ t Y T A ! S.L.^ t T T t Q [ Q } U e e v ( z 2 w e e U Q m 3 %XtX                      ",
"                      tX-X` F ;.-.n q w e y 6 W v w e w W W t % @ 7 3 0 #.7XeXb.z 4 y @ @ 2 9 w x v v G J h q w q e W 2.>.5 %XtX                      ",
"                      tXeX-X! N ;.:.S t e 6 7 :.G r w D :.h + # 0 z + ) OXpXiX,X8.+ z z & O , z m m G 2.h y q t v D -.,.F S -XuX                      ",
"                        tXtX-Xo.M ,.;.D w y h ,.5.M x 1.&.& % 7 n z $ ..@X@X,X@X0.$ 7 n l % $ m x m *.;.h q t D ;.1.,.N Q %XwXuX                      ",
"                          tXtX&X$.j ,.:.b h -.,.1.m h &.i & & & 7 ; Q A.|.`.|.|.I.| & 7 < $ = = d C 2.3.J S D ;.6.4.N ` T.rXtX                        ",
"                          tXtXY.} j ,.F M -.4.;.&.h 8 = & 7 % o 7 O  ._.}.D.&XW._.P.@ 5 $ + 0 & 8 Z =.6.6.-.G F 6.,.i #.tXtXuX                        ",
"                        tXiX$X~ g &.=.* p ;.<.*.%.a # $ 7 7 & & l o C E. Xq.`.E.E.R.% 5 : # 0 0 $ - V 6.6.6.j i ,.<.s ' %XeXtX                        ",
"                      tXeX%XW d C %.C = . p ,.&.V u + 0 l + & z 7 + w.d.a.a.a.a.d.7.+ 5 c : O 0 l $ i 4.6.,.j p <.*.V g ~ -XeXeX                      ",
"                      tX%XW k C %.V %.*.i i <.&.V - + c c $ $ c 0 + b.W.q.XXq.~.].2.o 7 c : X l x * i ,.,.j j ;.,.%.%.C d ! -XtX                      ",
"                      tXY.% Z V %.V %.5.F p j *.2.Z ] D.V.w $ c 0 X L I l ~ l E I * . 5 c : < N.D.0.*.6.,.= j 6.,.*.%.%.f 3 %XtX                      ",
"                      tXY.& Z %.%.%.=.4.N u g *.1.%.2.b.c.P 4 l 5 _ ) ) ) ) ) ) ) ) _ 7 0 5 0 t.W.s.6.,.F p p >.4.&.%.%.f 4 %XtX                      ",
"                      tX%XE k C %.&.6.6.s = C &.5.%.g * X 6 c 4 $ f.J.H.H.J.H.H.H.Q.g.5 : l 7 + *.6.,.F = f i i <.=.%.%.f < %XtX                      ",
"                      tXeX%XW d C *.4.6.p * V &.5.j = f o 4 c 4 X 4 : : > @ 5 7 5 0 4 X : c 7 X M 1.*.= M C u i <.4.=.C f v -XtX                      ",
"                        tXrX$X~ a &.4.6.p = &.;.4.j = Z o 4 c 4 $ 8.c ! f.: f.Q.h.h.g.4 > c 7 X f 1.<.*.%.u s :.4.=.%.s Y U.wXtX                      ",
"                          tXtX$X' j 3.6.*.s s ;.M  .O.= . 4 c 4 : !.h.f.@.x...!.+X@XoXl > P 7 . * H 6.6.&.* j 4.=.%.g _ L.rXuX                        ",
"                            tXtXY.` F <.*.G ` B ` U.%X! + 5 c 4 : ^.+Xh...M.X.8.Q.+XoXl $ P 7 X U G *.=.f W ( N C f W P.eXuX                          ",
"                              tXuX%XW J G t.&X} }.eXtX%X3 & 7 % : ^.+XoXf.e Y.x...^.^.l O 7 : # U.v.x k Y Y.M.n f S U.tXtX                            ",
"                                tXeX&X~ c.6XwX6XwXtXtX-Xq . O @ 5 Q.oXf.: q Y.6XM.) Q.l . $ # # Y.7XM.Y '.wXwXV.I Y.wXtX                              ",
"                                  tXeX%X6XtXtXtXtX  tXwXY.r ^ U.K./ z #.U.P.o.Y.6Xm.P o o.T.v.q Y.tX7X%XwXtXtX7X%XwXtX                                ",
"                                    tXtXtXtX          tXiXL.@.@.X.6 @ R #.@.z.@.@.o.: > ^ @.@.x.;XtXtXtXtX  tXtXtXtX                                  ",
"                                                        tXtXL.r # X.f.U # o.-XM.9 > #.9.w @ @.6XtXtX                                                  ",
"                                                          tXtXK.9 L.-X#.L ;XeXrXx.q '.-X^ ^ 7XtXtX                                                    ",
"                                                            tXU.2 W ' w ! 7XtXtXm.1 / ~ 6 o.iXuX                                                      ",
"                                                            tX7Xm.3 X ~ $XwXtXtX;Xv.& + #.%XuXeX                                                      ",
"                                                            tXtXwXv.@.Y.tXtX  tXtX6Xz.@.%XtXtX                                                        ",
"                                                              tXtXtXtXtXtX      tXtXtXtXtXtX                                                          ",
"                                                                                                                                                      ",
"                                                                                                                                                      ",
"                                                                                                                                                      ",
"                                                                                                                                                      ",
"                                                                                                                                                      ",
"                                                                                                                                                      ",
"                                                                                                                                                      "
};
