/* XPM */
static char *_035444b637548fabc01969d7a40c71cc5PCDlcnlFA5k7dy[] = {
/* columns rows colors chars-per-pixel */
"56 75 225 2 ",
"   c None",
".  c #33070D",
"X  c #35090E",
"o  c #38080E",
"O  c #33110E",
"+  c #350B12",
"@  c #3B0B13",
"#  c #321215",
"$  c #3A1717",
"%  c #13250B",
"&  c #152A0D",
"*  c #1C3B0F",
"=  c #15310F",
"-  c #192C12",
";  c #1A3413",
":  c #1C3D13",
">  c #183613",
",  c #0C2006",
"<  c #3A2A19",
"1  c #203D12",
"2  c #233E1B",
"3  c #293717",
"4  c #333B1A",
"5  c #35351A",
"6  c #272F14",
"7  c #3E3B21",
"8  c #253F20",
"9  c #121E08",
"0  c #460E15",
"q  c #4A0F16",
"w  c #4A0F18",
"e  c #460F18",
"r  c #461016",
"t  c #4B1116",
"y  c #441219",
"u  c #4C121A",
"i  c #4E1817",
"p  c #54121A",
"a  c #5B141C",
"s  c #57181B",
"d  c #570C17",
"f  c #63161E",
"g  c #6A171F",
"h  c #69191F",
"j  c #71181F",
"k  c #4A211F",
"l  c #5C1C24",
"z  c #581822",
"x  c #471B22",
"c  c #631620",
"v  c #6B1721",
"b  c #631C24",
"n  c #6C1A23",
"m  c #651E29",
"M  c #691F2B",
"N  c #721722",
"B  c #711922",
"V  c #5D2326",
"C  c #523133",
"Z  c #65232C",
"A  c #6C232C",
"S  c #682A2C",
"D  c #71232E",
"F  c #79232A",
"G  c #6E2630",
"H  c #6F2930",
"J  c #762834",
"K  c #6C3434",
"L  c #6E3A29",
"P  c #1C4215",
"I  c #1D4418",
"U  c #244D16",
"Y  c #23431D",
"T  c #244B1A",
"R  c #274518",
"E  c #324B1C",
"W  c #37471D",
"Q  c #2B561B",
"!  c #35551E",
"~  c #34621E",
"^  c #244522",
"/  c #294825",
"(  c #354A29",
")  c #2C522B",
"_  c #2B5624",
"`  c #365B26",
"'  c #335C35",
"]  c #395736",
"[  c #2E5B33",
"{  c #336421",
"}  c #386528",
"|  c #38673A",
" . c #366936",
".. c #45562B",
"X. c #56562F",
"o. c #7F5029",
"O. c #446A32",
"+. c #576636",
"@. c #59703A",
"#. c #446629",
"$. c #6B683C",
"%. c #7A3B43",
"&. c #3E6E43",
"*. c #3E7440",
"=. c #765255",
"-. c #437648",
";. c #4B7E53",
":. c #54734C",
">. c #676848",
",. c #736E43",
"<. c #76754D",
"1. c #747065",
"2. c #861725",
"3. c #892C3B",
"4. c #88353C",
"5. c #8F222C",
"6. c #B72B39",
"7. c #D21F38",
"8. c #845331",
"9. c #9F613D",
"0. c #8E3B42",
"q. c #943443",
"w. c #993945",
"e. c #A23949",
"r. c #D62D48",
"t. c #944F4C",
"y. c #BE4047",
"u. c #8F734F",
"i. c #A66557",
"p. c #A97A53",
"a. c #AD704A",
"s. c #AA5D68",
"d. c #8A6869",
"f. c #917576",
"g. c #AB706D",
"h. c #C4475B",
"j. c #C34A4B",
"k. c #C95A6C",
"l. c #CE4E65",
"z. c #D16576",
"x. c #C86071",
"c. c #4B8B54",
"v. c #4B8454",
"b. c #528C5A",
"n. c #52925C",
"m. c #48874F",
"M. c #569562",
"N. c #5B9B68",
"B. c #5DA86D",
"V. c #61A16A",
"C. c #63AA72",
"Z. c #68B77A",
"A. c #6AC27E",
"S. c #B6855A",
"D. c #979066",
"F. c #BB8568",
"G. c #B6946C",
"H. c #AD8667",
"J. c #918055",
"K. c #C59072",
"L. c #D3A276",
"P. c #D3A47A",
"I. c #D9AA7E",
"U. c #CAA377",
"Y. c #AD7E84",
"T. c #6FBB81",
"R. c #76CC8B",
"E. c #77C98A",
"W. c #75CE8D",
"Q. c #A78986",
"!. c #B6979B",
"~. c #AD918F",
"^. c #B6AA8B",
"/. c #B89DA1",
"(. c #A7B4A3",
"). c #CE9E86",
"_. c #C3979C",
"`. c #DA9F98",
"'. c #CCA487",
"]. c #D2A682",
"[. c #D9AB81",
"{. c #D7A98A",
"}. c #DEB084",
"|. c #DBB38C",
" X c #D9AB94",
".X c #D5B290",
"XX c #E8A588",
"oX c #E1B18B",
"OX c #E4B592",
"+X c #E3BB93",
"@X c #EABC96",
"#X c #E2AD97",
"$X c #D19DA5",
"%X c #C3AAAD",
"&X c #D5B3B8",
"*X c #D3A9B0",
"=X c #E1A5AE",
"-X c #E9B0B8",
";X c #81D996",
":X c #8BECA5",
">X c #8DF1A8",
",X c #92F4AD",
"<X c #97FAB3",
"1X c #91EBA7",
"2X c #DFC096",
"3X c #EEC39A",
"4X c #ECC296",
"5X c #F1C49A",
"6X c #F2C69C",
"7X c #D3C5B1",
"8X c #ECCAA6",
"9X c #F4DBBF",
"0X c #E8CFB9",
"qX c #E8BFC6",
"wX c #DDC7C7",
"eX c #E9C9CC",
"rX c #F6C4CA",
"tX c #F5CBD1",
"yX c #E5CFCA",
"uX c #FCEEDA",
"iX c #FCE3E5",
"pX c #FDE6EA",
"aX c #FFEAED",
"sX c white",
"dX c #E5F6EF",
/* pixels */
"                                                                                                                ",
"                                                                                                                ",
"                                        M n n n n n n n n n n j n Z                                             ",
"                                        v h f g g g g g g g g g b V                                             ",
"                      m m           n b p t t w r t t t t t t r w s B B n M                                     ",
"                      n m           n v q r w w t t w t 0 w t 0 w p n j B B                                     ",
"                      p p b D A F l p d f f f f f f f f f f f p r t p d n N n A                                 ",
"                      w w v j j B f r w v N n N B B B B B B B s r r 0 w v N N v                                 ",
"                      z a a a a a a a a a a a a a a a a a a a s a t t t p a h j                                 ",
"                      n N d y y 0 p N v w w 0 w y y 0 0 w r w f j f 0 r r 0 f j                                 ",
"                      A M u 0 u t s f f t r t p p p p p p 0 r s n s s Z Z Z Z f                                 ",
"                          y 0 a N f t t w w f B v v B v v t r r w s 4.t.s.s.Z t                                 ",
"                          u t a N a r r t w f g g g g g g d t i l L t.t.g.s.H s                                 ",
"                          b g a t t r u c g a w w p t r p f h g.{.{.|.OX@X@XK.K.                                ",
"                          n B a w 0 w t g n p 0 r r w r w g j K.6X3X3X3X@X@XoXP.                                ",
"                          n g a r t f f p p f f p w t a j g.K.H.p.p.p.S.@X6X[.L.                                ",
"                          M j a 0 p B n w 0 f j a 0 d v F {.6Xp.o.o.8.u.+X5X[.L.                                ",
"                          n j f d a a a w w f B a 0 p v F K.L.G.H.i.L 8.OX5X[.L.                                ",
"                          n g j j c r w w q f B a 0 d g j 9.a.'.0XQ.i K OX5X[.L.                                ",
"                          M j n B b p t q 0 a g a p d 2.5.a.S..XyXQ.n 4.OX5X[.L.                                ",
"                          h j       n v t r t r a m 2.7.7.XX4X9XuX`.6.r.OX5X[.L.                                ",
"                          A n       n n t t r r s F 5.r.r.oX6X9XuX`.6.y.OX3X[.L.                                ",
"                                        f h g f i.]. XyXyX8X4X6X8X@XoXoX4X3XI.L.                                ",
"                                        n n j j i.6X0XdXdX0X5X6X5X5X5X6X3X4XI.P.                                ",
"                                            A g i.oXoX7X7X|.oXI.oXI.I.oXI.}.                                    ",
"                                            A g t.L.L.L.L.P.L.L.L.L.L.L.L.I.                                    ",
"                                              b i.].].].].].P.'.P.'.#X#X{.'.                                    ",
"                                                  _._.        _._.=XrXtX                                        ",
"                                                  ~.Q.        !._.*XtXtX                                        ",
"                                                  O.` : : R P f._.&XpXyXO.{                                     ",
"                                                  { ! I P * 1 1.!.&XiX7XO.~                                     ",
"                                              } T ; _ n.c.^ - ..>.<.g.d.E R                                     ",
"                                            } { Y % / Z.B.^ & T ~ X.t.=.6 :                                     ",
"                                            / Q : % ) W.R./ % : U >._.Q.< < (                                   ",
"                                            2 : ; % [ :X:X^ % > * 1.aX&XV t W ~                                 ",
"                                            2 : ^ ) &.T.T.&.' ^ > :.7X(.V s W !                                 ",
"                                            Y : *.Z.n.> 8 W.>X;., R } ..S A 4 :                                 ",
"                                            2 : *.E.M.- ; W.>X&.% P ! ` H G 4 :                                 ",
"                                            Y > b.:XT.- > B.E.| % ; P W 0.q.7 :                                 ",
"                                            2 > n.,XE.> > M.Z.' % ; : 4 w.w.7 :                                 ",
"                                            2 : ) &.v.C.C.&.[ -.c.| P 4 J J 4 1                                 ",
"                                            2 : - % ' ,X:X^ , ;.A.c.: 3 S S 5 P                                 ",
"                                            3 > : 1 ` N.M.^ = | m.| U W V s 4 U                                 ",
"                                            & % R { _ & % ; : : * U ~ ! t r W ~                                 ",
"                                            ] ) ) _ Q * : ` ........Q E i s X.@.$.                              ",
"                                        2 I Z.:Xb.& * _ } U.4X4X2XD.R 3 Z A H.U.,.: 2                           ",
"                                        ^ T Z.>XM.; R ` #..X4X4X3XD.P 4 S K G.I.,.: R                           ",
"                                        W.E.-.) b.R.B.T E G.I.P.I.J.1 R =.=.'.@X<.: R                           ",
"                                        <X>X| , b.<XE.I U G.L.L.P.u.* / 1.1..X6Xu.: 2                           ",
"                                    / ( -.v.N.N.b.;.b.B.V.>.$.$.$.+.Q E C C >.<.>.                              ",
"                                    : : % & T.<XM.9 [ >X:X[ * * * I { ! . . 6 :                                 ",
"                                    -.*.6 - b.Z.-.& ) C.C._ : _  .{ Q R # + 6 2                                 ",
"                                    ,XW.8 % > : : : : P P : P c.A.m.P ; # @                                     ",
"                                    ;XE.I & ( ..( 3 3 4 4 3 3 :.B.:.4 5 O @                                     ",
"                                2 Y / / 1 2 (.dXf.w l 4.4.H S k $ V 0.4.@ +                                     ",
"                                1 P : : : 2 (.  K p v w.w.J D u . l w.4.0 #                                     ",
"                                            C z M 3.3.q.J D D z + i J J @ +                                     ",
"                                            u d D e.q.D D G M u + u A m @ +                                     ",
"                                            y q D e.q.D D D G u + u G m @ @                                     ",
"                                            # + M e.q.D D D G u . u A m @ +                                     ",
"                                            # o M e.q.D A m l z p b G G $ #                                     ",
"                                            # + M e.q.D A 0 o J w.3.A G                                         ",
"                                            # # M q.q.v m 0 @ J w.3.G G                                         ",
"                                                  e w @ 0 b Z z y x                                             ",
"                                                  + @ @ @ M J u + #                                             ",
"                                              pX/.f.f.!.!.%X%XQ.d.~.aX                                          ",
"                                            pXpXeX%X&XaXdXsXsXwX%XqXpXaX                                        ",
"                                              aX!.d.f.=X=X/.~.Y.d.Y.=X=X                                        ",
"                                                  . f l.r.z . + . M l.e.J Z                                     ",
"                                                  Z %.z.g.J z @ . %.z.k.q.3.                                    ",
"                                                  qXqXqXqXx.h.M . =.qX-Xl.y.V +                                 ",
"                                                  eXtXtXqXz.l.G . t.tXqXk.k.l +                                 ",
"                                                                                                                ",
"                                                                                                                ",
"                                                                                                                "
};
