/* XPM */
static char *result[] = {
/* columns rows colors chars-per-pixel */
"75 75 48 1 ",
"  c #262A44",
". c #262B44",
"X c #272B44",
"o c #262B45",
"O c #2F3653",
"+ c #303754",
"@ c #313956",
"# c #3D4762",
"$ c #3A4464",
"% c #3A4465",
"& c #3B4465",
"* c #3A4565",
"= c #404B6C",
"- c #444F6F",
"; c #485474",
": c #4A5676",
"> c #4A5776",
", c #4C5978",
"< c #53617F",
"1 c #58637C",
"2 c #5A6986",
"3 c #5A6887",
"4 c #5A6987",
"5 c #5B6987",
"6 c #5E6B88",
"7 c #626E8C",
"8 c #626F8C",
"9 c #677491",
"0 c #707F9B",
"q c #72829D",
"w c #7585A0",
"e c #808EA7",
"r c #8D9AB1",
"t c #8B9AB4",
"y c #8A9BB4",
"u c #8B9BB4",
"i c #8B9BB5",
"p c #97A6BD",
"a c #A2B0C6",
"s c #A3B0C6",
"d c #A3B1C6",
"f c #A3B0C7",
"g c #A5B3C8",
"h c #A8B6CA",
"j c #C0CADC",
"k c #C0CBDC",
"l c #C1CBDC",
"z c #C0CBDD",
/* pixels */
"......%%%%%%%%%...@%%%uuuuuuuuuuuuuuu8%%%%%%%%%%%*%%%...O%%%uuuuuuuuu%%%X..",
"..o...%%%%%%%%%X..@%%%uuuuuuuuuuuutuu8%%%%%%%%%%%%%%%...O%%$uuuuuuuuu&%%...",
"......%%%%%%%%%...@%%%uiuuuuuuyuuuuuu8%%%%%%%%%%%%%%%...O%%%uuuuuuutu%%%...",
"...%%%uuuuuuuuu...@%%%444uuuuuuuuu444:%%%444zkkkkkuuu4440uuukkkkjkuuiuuu%%%",
"...%%%uuuuuuuuu...@%%%444uiuuuuuiu444:%%%444kkkkkkuut4440uuukjkkkkuuuuuu%%%",
"...%%%uuuuuuuuu...@*%%444uuuuuuuuu445>%&%444kkkkkkuuu4440uuikkzkkkuuuuui%%%",
"%%%uuukkkkkkuuu444#...%%%444444424%%%%%%%uuuuuuuuuuuu4440yuuuuuuuuuuuuuu%%%",
"%*%uuikkkkkkuuu444#...%%%445444444*%%%%%%uuuuuuuuuuuu4440uuuuuuuuuuuuuui%%%",
"%%%uuukkkkkkuuu444#...%%%444444444%%%%%%%uuuuuuuuuuuu2440uuuuuuuuuuuuuuu%%%",
"%*%uuuuuuutuuuu444;%%%...%%%%$%%%%...+%%%uuuuuuuuu444%%%;444444444444%%%%%%",
"%%%uuuuuuutiuuu444;%%%...%%%%%%%%%...+%&%uuuuuuuuu444%%%;444444444544%%%%%%",
"%%%uuuuuuuuuuuu444;%%%..X%%%%%%%%%...+%%%uuuiuuuuu444%%%;434444444444%%%%%%",
"%%%444uuuuuuuuu444;%%%444uuuuuuuuuuuu1...%%%444444%%%%%%%%%%%%%%%%%%%%%%...",
"%%%444utuuuuyuu444;%%%444uiuuuuuuuuuu1...%%%444444%%*%&%%&%%%%%%%%%%%%%%...",
"%%%444uuuuuuuuu442;%%%444uuuuuuuuuuuu1...%%%444444%%*%%%$%%%%%%%%%%%%%%%..o",
"%%%444444444444444;%%%uuukkkkkkkkkuuuuuuu...%%%uuuuuuuuuuuuuuuu444%%%......",
"%%%444444444444444;%%%uuukklkkkjkkuuuuuuu...%%%uuuuuuuuuuuuuuuu444%%%. ....",
"%%%444444444444444;%%%uuukkkkkkkzkuuuuuuu...%%%uuuuuuuuuuuuuuuu444%%%......",
"%%%;;;444444444;;;=%%%uuukkkssssssuuuuuuu@@@999uuuhhhhhhhhhhhhhwww,,,@@@...",
"%%%%%%444444444%%%&%%%uuukkkuuutuuuiuuuuu%%%uutuuukkkzkkkkkkkkkuuu444%%%...",
"%%%%%%444444444%%%%%%%tuukkkuuuuuuuuuuuuu%%%uuuuutzkkkkkzkkkkkkuuu444%%%X..",
"%%%%%%444442444%%%%%%%uuukkkuuuuiuuuuuuut%%*uuuuuukkkkkkkkkkkkkuuu444%*%...",
"...%%%&%%%%%%%%...@%%%%%%444uuuuuuuuuuuuu%%%uuukkkuuuuuuuuuuuuuyuu442&%%...",
"...%%%%%%%%%%%%...@%%%%$%444uuuuuuuuuuuuu%&%uuukkkuyuuuuuuuuuuuuuu544%%%...",
"...%%%%%%%%%%%%...@%%%%%%444uuuuuuuuuuuuu%%%uuukkkuuuuuuuuuuuuuutu444%%%...",
"&%%%%%.........&%%%%%%%%%%%%4444444444444%%%444uuuuuuuuuuuuuuuu444444%%%%%%",
"%%%%%%.........%%%%*%%%%%%%&4444444444444%&*444uuuuutuuuuuuuuuu444444%%%%%%",
"%%%%%%.........%%%%%%%%%%%%%4443444444454%%%444uuuuuuuuuuuuuuuu444444%%%%%%",
"uuuuuu%%%. .&%%uuuuuuuuuuuuuuuuuuu%%%*%%%...4444444444444444444444%%%%%%uuu",
"uuuutu%%%...%%%uuuuuuuuuuuuuuuuuuu%%%%%%%...4444444444444544434544%%%%%%uuu",
"uuuyuu%%%...%%%uuuuuuutiuuuuuuuuuu%%%%%%%...4444444444444444442444%%$%%%uuu",
"kkkyuu444%%%uuuuuuhkkkkklkkkkzkuuuuuu8%%%...%%%4444444444444444%%%%%%444kjk",
"kkkutu444%%%uuuuuuhkkkkkkkkkkkkuuuuuu8%%*.X.%%%4444444544444444&%%%%%444kkk",
"kkkutu444%%%uuuuuuhjkkkkkkkkkkkuuuuuu8%%%...%%%4444444444434444%%%&%%444kkk",
"uuuuuu434%%%uuukkksuuuuuuuuyuuukzkuuuq444......%%%%%%%%%%%%%%%%%*$...444yuu",
"uuuuuu444%%$uuukkksuuuuuuuuuuuukkkuuuq444......%%%%%%%%%%%%%%%%%%%...444uuu",
"uuuuuu444%%%uuukkzauiuuuuuuuuuukkkuuuq443..... %%%%&%%%%%%%%%%%%%%...434uuu",
"uuuuuu444%%%qqqgggpuuuuuyuuuuuugggggge444...+++8878888888888878%%%...444uuu",
"uuuuuu444%%%444uuuuuuuuuuuuuuuuuuukkkr454...%%%uuuuuuuuuuuuuutu%%%...444uuu",
"uuuuuu442%%%444uuuuuuuuuuuuuuuuuuukkkr444o..%%%uuuuuuuutuuuuuuu&%%...444uuu",
"uuuuuu444&%%444uuuyuuuuuuuuuuuutuukkkr444...%&%uuuuuuuuuuuuuuuu%%%..o444uui",
"442444444%%%434uuiuuuyuiuuuuuuuuuuuuuq443%%%uuuuuukkkkkkkkkkuuuuuu%%%434444",
"444442444%%%444uuuuuuuuuuuuuuiuuuuuuuq444%%%uuuuuuklkkkkkkkkuuuuui%%%444444",
"444434444%%%544uuuuuuuuuuuuuuuuuuuuuuq444$%%uuuuuukkkkkkkkkzyuuuuu%%%444444",
"444444%%$..o444uuuuuuuuuuuuuuuuuuuuuuq444%%%uutzkkuuuuuuuuuukkkuuu%%%%%%444",
"444444%%%...444utuuuuuuuuuuuuuuuuuuuuq444%%%uuukkkiuuuuuuuuukkkuuu%%%%%%444",
"444444%%%...444uuuuuuuuuuuuuuuuuuuuuyq444%%%uuuzkkuuuuuuuuuukkkuuu%%%%%%444",
"%%%%%%.... .444444wuuuuuuuuuuuuuuuuuuq444%%%244uuuuuuuuuuuuuuuu444%%%...%%%",
"%%%%%%......444444wuuuuuyuuuuuuuuuuuuq444%%%244uuuuuuuuuuuuiuuu444%%%...%%%",
"%%%%%%......444444wuuuuuuuuuuuuuuuuuuq444%%%444uuuuuuuytuuuuuuu444%%%...%%%",
"%%%......%%%%%%4444424uuuuuuuuuuiuuuuq444%%%4442434444544444444444%%%...%%%",
"%*%......%%%%%%4444444uuuuuuuuuuuuuuuq454%%%4444544444444444434444&%%...%%%",
"%%%. ....%%%%%%4444444uuuuuuuuuuuuuuuq444%%%4444544444444444444444%%%X..%%%",
"uuuuuuuuuuuu%%%%%%,444444uuuuuuuuu4444244%%%%%%4444444444534444444%%%%%%uuu",
"uuuyuuutuuuu%%%%%%,444444uuuuuuuuu4444444%%%%%%4444444444444444444%%%&%%uuu",
"uuuuuiuuuuuu%%%%%%,444444uuuuuuuuu4444444%%%%%%4444444444444444544%*%%%%uuu",
"sssssfssssds666%%%-,,,444wwwwwwwww444<,,,@@@%%%,,,,,,,,,,,,,,,,,,,%%%666sss",
"kkkkkkkkkkkkuuu%%%%%%%444444444444444:%%%...%%%%%%%%%%%%%%%%%%%%%%%%%uuukkk",
"ljkkkkkkzkkkuuu%%%%%$%444444444444444>%%%...%%%%%*%%%$%%%%%%%%%%%%%%%uuukkk",
"kkkkkkkkkkkkuuu%%%%%$%444444424444444:%%%...%%%%&%%%%%%%%%%%%%%&%%%%%uuukkk",
"uuuuuuuuuuuukkkuuu6%%%%%%444444444%%%+...%%%uyuuuuuuuuuuuuuu%%%...%%%yuuuuu",
"uuuuuuuuuuuikjkuuu6%%%%%%444444444%%%+o..%%%uuuuuuuuuuuuuuuu&%%...%%%uuuuuu",
"uuuuuuyuuuuukkkuuu6%%%%%%444444444%%%+...%%%uuuuuuuuuuuuuuuu%%%...%%%uuuuuu",
"uuuuuuuuuuuuuuukkksuuu%%%%%%%%%%%%%%%%%&%uuukkkkkkkkkuuuuuuuuuu%%%%%%444yuu",
"uuuuuuuuuuuuuuukkksuuu%%%%%%*%%%%%%%%%%%%uuukkkkkkkkkuuuuuuuutu%%%%%%444uuu",
"uuuuuuuuuuuuuuukkksuuu%%%%%%%%%%%%%%%%%%%uuukkkkkkkkkuuuuuuuuuu%%%%%%444uuu",
"uuuuuuuuiuuuuuuuuu0444444...... .....+%&%kkkuuuiuuuuuuuuiuuuuuu%%%&%%444444",
"uuuuuuuuuuuuuuiuuu0444444............+%%%kkkuuuuuuuuuuuuuuuuuuu%%%%%%444444",
"uuuuuuuuuyuuuuiuuu0444444............+%%%kkkuuuuuuuuuuuuiuuuuuu%%%%%%444444",
"4444444444444444444444%%%uuuuuuuiu%%%%%%%444uuuiuuuuuiuuuuuu442%%%...%%%444",
"4444444344444444444444*%%uuuuuuuuu%%%%%%%244uuuuuuuuuuuuuuuu444%%%...%%%444",
"4444444444444444444444%%%uuuuuuuuu%%%%%%%444uuuuuuuuuuuuuuuu444&%%...%%%444",
"%%%%%%%%%%%%%%%%*%%%%%uuukkkkkkuuuuuu8%%%$%%4444444444444444&%$%%%%%%...%%%",
"%%%%%%%%%%%%%%%%%%%%%%uuukkkkkkuuuuuu8%%%%%%4434444444444444%%%%%%%%%...%%%",
"%%%%%%%%%%%%&%%%%%%%%%tuukkkkkkuiuuuu8%%%$%%4444544444444442%*%%%%%%%...%%%"
};
